<svg width="512" height="512" xmlns="http://www.w3.org/2000/svg" xmlns:svg="http://www.w3.org/2000/svg" xmlns:xlink="http://www.w3.org/1999/xlink" style="vector-effect: non-scaling-stroke;">
<defs style="vector-effect: non-scaling-stroke;">
<symbol height="606" id="svg_1" style="vector-effect: non-scaling-stroke;" viewBox="0 0 637 606" width="637" xmlns="http://www.w3.org/2000/svg" xmlns:svg="http://www.w3.org/2000/svg" xmlns:xlink="http://www.w3.org/1999/xlink">
<g style="vector-effect: non-scaling-stroke;"
transform="translate(6,335) scale(0.625,-0.625) translate(500,0)">
<path d="m-499.885,162.423l260.826,0c37.377,54.898 93.167,96.258 158.4792,115.189l80.5798,247.999l80.5798,-247.999c65.3122,-18.931 121.1022,-60.291 158.4792,-115.189l260.826,0l-211.026,-153.31922c0.094,-3.02314 0.141,-6.05796 0.141,-9.10378c0,-66.7479 -22.64,-128.218 -60.659,-177.148l80.606,-248.08l-210.9582,153.27c-30.599,-11.03 -63.5932,-17.042 -97.9888,-17.042c-34.3956,0 -67.3898,6.012 -97.9888,17.042l-210.9582,-153.27l80.606,248.079c-38.019,48.931 -60.659,110.4011 -60.659,177.149c0,3.04581 0.047,6.08063 0.141,9.10377l-211.026,153.31923zm332.809,0l49.069,0l15.183,46.73c-24.051,-11.843 -45.762,-27.713 -64.252,-46.73zm435.843,-56c4.436,-11.1895 8.193,-22.7217 11.22,-34.5457l47.548,34.5457l-58.768,0zm-132.564,0l36.541,-112.46233l57.531,41.79843c-3.865,25.1019 -11.733,48.8807 -22.933,70.6639l-71.139,0zm54.737,-168.4621l15.181,-46.7249c12.241,23.1558 20.694,48.624 24.535,75.581l-39.716,-28.8561zm-356.211,-102.2209c17.478,-17.584 37.744,-32.394 60.081,-43.711l57.5538,41.816l-95.6668,69.5057l-21.968,-67.6107zm-65.385,131.077c3.841,-26.957 12.294,-52.4252 24.535,-75.581l15.182,46.7249l-39.717,28.8561zm0.381,68.9421l57.531,-41.79842l36.541,112.46232l-71.139,0c-11.2,-21.7832 -19.068,-45.562 -22.933,-70.6639zm-97.26,70.6639l47.548,-34.5457c3.027,11.824 6.784,23.3562 11.22,34.5457l-58.768,0zm125.107,-385.041l47.584,34.572c-10.257,6.522 -20.074,13.672 -29.398,21.397l-18.186,-55.969zm357.272,34.572l47.584,-34.572l-18.186,55.969c-9.324,-7.725 -19.141,-14.875 -29.398,-21.397zm-107.2078,77.891l57.5538,-41.816c22.337,11.317 42.603,26.127 60.081,43.711l-21.968,67.6107l-95.6668,-69.5057zm-87.3638,-63.474c12.9101,-2.216 26.1837,-3.371 39.7276,-3.371c13.5439,0 26.8175,1.155 39.7276,3.371l-39.7276,28.864l-39.7276,-28.864zm142.5516,438.782l15.183,-46.73l49.069,0c-18.49,19.017 -40.201,34.887 -64.252,46.73zm-121.0045,79.284c6.0123,0.374 12.07431,0.563 18.1805,0.563c6.1062,0 12.1682,-0.189 18.1805,-0.563l-18.1805,55.954l-18.1805,-55.954zm-40.9445,-126.014l118.25,0l-21.9754,67.633c-12.0971,1.938 -24.5055,2.944 -37.1496,2.944c-12.6441,0 -25.0525,-1.006 -37.1496,-2.944l-21.9754,-67.633zm-65.982,-203.0725l125.107,-90.8955l125.107,90.8955l-47.7865,147.0725l-154.641,0l-47.7865,-147.0725z" style="vector-effect: non-scaling-stroke;"/>
<path d="m113.439,-265.878l168.878,-122.697l-103.287,317.8833l-23.818,-17.3048l73.846,-227.2735l-87.263,63.4c-9.154,-5.166 -18.618,-9.846 -28.356,-14.008zm-570.237,414.301l270.407,-196.4622l9.098,28.0003l-193.329,140.4619l107.839,0c4.421,9.63 9.356,18.975 14.77,28l-208.785,0zm318.044,-231.0724l196.8845,-143.0446c11.1888,2.872 22.0525,6.554 32.5248,10.979l-220.3113,160.066l-9.098,-28.0004zm191.6241,309.6284l84.1469,-258.9758l23.818,17.3049l-75.2068,231.4619c-10.5628,4.174 -21.504,7.599 -32.7581,10.209zm-156.1571,-64.556l29.4413,0l73.8457,227.273l33.3365,-102.599c10.5745,-1.215 20.9756,-3.001 31.1717,-5.327l-64.5082,198.536l-103.287,-317.883zm-96.234,-42l272.2927,0l-9.0978,28l-243.3099,0c-7.288,-8.811 -13.94,-18.168 -19.885,-28zm-82.796,-508.998l270.4079,196.463l-23.8185,17.305l-193.3304,-140.463l33.349,102.639c-7.762,7.149 -15.133,14.717 -22.075,22.669l-64.533,-198.613zm85.639,263.57c6.163,-9.678 13.021,-18.87 20.504,-27.507l84.1328,258.935l-29.4408,0l-75.196,-231.428zm208.5867,-15.192l23.8184,-17.306l196.8299,143.0052c0.294,4.79478 0.443,9.62882 0.443,14.4978c0,6.6797 -0.281,13.2936 -0.832,19.8306l-220.2593,-160.0276zm110.6473,288.62l9.098,-28l238.968,0l-87.251,-63.3913c2.055,-10.2609 3.566,-20.718 4.502,-31.3398l168.925,122.7311l-334.242,0z" fill="rgb(204,235,255)" style="vector-effect: non-scaling-stroke;"/>
<path d="m211.995,-126.841l11.058,-34.032c32.741,45.314 51.947,100.3823 51.947,160.873c0,42.5692 -8.991,76.9947 -21.354,106.423l-30.68,0c12.56,-26.2701 24.034,-63.0752 24.034,-106.423c0,-51.9661 -15.793,-94.7959 -35.005,-126.841zm-296.1262,-135.049c26.5171,-8.513 54.7879,-13.11 84.1312,-13.11c59.4178,0 124.307,19.035 179.572,66.727l-9.476,29.163c-61.655,-58.569 -131.8248,-67.89 -170.096,-67.89c-18.954,0 -37.4088,2.134 -55.1375,6.175l-28.9937,-21.065zm-183.6198,324.8775l24.83,-18.04c14.872,80.9215 70.255,149.9685 145.9789,182.3075l11.07,34.069c-91.9739,-30.209 -160.4629,-106.969 -181.8789,-198.3365zm-7.247,-63.95429c0.312,-90.92591 47.118,-182.37621 132.376,-234.19921l24.801,18.018c-66.48,36.145 -120.408,106.738 -128.212,195.1366l-28.965,21.04461zm242.6729,245.87079c10.579,1.383 21.3687,2.096 32.3251,2.096c88.1811,0 150.775,-44.135 186.099,-84.577l35.825,0c-51.686,70.499 -133.1544,112.577 -221.924,112.577c-7.69474,0 -15.3157,-0.316 -22.8507,-0.936l-9.4744,-29.16z" fill="rgb(204,238,221)" style="vector-effect: non-scaling-stroke;"/>
</g></symbol></defs>
<g class="layer">
<use id="svg_2" xlink:href="#svg_1"/>
<g id="svg_3" style="vector-effect: non-scaling-stroke;"/>
</g></svg>
