<svg
	version="1.1"
	xmlns="http://www.w3.org/2000/svg"
	xmlns:xlink="http://www.w3.org/1999/xlink"
	width="256px"
	height="256px"
	viewBox="25 15 256 272"
	fill="#fff"
>
<g>
	<path d="M265.844,111.992c0,13.125-4.376,24.609-13.125,34.453c-9.063,10.235-20.079,15.352-33.047,15.352
		c-10.938,0-20.118-3.555-27.539-10.664C184.71,144.024,181,135.04,181,124.18c0-5.859,1.366-11.171,4.102-15.938
		c-10.157,4.688-15.234,13.868-15.234,27.539c0,17.267,8.007,28.634,24.023,34.102c8.827,3.047,24.062,4.57,45.703,4.57v20.391
		h-11.836c-4.376,0-9.103,7.5-14.18,22.5c-6.485,19.219-13.477,33.164-20.977,41.836c-13.048,15-31.485,22.5-55.313,22.5
		c-22.11,0-39.922-6.621-53.438-19.863c-13.517-13.242-20.273-30.879-20.273-52.91c0-9.844,2.617-18.75,7.852-26.719
		c5.937-9.141,13.594-13.711,22.969-13.711c15.78,0,23.672,14.18,23.672,42.539c0,1.095-0.079,6.328-0.234,15.703H128.5
		c-0.079-13.047,0.624-21.719,2.109-26.016c3.047-8.28,9.921-12.422,20.625-12.422c6.094,0,11.171,2.227,15.234,6.68
		c4.062,4.453,6.094,9.767,6.094,15.938v31.172h-70.195v-45.469c0-7.422-2.54-11.133-7.617-11.133c-5,0-8.75,2.853-11.25,8.555
		c-1.954,4.376-2.93,9.415-2.93,15.117c0,16.328,5.508,29.531,16.523,39.609c10.703,9.844,24.258,14.766,40.664,14.766
		c15.938,0,28.125-3.36,36.563-10.078c7.734-6.173,14.297-17.032,19.688-32.578c3.047-8.672,4.647-13.281,4.805-13.828
		c2.03-5.156,4.336-9.414,6.914-12.773c-15.392-1.563-28.477-7.422-39.258-17.578c-11.407-10.781-17.109-23.711-17.109-38.789
		c0-13.75,5.273-25.272,15.82-34.57c10.155-8.828,22.226-13.242,36.211-13.242h20.273v18.516
		c-16.485-0.156-24.727,5.625-24.727,17.344c0,5.938,2.421,10.743,7.266,14.414c4.374,3.281,9.647,4.922,15.82,4.922
		c8.438,0,15.39-4.336,20.859-13.008c4.765-7.577,7.148-15.82,7.148-24.727c0-20.391-11.329-37.031-33.984-49.922
		c-19.142-10.937-39.767-16.406-61.875-16.406c-21.954,0-41.367,4.415-58.242,13.242c-20.079,10.47-32.227,25.391-36.445,44.766
		c5.937-6.25,13.594-9.375,22.969-9.375c10.155,0,18.554,3.321,25.195,9.961c6.64,6.641,9.961,15.04,9.961,25.195
		c0,10.078-3.34,18.497-10.02,25.254c-6.68,6.758-15.059,10.137-25.137,10.137c-11.876,0-21.993-5.625-30.352-16.875
		c-7.579-10.313-11.367-21.64-11.367-33.984c0-27.499,12.422-49.688,37.266-66.563c22.031-14.921,47.421-22.383,76.172-22.383
		c29.766,0,55.468,7.617,77.109,22.852C253.656,60.547,265.844,83.398,265.844,111.992z M99.555,125.234
		c0-5.468-1.816-10.058-5.449-13.77c-3.633-3.71-8.185-5.566-13.652-5.566c-5.391,0-9.961,1.875-13.711,5.625
		s-5.625,8.32-5.625,13.711c0,5.079,1.952,9.551,5.859,13.418c3.906,3.867,8.397,5.801,13.477,5.801
		c5.468,0,10.02-1.835,13.652-5.508C97.738,135.274,99.555,130.704,99.555,125.234z M144.906,169.766
		c0,2.656-0.978,4.962-2.93,6.914c-1.954,1.953-4.259,2.93-6.914,2.93c-2.657,0-4.962-0.977-6.914-2.93
		c-1.954-1.952-2.93-4.258-2.93-6.914c0-2.655,0.976-4.961,2.93-6.914c1.952-1.952,4.257-2.93,6.914-2.93
		c2.655,0,4.96,0.978,6.914,2.93C143.929,164.805,144.906,167.11,144.906,169.766z M156.859,226.719v-17.93
		c0-1.328-0.645-2.676-1.934-4.043c-1.289-1.366-2.599-2.051-3.926-2.051c-4.688,0-7.031,2.032-7.031,6.094v17.93H156.859z"/>
</g>
</svg>
