<svg xmlns="http://www.w3.org/2000/svg" width="225" height="225" xmlns:xlink="http://www.w3.org/1999/xlink"><defs><linearGradient id="b"><stop offset="0" stop-color="#555554"/><stop offset="1" stop-color="#8c8c8c"/></linearGradient><linearGradient id="a"><stop offset="0" stop-color="#a1a1a1"/><stop offset="1" stop-color="#555554"/></linearGradient><linearGradient id="c" x1="72" x2="97.7" y1="70.9" y2="95" xlink:href="#a" gradientUnits="userSpaceOnUse"/><linearGradient id="d" x1="96" x2="70.3" y1="153.2" y2="125.1" xlink:href="#b" gradientUnits="userSpaceOnUse"/></defs><path fill="#009b00" fill-rule="evenodd" d="M0 0h226.6v225.8H0z"/><path fill="none" stroke="#000" stroke-width="5" d="M174.3 94.7l.3 15-5.8 15.8m51.4-99l11.7-5.3"/><path fill="url(#c)" fill-rule="evenodd" stroke="#000" d="M97 90.2l-1.5-8L82 71.7 73 84l-3 7 10.4 3z"/><path fill="none" stroke="#434443" stroke-width="3" d="M70 90l10 3.7 16.6-3.5"/><path fill="url(#d)" fill-rule="evenodd" stroke="#000" d="M82.5 125.8l13.3 14.8-.3 12.2-25.2-.5 2-10.3z"/><path fill="none" stroke="#434443" stroke-width="3" d="M70 151.8l25.5 1.3"/><path fill="#d3d3d3" stroke="#000" d="M111.5 204.2l1.8-7.4 10.6 2.5-2 7.5z"/><path fill="#d3d3d3" stroke="#000" stroke-width="1.1" d="M27.3 240.7h8.5v11.7h-8.5z" transform="matrix(.85724 -.51492 .56315 .82636 0 0)"/><path fill="#d3d3d3" stroke="#000" d="M-16.6 266.8H-9v10.7h-7.6z" transform="matrix(.73792 -.6749 .68585 .72774 0 0)"/><path fill="#d3d3d3" stroke="#000" stroke-width=".5" d="M-168.5 200.5h4v5.2h-4z" transform="rotate(-81.18) skewX(.168)"/><g stroke="#000"><path fill="#d3d3d3" stroke-width=".8" d="M21.6 228h7v11.6h-7z" transform="matrix(.90645 -.4223 .44785 .8941 0 0)"/><path fill="#d3d3d3" stroke-width=".7" d="M-68.6 257h6.6v10.4h-6.6z" transform="matrix(.5749 -.81823 .80168 .59775 0 0)"/><path fill="#fefe00" stroke-width="4" d="M9 35h61.6v61.8H9zm29.7-62.5h61.6v61.8H38.7z"/><path fill="silver" stroke-width="4" d="M128.2 124.6h61.6v61.8h-61.6z"/><path fill="#fed600" stroke-width="5.7" d="M130.3 5h88.2v88.7h-88.2z"/></g><text x="136.1" y="54.4" style="line-height:125%;-inkscape-font-specification:'sans-serif, Normal';text-align:start" font-size="17.5" font-family="sans-serif" letter-spacing="0" word-spacing="0"><tspan x="136.1" y="54.4">Starbase</tspan></text><text x="41.7" y="13" style="line-height:125%;-inkscape-font-specification:'sans-serif, Normal';text-align:start" font-size="17.5" font-family="sans-serif" letter-spacing="0" word-spacing="0"><tspan x="41.7" y="13">Power</tspan></text><text x="12.7" y="71" style="line-height:125%;-inkscape-font-specification:'sans-serif, Normal';text-align:start" font-size="17.5" font-family="sans-serif" letter-spacing="0" word-spacing="0"><tspan x="12.7" y="71">Power</tspan></text><text x="134.2" y="161.7" style="line-height:125%;-inkscape-font-specification:'sans-serif, Normal';text-align:start" font-size="17.5" font-family="sans-serif" letter-spacing="0" word-spacing="0"><tspan x="134.2" y="161.7">Scrap</tspan></text></svg>