<svg width="78" height="120" viewBox="0 0 78 120" fill="none" xmlns="http://www.w3.org/2000/svg">
<rect width="8" height="12" transform="matrix(-1 0 0 1 78 108)" fill="#5E2315"/>
<rect width="8" height="12" transform="matrix(-1 0 0 1 36 108)" fill="#5E2315"/>
<rect width="8" height="16" transform="matrix(-1 0 0 1 28 56)" fill="#CCAE62"/>
<rect width="8" height="20" transform="matrix(4.37114e-08 -1 -1 -4.37114e-08 20 80)" fill="#218C74"/>
<rect width="8" height="16" transform="matrix(-1 0 0 1 78 92)" fill="#CCAE62"/>
<rect width="8" height="16" transform="matrix(-1 0 0 1 36 92)" fill="#CCAE62"/>
<rect width="42" height="41" transform="matrix(-1 0 0 1 70 0)" fill="#218C74"/>
<rect width="34" height="8" transform="matrix(-1 0 0 1 62 20)" fill="#1B7B66"/>
<rect width="16" height="8" transform="matrix(-1 0 0 1 53 33)" fill="#D63031"/>
<rect width="16" height="92" transform="matrix(-1 0 0 1 78 0)" fill="#1B7B66"/>
<rect width="8" height="8" transform="matrix(-1 0 0 1 36 20)" fill="#FFB142"/>
<rect width="50" height="51" transform="matrix(-1 0 0 1 78 41)" fill="#CCAE62"/>
<rect width="8" height="8" transform="matrix(-1 0 0 1 70 49)" fill="#CC8E35"/>
<rect width="8" height="50" transform="matrix(4.37114e-08 1 1 -4.37114e-08 28 72)" fill="#5D2315"/>
<rect x="54" y="57" width="8" height="8" fill="#CC8E35"/>
<rect x="46" y="65" width="8" height="8" fill="#218C74"/>
<rect x="20" y="65" width="8" height="8" fill="#CC8E35"/>
<rect x="12" y="72" width="8" height="8" fill="#CCAE62"/>
<rect x="38" y="73" width="8" height="8" fill="#218C74"/>
<rect width="8" height="8" transform="matrix(-1 0 0 1 78 49)" fill="#CC8E35"/>
<rect width="8" height="8" transform="matrix(-1 0 0 1 62 20)" fill="#FFB142"/>
<rect width="16" height="8" transform="matrix(-1 0 0 1 53 41)" fill="#218C74"/>
</svg>
