<svg width="102" height="120" viewBox="0 0 102 120" fill="none" xmlns="http://www.w3.org/2000/svg">
<rect x="24" y="108" width="8" height="12" fill="#5E2315"/>
<rect x="66" y="108" width="8" height="12" fill="#5E2315"/>
<rect x="74" y="56" width="8" height="16" fill="#D1CCC0"/>
<rect x="92" y="22" width="8" height="65.8236" fill="#D1CCC0"/>
<rect x="16" y="52" width="8" height="8" fill="#D1CCC0"/>
<rect x="82" y="80" width="8" height="20" transform="rotate(-90 82 80)" fill="#FFDA79"/>
<rect x="8" y="60" width="8" height="16" fill="#D1CCC0"/>
<rect x="24" y="92" width="8" height="16" fill="#D1CCC0"/>
<rect x="66" y="92" width="8" height="16" fill="#D1CCC0"/>
<rect y="76" width="8" height="12" fill="#FFDA79"/>
<rect x="24" width="50" height="92" fill="#D1CCC0"/>
<rect x="32" y="12" width="42" height="29" fill="#FFDA79"/>
<rect x="40" y="20" width="8" height="8" fill="#1E1E1E"/>
<rect x="24" width="8" height="108" fill="#AAA69D"/>
<rect x="32" width="8" height="92" fill="#AAA69D"/>
<rect x="66" y="20" width="8" height="8" fill="#1E1E1E"/>
<rect x="74" y="56" width="8" height="8" fill="#AAA69D"/>
<rect x="48" y="41" width="18" height="8" fill="#FFDA79"/>
<rect x="16" y="52" width="8" height="8" fill="#AAA69D"/>
<rect x="32" y="12" width="42" height="8" fill="#CCAE62"/>
<rect x="32" y="20" width="8" height="21" fill="#CCAE62"/>
<rect x="74" y="72" width="8" height="50" transform="rotate(90 74 72)" fill="#5D2315"/>
</svg>
