<svg width="800" height="600" xmlns="http://www.w3.org/2000/svg"><path fill="#191919" d="M-6.01-4.008h813.979v609.985H-6.01z"/><path stroke="null" d="M155.672 264.72c-12.878-.351-36.059 4.92-30.89-4.09 8.96-5.529 33.221-2.9 30.463 3.543l.315.403.112.144h0zm31.15-11.951c-12.292 7.496-39.984 8.032-60.777 10.824-9.63 1.967-48.673 3.245-33.807-2.76 21.23-5.01 47.343-6.22 71.246-8.952 7.696-.644 16.623-.897 23.338.888zm-63.575 7.928l-28.13-34.375c11.472-5.556 36.762-3.147 33.258 4.259l21.87 26.724m-10.104 6.03c40.957 51.1 88.584 101.6 148.1 150.366M150.956 262.005c41.375 48.09 83.717 96.229 140.829 142.304.786 3.57 26.867 14.273 3.222 11.511-7.353-1.254-19.91-.401-21.273-4.082-55.793-48.009-104.166-97.108-145.042-146.983" fill="#7a1313"/><path stroke="null" d="M292.092 222.748c1.985 13.373-3.637 26.099-8.026 37.65-9.35 20.377-20.198 39.99-33.812 55.826-9.29 10.034-17.659 21.591-28.177 29.542-13.75 12.16-28.515 22.117-43.825 30.398-11.384 6.51-23.322 11.13-35.52 14.16-3.547 1.206-13.467 4.615-7.296-3.383 5.119-2.836 10.564-4.906 15.71-7.864 24.986-13.463 51.536-25.292 71.692-49.855 3.34-5.821-6.408 3.144-8.088 5.603-16.816 15.712-36.026 26.247-54.972 36.653-9.638 4.19-20.173 13.123-30.412 6.784-8.845-4.435 2.115-5.115 6.023-6.805 17.371-6.482 34.947-12.713 50.89-24.184 9.102-4.37 16.753-12.417 24.931-19.05 8.835-8.008 16.921-17.367 25.522-25.813 5.629-5.601 11.222-11.255 15.882-18.275 7.88-10.35 15.523-20.993 22.665-32.232 4.666-6.914 9.916-13.244 13.196-21.535l3.617-7.62zM108.641 353.365c1.077-.044 2.189.265 3.12 1.08 6.955 4.564 5.465 13.04 9.44 19.559 2.98 5.216 6.457 7.824 11.425 9.78-.993 2.607-2.98 6.52-2.98 9.779 0 7.172 6.458 13.691 11.425 13.04 1.987-.653 6.458-3.912 7.949 0 .497 1.303.497 2.607 0 3.26 0 2.607-2.484 3.911-4.471 5.215-5.465 1.956-11.426-.652-15.897-4.564-3.478-2.608-5.961-7.172-6.955-12.387l-.994-8.476c-.496-2.608-2.483-3.26-4.967-7.823-2.981-5.216-5.962-14.344-9.936-18.255-1.49-1.304-2.98-1.956-4.968-2.608.994-1.956 1.987-3.26 2.981-5.216.994-.652 1.987-1.956 2.98-1.956a5.213 5.213 0 011.848-.428zm-21.035 24.612c1.867-.027 3.819.51 5.775 1.243l-3.975 3.26c.994 2.607 3.478 7.823 2.981 11.083-.497 6.52-7.452 6.52-10.432 2.608-3.478-5.216-3.478-13.04 1.49-16.951 1.304-.856 2.708-1.222 4.16-1.243zm9.578 3.199c.389.001.77.006 1.149.02 2.753.198 5.505.47 8.259.632 1.73.029 3.496-.005 5.17.652 2.27 1.9 3.786 5.053 4.672 8.333.12.472.22.958.295 1.446-2.763 1.642-5.845 1.466-8.802 1.324-1.792-.062-3.584.23-5.371.347-1.28.074-2.555.303-3.835.244-1.57-.068-3.023-1.236-3.85-2.974-.715-1.486-1.391-3.023-1.832-4.686-.356-1.494-.422-3.569.76-4.462 1.03-.746 2.218-.882 3.385-.876h0zm-1.816 14.995c.497.652.993.652 1.49 1.304.497 3.26-5.961 11.083-6.955 3.912 2.484-1.304 3.974-2.608 5.465-5.216h0z" fill="#ccc"/><text transform="matrix(.94627 0 0 .77938 26.164 56.121)" stroke="null" font-style="italic" font-family="'Piazzolla'" font-size="45" y="319.381" x="492.261" stroke-width="0" fill="#e5e5e5">VENGE</text><text font-style="italic" transform="matrix(1.56404 0 0 1.63107 -258.868 -139.6)" stroke="null" font-family="'Piazzolla'" font-size="45" y="273.985" x="415.979" stroke-width="0" fill="#7f0000">RE</text><path fill="#7f0000" d="M505.977 321.984h211.995v2H505.977z"/><path fill="#fff" d="M588.975 330.984h140.996v2H588.975z"/></svg>