<svg width="78" height="120" fill="none" xmlns="http://www.w3.org/2000/svg"><path fill="#5E2315" d="M78 108h-8v12h8zM36 108h-8v12h8z"/><path fill="#CCAE62" d="M28 56h-8v16h8z"/><path fill="#218C74" d="M20 80v-8H0v8z"/><path fill="#CCAE62" d="M78 92h-8v16h8zM36 92h-8v16h8z"/><path fill="#218C74" d="M70 0H28v41h42z"/><path fill="#1B7B66" d="M62 20H28v8h34z"/><path fill="#D63031" d="M53 33H37v8h16z"/><path fill="#1B7B66" d="M78 0H62v92h16z"/><path fill="#FFB142" d="M36 20h-8v8h8z"/><path fill="#CCAE62" d="M78 41H28v51h50z"/><path fill="#CC8E35" d="M70 49h-8v8h8z"/><path fill="#5D2315" d="M28 72v8h50v-8z"/><path fill="#CC8E35" d="M54 57h8v8h-8z"/><path fill="#218C74" d="M46 65h8v8h-8z"/><path fill="#CC8E35" d="M20 65h8v8h-8z"/><path fill="#CCAE62" d="M12 72h8v8h-8z"/><path fill="#218C74" d="M38 73h8v8h-8z"/><path fill="#CC8E35" d="M78 49h-8v8h8z"/><path fill="#FFB142" d="M62 20h-8v8h8z"/><path fill="#218C74" d="M53 41H37v8h16z"/></svg>