<svg width="102" height="120" fill="none" xmlns="http://www.w3.org/2000/svg"><path fill="#5E2315" d="M24 108h8v12h-8zM66 108h8v12h-8z"/><path fill="#D1CCC0" d="M74 56h8v16h-8zM92 22h8v65.824h-8zM16 52h8v8h-8z"/><path fill="#FFDA79" d="M82 80v-8h20v8z"/><path fill="#D1CCC0" d="M8 60h8v16H8zM24 92h8v16h-8zM66 92h8v16h-8z"/><path fill="#FFDA79" d="M0 76h8v12H0z"/><path fill="#D1CCC0" d="M24 0h50v92H24z"/><path fill="#FFDA79" d="M32 12h42v29H32z"/><path fill="#1E1E1E" d="M40 20h8v8h-8z"/><path fill="#AAA69D" d="M24 0h8v108h-8zM32 0h8v92h-8z"/><path fill="#1E1E1E" d="M66 20h8v8h-8z"/><path fill="#AAA69D" d="M74 56h8v8h-8z"/><path fill="#FFDA79" d="M48 41h18v8H48z"/><path fill="#AAA69D" d="M16 52h8v8h-8z"/><path fill="#CCAE62" d="M32 12h42v8H32zM32 20h8v21h-8z"/><path fill="#5D2315" d="M74 72v8H24v-8z"/></svg>