<svg width="24" height="24" xmlns="http://www.w3.org/2000/svg"><path d="M0 0h24v24H0z"/><path style="stroke:none;stroke-width:1;stroke-dasharray:none;stroke-linecap:butt;stroke-dashoffset:0;stroke-linejoin:miter;stroke-miterlimit:4;fill:#dc143c;fill-rule:evenodd;opacity:1" transform="matrix(.83 0 0 .83 2.04 2.04)" d="M0 2a2 2 0 0 1 2-2h14a2 2 0 0 1 2 2v1.5a1 1 0 1 1-2 0V2H2v14h1.5a1 1 0 1 1 0 2H2a2 2 0 0 1-2-2V2Z"/><path style="stroke:none;stroke-width:1;stroke-dasharray:none;stroke-linecap:butt;stroke-dashoffset:0;stroke-linejoin:miter;stroke-miterlimit:4;fill:#4682b4;fill-rule:evenodd;opacity:1" transform="matrix(.83 0 0 .83 2.04 2.04)" d="M8 6a2 2 0 0 0-2 2v14a2 2 0 0 0 2 2h14a2 2 0 0 0 2-2V8a2 2 0 0 0-2-2H8Z"/></svg>