<svg xmlns="http://www.w3.org/2000/svg" viewBox="248 60 269 308" width="269" height="308"><style><![CDATA[.K{stroke-linejoin:round}.L{stroke-width:4}.M{stroke-width:2}.N{fill:#b6b6b6}.O{stroke:#242424}]]></style><g class="K L"><path d="M353.262 174.246h180v10h-180z" transform="rotate(314.975 443.262 179.246)" stroke="#6d6d6d" fill="#dadada"/><path d="M247.967 276.705h176v25h-176z" transform="rotate(317.823 335.967 289.205)" stroke="#5b5343" fill="#6b5a3e"/></g><g class="K"><path d="M321.987 169.475l-17.069 15.771c.675.623 17.069 3.082 17.889 3.082S315.43 208 315.43 208s10.655-9.016 11.475-9.016S311.331 357.18 311.331 358s133.607-1.639 133.607-.82-22.131-147.541-22.951-147.541 17.213 0 16.393 0l-12.97-20.295c.675.623 14.61-4.295 15.429-5.115l-13.79-8.819" class="M N O"/><path stroke="#6767e7" fill="#ababec" d="M389.18 179.959c0-8.011 5.289-14.5 11.82-14.5s11.82 6.489 11.82 14.5-5.289 14.5-11.82 14.5-11.82-6.489-11.82-14.5zM345 177c0-8.287 5.37-15 12-15s12 6.713 12 15-5.37 15-12 15-12-6.713-12-15z" class="L"/><g class="M"><path d="M418.708 96.525c1.64-.82 67.213 44.262 72.131 45.901s-49.18 31.148-50.819 31.148m-100-81.148c0 .82-82.787 63.115-84.427 63.935s59.017 17.213 59.837 16.393" class="N O"/><path transform="rotate(114.232 381.52 139.738)" d="M438.897 184.954c-21.511 20.468-54.791 24.636-81.139 10.164s-39.193-43.974-31.317-71.93 34.506-47.399 64.927-47.399l47.53 109.165h0z" stroke="#000" fill="#4e753f"/></g></g><g stroke="#b6b6b6" fill="#dadada" class="K L"><path d="M362.97 153.082l31.148 1.639"/><path d="M378.544 144.066l-1.639 16.393m-3.279 2.459l5.738.82"/><path d="M374.446 146.525l3.279-.82"/></g><g class="K"><path d="M352.315 253.902L339.2 357.18m63.934-100.819l13.934 97.541" class="M N O"/><path d="M424.446 211.279L312.97 325.213" stroke-width="8" stroke="#5b5343" fill="none"/></g></svg>