<?xml version="1.0"?>
<svg version="1.0" xmlns="http://www.w3.org/2000/svg" width="1280.000000pt" height="1280.000000pt" viewBox="0 0 1280.000000 1280.000000" preserveAspectRatio="xMidYMid meet">
<g transform="translate(0.000000,1280.000000) scale(0.100000,-0.100000)" fill="#C35B68" stroke="none">
<path d="M6353 9805 c-99 -22 -190 -71 -263 -145 -98 -98 -146 -201 -159 -340 l-6 -64 -160 -18 c-597 -66 -1096 -213 -1410 -416 -96 -62 -223 -192 -260 -267 -27 -54 -30 -70 -30 -155 0 -84 3 -102 28 -153 36 -73 120 -164 218 -237 l76 -57 -86 -43 c-121 -59 -278 -151 -401 -233 -381 -254 -665 -539 -885 -886 l-59 -93 -35 7 c-127 23 -353 105 -516 188 -486 245 -1053 739 -1509 1314 l-89 113 -46 -42 c-113 -103 -381 -362 -380 -367 0 -3 25 -28 55 -54 219 -191 347 -393 834 -1312 405 -765 663 -1107 984 -1309 108 -68 203 -105 388 -153 79 -20 148 -41 154 -47 6 -6 26 -49 45 -96 75 -191 209 -417 355 -600 85 -107 302 -325 414 -416 153 -126 326 -246 482 -335 l78 -44 0 -277 0 -277 1153 -3 c634 -2 1669 -2 2300 0 l1147 3 0 277 1 277 77 44 c119 67 317 201 425 288 l98 79 177 -28 c349 -55 415 -61 677 -62 396 -1 656 45 965 169 609 245 1037 789 1179 1500 40 200 53 334 53 550 0 310 -41 574 -132 846 -133 398 -324 660 -581 798 -124 66 -186 83 -339 88 -356 14 -658 -96 -807 -292 -99 -131 -152 -274 -160 -436 l-6 -107 -76 -16 c-113 -24 -270 -35 -387 -29 -56 3 -107 9 -111 12 -5 3 -34 38 -65 76 -271 342 -627 626 -1085 867 l-123 65 53 33 c90 58 203 178 239 256 29 61 33 79 33 154 0 74 -4 93 -31 151 -148 312 -759 572 -1592 678 -90 12 -180 21 -201 21 l-38 0 -6 73 c-25 322 -335 551 -654 482z m5014 -2867 c92 -129 161 -329 199 -573 22 -148 22 -433 0 -577 -48 -311 -169 -570 -350 -751 -171 -173 -398 -280 -679 -321 -106 -16 -411 -22 -500 -10 l-45 6 45 91 c189 379 258 845 182 1226 -13 66 -8 71 76 71 253 2 561 117 713 268 137 135 219 324 224 512 1 47 7 88 13 92 5 4 28 8 51 8 36 0 44 -4 71 -42z"/>
</g>
</svg>
