<svg xmlns="http://www.w3.org/2000/svg" width="200" height="400" viewBox="0 0 52.92 105.83"><path d="M43.43 48.46c-.38 6.02-.93 11.88-5.76 15.02-3.06 2-5.94 5.3-9.78 4.62-3.32-.6-7.32-1.63-9.59-4.2-3.03-3.41-6.16-9.22-5.94-15.44.07-2.05-.3-4.97.7-6.54 4.57-7.19 13.03-13.9 14.61-13.32 2.04.75 5.9 3.25 8.72 4.95 3.35 2.02 7.54 6.82 7.04 14.9" style="stroke:#fff;stroke-width:.600001;stroke-linecap:round;stroke-linejoin:round;stroke-miterlimit:1"/><path d="M31.36 67.39c.24 10.87 1 21.9.72 32.6 2.75-.22 5.53-.52 8.14-.31.6-.16.85-1.25.44-3.91-4.7 0-5.41-2.24-5.45-4.85.4-7.96.2-16.14-1.02-24.68zm-7.24 0c-.24 10.87-1 21.9-.72 32.6-2.75-.22-5.52-.52-8.13-.31-.61-.16-.85-1.25-.45-3.91 4.7 0 5.41-2.24 5.45-4.85-.4-7.96-.19-16.14 1.03-24.68zm19.07-22.95-3.05 11.5c-2.28-.42-6.76-.45-11.97-.29l.15-5.58c2.72-.04 5.83.7 8.14-.15.47-4.78 3.32-7.57 5-10.96z" style="fill:#000;stroke:#fff;stroke-width:.600001;stroke-linecap:round;stroke-linejoin:round;stroke-miterlimit:1"/><path d="M13.08 44.4a37 37 0 0 0 3.05 11.5c3.6-.6 4.23-.43 12.09-.4l-.27-5.47c-5.94.73-8.25.58-8.14-.16-.77-4.11-2.62-6.72-4.45-10.51-1.43 1.48-2.32 2.96-2.28 5.03" style="fill:#000;stroke:#fff;stroke-width:.600001;stroke-linecap:round;stroke-linejoin:round;stroke-miterlimit:1"/><ellipse cx="27.7" cy="22.06" rx="9.32" ry="8.07" style="fill:#000;stroke:#fff;stroke-width:.586408;stroke-linecap:round;stroke-linejoin:round;stroke-miterlimit:1"/><path d="M14.87 16.59c8.05-.51 16.17-.78 24.64.15 1.34-1.5.71-3.02 0-4.53-2-.95-3.73-.8-5.32-.08-.84-2.47-1.08-5 .16-7.67-3.89.78-7.77.27-11.66-.4.16 3.26.28 6.45-.63 7.68-2.34-.53-4.65-1.47-7.2 0-1.11 1.61-.74 3.23 0 4.85" style="fill:#000;stroke:#fff;stroke-width:.600001;stroke-linecap:round;stroke-linejoin:round;stroke-miterlimit:1"/></svg>