<svg xmlns="http://www.w3.org/2000/svg" width="200mm" height="200mm" viewBox="0 0 200 200"><path d="m422.8 64.2-1.2.9-2.8-2.46 1.33-.82zm-6.34-3.86 2.56 2.17m-1.83-2.72 2.59 2.25m-1.81-.9.03-3.5c.02 1.01-1.76 1.92-3.94 1.92s-3.95-.82-3.97-1.83v3.4m7.9-3.49c0 1.06-1.75 1.92-3.93 1.92-2.17 0-3.93-.86-3.93-1.92s1.76-1.91 3.93-1.91c2.18 0 3.94.85 3.94 1.91m-.02 3.5c0 1.05-1.77 1.91-3.94 1.91s-3.93-.86-3.93-1.92" style="stroke-width:.47632096;stroke-dasharray:none;fill:#000;fill-opacity:1;stroke:#fff;stroke-linecap:round;stroke-linejoin:round;stroke-miterlimit:1;stroke-opacity:1" transform="matrix(14.69597 0 .24473 14.69597 -6035.06 -784.83)"/><ellipse cx="64.1" cy="81.72" rx="34.52" ry="10.08" style="fill:#fff;fill-opacity:1;stroke:none;stroke-width:.398573;stroke-linecap:round;stroke-linejoin:round;stroke-miterlimit:1"/></svg>