<svg xmlns="http://www.w3.org/2000/svg" width="1600.96" height="1000.96" viewBox="0 0 423.59 264.84"><path d="M-6.67-81.74v40.22L71.98 68V27.78Zm0 0L71.98 27.78h34.7L28.01-81.74zM71.98 27.78h34.7V68h-34.7zM106.68 68l30.47 42.44M-286.59-41.52H-6.67m34.7-40.22v-72.6" style="fill:#000;fill-opacity:1;stroke:#fff;stroke-width:1.00012502;stroke-linecap:round;stroke-linejoin:round;stroke-miterlimit:1;stroke-dasharray:none;stroke-opacity:1" transform="translate(286.6 154.34)"/><path d="M-56.54-101.07h27.65v40.93h-27.65z" style="fill:#000;stroke:#fff;stroke-width:.502118;stroke-linecap:round;stroke-linejoin:round;stroke-miterlimit:1" transform="translate(286.6 154.34)"/><path d="M-35.37-101.07v40.93" style="fill:#000;stroke:#fff;stroke-width:.482721;stroke-linecap:round;stroke-linejoin:round;stroke-miterlimit:1" transform="translate(286.6 154.34)"/><path d="M-56.54-86.87h27.52l-6.48-7.8h-21.04zm0 13.23h27.52l-6.48-7.8h-21.04zm.14 13.5h27.51l-6.48-7.8H-56.4z" style="fill:#000;stroke:#fff;stroke-width:.500063;stroke-linecap:round;stroke-linejoin:round;stroke-miterlimit:1" transform="translate(286.6 154.34)"/><g transform="translate(229.85 78.4)scale(.52131)"><path d="M4.4 13.48c.7 6.5.75 11.3 8.63 11.3 7.25 0 7.5-4.66 8.27-11.3" style="fill:#000;fill-opacity:1;stroke:#fff;stroke-width:1.3223;stroke-miterlimit:1"/><ellipse cx="12.85" cy="13.48" rx="8.45" ry="3.09" style="fill:#000;fill-opacity:1;stroke:#fff;stroke-width:1.3223;stroke-miterlimit:1"/><path d="M20.81 15.3c1.18.19 2.52.38 2.57 2.32-.16 3.23-2.63 2.77-3.17 2.5" style="fill:none;stroke:#fff;stroke-width:1.3223;stroke-miterlimit:1"/></g><g transform="translate(238.09 65.22)scale(.52131)"><path d="M4.4 13.48c.7 6.5.75 11.3 8.63 11.3 7.25 0 7.5-4.66 8.27-11.3" style="fill:#000;fill-opacity:1;stroke:#fff;stroke-width:1.3223;stroke-miterlimit:1"/><ellipse cx="12.85" cy="13.48" rx="8.45" ry="3.09" style="fill:#000;fill-opacity:1;stroke:#fff;stroke-width:1.3223;stroke-miterlimit:1"/><path d="M20.81 15.3c1.18.19 2.52.38 2.57 2.32-.16 3.23-2.63 2.77-3.17 2.5" style="fill:none;stroke:#fff;stroke-width:1.3223;stroke-miterlimit:1"/></g></svg>