<svg xmlns="http://www.w3.org/2000/svg" width="100" height="100" viewBox="0 0 26.46 26.46"><defs><path id="a" d="M27.81 20.28h43.91v45.17H27.81z"/></defs><path d="M6.73 3.65a1 1 0 0 0-.7.3 1 1 0 0 0-.3.7v13a1 1 0 0 0 .6.92 1 1 0 0 0 .4.08h4.12l2.38 4.13 2.38-4.13h4.12a1 1 0 0 0 .83-.44 1 1 0 0 0 .17-.56v-13a1 1 0 0 0-.3-.7 1 1 0 0 0-.7-.3z" style="stroke:#fff;stroke-width:.4;stroke-miterlimit:1"/><text xml:space="preserve" style="font-size:40px;line-height:36.68px;font-family:&quot;HarmonyOS Sans SC&quot;;-inkscape-font-specification:&quot;HarmonyOS Sans SC&quot;;text-align:center;letter-spacing:1px;word-spacing:0;white-space:pre;shape-inside:url(#a);fill:#000;stroke:#fff;stroke-width:1.51181;stroke-miterlimit:1" transform="translate(-3.35 -1.73)scale(.32918)"><tspan x="38.05" y="52.62"><tspan style="font-family:&quot;Cascadia Code&quot;;-inkscape-font-specification:&quot;Cascadia Code&quot;;fill:#fff">E</tspan></tspan></text></svg>