<svg xmlns="http://www.w3.org/2000/svg" width="98.76" height="88.57" viewBox="0 0 26.13 23.43"><path d="m140.21 157.68.23 13.82 6.14 6.03h8.17l2.53 3.02 8.28.06-.04-1.62-2.93-2.94-.1-14.02-6.69-4.35z" style="fill:#000;stroke:#fff;stroke-width:.600001;stroke-linecap:round;stroke-linejoin:round;stroke-miterlimit:1" transform="translate(-139.96 -157.43)"/><path d="M148.99 170.98h3.3l.02 1.47H149zm2.1-5.3h1.3l.02 1.33h-1.3zm-2.34 0h1.32l.02 1.3h-1.32zm3.06 3.36c0 .61-.46 1.1-1.05 1.1a1.1 1.1 0 0 1-1.08-1.1c0-.6.46-1.1 1.05-1.1.58 0 1.07.5 1.08 1.1m-3.69-4.22h4.93l.15 8.59h-4.94zm9.2 14.13-.04 1.6m-2.5-4.45-.03 1.43m10.77 1.46-8.2-.04-2.54-2.8 7.81-.1m-16.13-14.07.12 15.55m15.9-15.5-16.02-.05-6.25-4.3" style="display:inline;opacity:1;fill:none;fill-opacity:1;fill-rule:nonzero;stroke:#fff;stroke-width:.500063;stroke-linecap:round;stroke-linejoin:round;stroke-miterlimit:1;stroke-dasharray:none;stroke-opacity:1" transform="translate(-139.96 -157.43)"/></svg>