<svg xmlns="http://www.w3.org/2000/svg" width="104.86" height="88.57" viewBox="0 0 27.74 23.43"><g transform="translate(-139.96 -157.43)"><path d="m167.52 178.78-.97.73-2.28-1.98 1.05-.66zm-5.18-3.11 2.1 1.75m-1.52-2.2 2.12 1.82m-1.47-.73-.02-2.81c.03.8-1.4 1.54-3.15 1.54-1.76 0-3.18-.73-3.2-1.54l.02 2.81m6.33-2.81c.01.85-1.4 1.54-3.15 1.54-1.76 0-3.19-.69-3.2-1.54s1.4-1.55 3.15-1.55 3.18.7 3.2 1.55m.02 2.81c.01.86-1.4 1.55-3.15 1.55s-3.19-.7-3.2-1.55" style="fill:#000;fill-opacity:1;stroke:#fff;stroke-width:.384445;stroke-linecap:round;stroke-linejoin:round;stroke-miterlimit:1;stroke-dasharray:none;stroke-opacity:1"/><ellipse cx="160.37" cy="174.13" rx="2.7" ry="1.02" style="fill:#fff;fill-opacity:1;stroke:none;stroke-width:.419958;stroke-linecap:round;stroke-linejoin:round;stroke-miterlimit:1;stroke-dasharray:none"/></g></svg>