<svg xmlns="http://www.w3.org/2000/svg" width="200" height="200" viewBox="0 0 52.92 52.92"><path d="M106.94 67.08a4.35 4.35 0 0 1 5.98-.8c-1.3 1.55-3.49 2.69-5.98.8m9.86-1.2a4.35 4.35 0 0 1 6-.63c-1.98 2.42-4.36 1.83-6 .62m-4.87 7.94-3.76 1.5m3.68-2.95-4.27.35m3.98-2.01-3.7-.37m10.3 3.14 3.91.51m-3.67-2.48 4.37-.28M118.13 70l4.55-1.11m-8.16 4.07c-.27-.18-.43 0-.56-.75-.27-.57-.28-.68-.4-1.19l.79-.32 1.96-.03.1 1.12-.45.84-.69.33zm5.09-12.14 4.77-5.43.58 7.22zm-15.57 2.24-.65-6.19 4.55 4.41zm1.67 16.73c-3.51-1.28-7.29-8.22-4.22-13.7 4.55-8.12 22-6.75 25.73-1.43 2.66 3.78 4.88 13.61-1.23 13.96-6.76.39-20.3 1.01-20.28 1.17m20.6 11.55-1.9 11.36c2.54 2.48 1.38 3.42-.39 3.65-.56.18-1.22.04-1.86-.18-1.54-.52-2.04.89-2.45-3.01l-1.49-14.99m-5.39.57 2.05 14.79c.51 3.85-.24 2.6-1.47 3.45-.52.36-1.06.64-1.6.59-1.59.17-2.81-.48-1.15-3.43l-4.2-10.53m13.5 11.43q-2.4.3-4.82.39m-5.16-.01c-2.46-.12-4.44-.42-5.42-.89-2.7-3.04-3.3-3.64-3.3-8.65s1.62-13.02 4.68-16.18l20.24-1.12s13.5 18.38 2.34 24.3c-.8.43-1.82.8-2.97 1.12M102 101c-7.09.4-8.17 3.1-8.68-3.15-.04-.55.01-2.36.08-4.5.07-2.02 2.11-6.15.51-8.79-.65-1.07-1.05-1.28-1.5-1.73-.66-.65-1.2-.76-1.68-.61-.44.13-.71.46-.71.46s-.39.2-.6.61c-.2.38-.28 1.07.6 1.95.82.8.55.35 1 1.08.66 1.1-.91 4.08-1 6.93-.08 2.13-.15 4-.08 4.88.84 10.3 9 6.73 14.36 6.43" style="fill:#000;stroke:#fff;stroke-width:.711539;stroke-linecap:round;stroke-linejoin:round;stroke-miterlimit:1;stroke-dasharray:none" transform="translate(-84.67 -55.03)"/></svg>