<svg xmlns="http://www.w3.org/2000/svg" width="200mm" height="200mm" viewBox="0 0 200 200"><path d="m194.19 158.51-17.57 13.35L135 135.78l19.27-12.12zm-94.24-56.65 38.24 31.92m-27.6-40 38.55 33.1m-26.82-13.27-.4-51.33c.51 14.81-25.42 28.17-57.35 28.17S6.33 78.45 5.8 63.64l.88 49.97m115.23-51.33c.26 15.56-25.42 28.17-57.35 28.17S6.54 77.84 6.28 62.28C6.02 46.73 31.7 34.11 63.63 34.11s58.03 12.62 58.29 28.17m.39 51.33c.26 15.55-25.42 28.16-57.35 28.16s-58.02-12.6-58.28-28.16" style="fill:#000;fill-opacity:1;stroke:#fff;stroke-width:7;stroke-linecap:round;stroke-linejoin:round;stroke-miterlimit:1;stroke-dasharray:none;stroke-opacity:1"/><ellipse cx="64.1" cy="73.88" rx="49.24" ry="18.56" style="fill:#fff;fill-opacity:1;stroke:none;stroke-width:7.64664;stroke-linecap:round;stroke-linejoin:round;stroke-miterlimit:1;stroke-dasharray:none"/></svg>