<svg xmlns="http://www.w3.org/2000/svg" width="200mm" height="200mm" viewBox="0 0 200 200"><path d="m193.72 159.87-17.57 13.34-41.61-36.07 19.26-12.12zm-94.24-56.65 38.24 31.91m-27.6-40 38.56 33.11m-26.82-13.28-.41-51.32c.52 14.8-25.42 28.16-57.35 28.16S5.86 79.8 5.35 65l.87 49.96m115.23-51.32C121.7 79.19 96.03 91.8 64.1 91.8S6.07 79.2 5.82 63.64c-.26-15.56 25.41-28.17 57.34-28.17s58.03 12.61 58.29 28.17m.4 51.32c.25 15.56-25.42 28.17-57.36 28.17S6.47 130.52 6.21 114.96" style="fill:#000;fill-opacity:1;stroke:#fff;stroke-width:7.025;stroke-linecap:round;stroke-linejoin:round;stroke-miterlimit:1;stroke-dasharray:none;stroke-opacity:1"/></svg>