<svg xmlns="http://www.w3.org/2000/svg" style="isolation:isolate" viewBox="183 230 36 36" width="36" height="36"><g filter="url(#a)"><path d="M185 246c0-8.831 7.169-16 16-16s16 7.169 16 16-7.169 16-16 16-16-7.169-16-16z" fill="#FF2B8C"/><path d="M190 247.538c8.649.878 13.442.898 22 0q-7.989.924-22 0z" fill="#FFF" vector-effect="non-scaling-stroke" stroke-width="4" stroke="#731062" stroke-linejoin="round" stroke-linecap="round" stroke-miterlimit="3"/><clipPath id="b"><path d="M190 247.538c8.649.878 13.442.898 22 0q-7.989.924-22 0z" fill="#FFF" vector-effect="non-scaling-stroke" stroke-width="4" stroke="#731062" stroke-linejoin="round" stroke-linecap="round" stroke-miterlimit="3"/></clipPath><g clip-path="url(#b)"><path d="M197 248.961c0-2.208 1.792-4 4-4s4 1.792 4 4-1.792 4-4 4-4-1.792-4-4z" fill="#731062"/></g></g><defs><filter id="a" x="-200%" y="-200%" width="400%" height="400%"><feOffset xmlns="http://www.w3.org/2000/svg" in="SourceAlpha" result="offOut" dy="2"/><feGaussianBlur xmlns="http://www.w3.org/2000/svg" in="offOut" result="blurOut" stdDeviation="1"/><feComponentTransfer xmlns="http://www.w3.org/2000/svg" in="blurOut" result="opacOut"><feFuncA xmlns="http://www.w3.org/2000/svg" type="table" tableValues="0 0.5"/></feComponentTransfer><feBlend xmlns="http://www.w3.org/2000/svg" in="SourceGraphic" in2="opacOut"/></filter></defs></svg>