<svg xmlns="http://www.w3.org/2000/svg" style="isolation:isolate" viewBox="51 85 115 115" width="115" height="115"><path d="M51 142.5C51 110.765 76.765 85 108.5 85s57.5 25.765 57.5 57.5-25.765 57.5-57.5 57.5S51 174.235 51 142.5z" fill="#192A13"/><clipPath id="a"><path d="M51 142.5C51 110.765 76.765 85 108.5 85s57.5 25.765 57.5 57.5-25.765 57.5-57.5 57.5S51 174.235 51 142.5z" fill="#192A13"/></clipPath><g clip-path="url(#a)"><path d="M51 157.5c0-31.735 25.765-57.5 57.5-57.5s57.5 25.765 57.5 57.5-25.765 57.5-57.5 57.5S51 189.235 51 157.5z"/></g></svg>