<svg xmlns="http://www.w3.org/2000/svg" style="isolation:isolate" viewBox="22 333.736 123 157.264" width="123" height="157.264"><path d="M22 429.5c0-33.943 27.557-61.5 61.5-61.5s61.5 27.557 61.5 61.5S117.443 491 83.5 491 22 463.443 22 429.5z" fill="#191006"/><path d="M32.396 429.793c0-27.882 22.637-50.518 50.518-50.518 27.882 0 50.518 22.636 50.518 50.518 0 27.881-22.636 50.518-50.518 50.518-27.881 0-50.518-22.637-50.518-50.518z" fill="#4A320A"/><path fill="#4A320A" d="M32.396 384.254h101.036v44.88H32.396z"/><path d="M32.396 384.254c0-27.882 22.637-50.518 50.518-50.518 27.882 0 50.518 22.636 50.518 50.518 0 27.881-22.636 50.517-50.518 50.517-27.881 0-50.518-22.636-50.518-50.517z" fill="#724A1C"/><path d="M40.542 384.254c0-23.387 18.986-42.373 42.372-42.373s42.373 18.986 42.373 42.373c0 23.386-18.987 42.372-42.373 42.372s-42.372-18.986-42.372-42.372z" fill="#371E09"/><path d="M47.113 384.254c0-19.76 16.042-35.802 35.801-35.802 19.76 0 35.802 16.042 35.802 35.802 0 19.759-16.042 35.801-35.802 35.801-19.759 0-35.801-16.042-35.801-35.801z" fill="#4A320A"/><path d="M52.97 384.254c0-16.527 13.417-29.945 29.944-29.945s29.945 13.418 29.945 29.945c0 16.526-13.418 29.944-29.945 29.944S52.97 400.78 52.97 384.254z" fill="#553D0E"/><path d="M62.671 384.254c0-11.173 9.07-20.244 20.243-20.244 11.173 0 20.244 9.071 20.244 20.244 0 11.172-9.071 20.243-20.244 20.243s-20.243-9.071-20.243-20.243z" fill="#785C1B"/><path d="M68.528 384.254c0-7.941 6.446-14.387 14.386-14.387 7.94 0 14.387 6.446 14.387 14.387 0 7.94-6.447 14.386-14.387 14.386s-14.386-6.446-14.386-14.386z" fill="#76372D"/><path d="M74.385 384.254c0-4.708 3.822-8.53 8.529-8.53 4.708 0 8.53 3.822 8.53 8.53 0 4.707-3.822 8.529-8.53 8.529-4.707 0-8.529-3.822-8.529-8.529z" fill="#965213"/><path vector-effect="non-scaling-stroke" stroke-width="10" stroke="#191006" stroke-linecap="round" stroke-miterlimit="3" d="M65 462v-20M114 470.642v-7.284M114 450.642V449"/></svg>