<?xml version="1.0" encoding="UTF-8" standalone="no"?><!DOCTYPE svg PUBLIC "-//W3C//DTD SVG 1.1//EN" "http://www.w3.org/Graphics/SVG/1.1/DTD/svg11.dtd"><svg width="100" height="100" viewBox="0 0 233 388" version="1.1" xmlns="http://www.w3.org/2000/svg" xmlns:xlink="http://www.w3.org/1999/xlink" xml:space="preserve" xmlns:serif="http://www.serif.com/" style="fill-rule:evenodd;clip-rule:evenodd;stroke-linejoin:round;stroke-miterlimit:2;"><rect id="Artboard2" x="0.042" y="0.335" width="232.754" height="386.782" style="fill:none;"/><path d="M186.965,120c-46.062,-37.943 -92.712,-37.455 -139.93,0c-19.373,39.435 -25.2,84.175 -16.577,127.289c11.616,58.083 26.542,132.711 26.542,132.711l120,0c0,0 14.926,-74.628 26.542,-132.711c8.623,-43.114 2.796,-87.854 -16.577,-127.289Z" style="fill:#ffaf25;"/><g><path d="M37,280c-0,0 -0,0 -0.001,0c-23.545,11.773 -36.14,37.987 -30.618,63.726c2.692,12.547 5.332,24.853 6.944,32.365c0.224,1.048 1.1,1.83 2.166,1.936c1.066,0.106 2.078,-0.49 2.504,-1.473c9.487,-21.6 13.469,-33.705 29.005,-46.554l-10,-50Z" style="fill:#cb13fe;"/><path d="M196.965,280c-0,0 -0,0 0,0c23.546,11.773 36.141,37.987 30.618,63.726c-2.691,12.547 -5.332,24.853 -6.943,32.365c-0.225,1.048 -1.1,1.83 -2.166,1.936c-1.067,0.106 -2.079,-0.49 -2.505,-1.473c-9.486,-21.6 -13.468,-33.705 -29.004,-46.554l10,-50Z" style="fill:#cb13fe;"/><path d="M47.035,120c47.121,-19.619 93.754,-19.216 139.93,0l-0.653,-1.377c-16.896,-33.79 -37.267,-74.533 -51.537,-103.072c-3.366,-6.733 -10.248,-10.986 -17.775,-10.986c-7.527,-0 -14.409,4.253 -17.775,10.986c-14.27,28.539 -34.641,69.282 -51.537,103.072l-0.653,1.377Z" style="fill:#cb13fe;"/></g><ellipse cx="117" cy="203.455" rx="42.095" ry="40" style="fill:#6664ff;"/></svg>
