<?xml version="1.0" encoding="UTF-8" standalone="no"?>
<svg
   xmlns:dc="http://purl.org/dc/elements/1.1/"
   xmlns:cc="http://creativecommons.org/ns#"
   xmlns:rdf="http://www.w3.org/1999/02/22-rdf-syntax-ns#"
   xmlns:svg="http://www.w3.org/2000/svg"
   xmlns="http://www.w3.org/2000/svg"
   xmlns:sodipodi="http://sodipodi.sourceforge.net/DTD/sodipodi-0.dtd"
   xmlns:inkscape="http://www.inkscape.org/namespaces/inkscape"
   width="330.41974"
   height="354.57983"
   id="svg2"
   version="1.1"
   inkscape:version="0.48.4 r9939"
   sodipodi:docname="cat.svg">
  <defs
     id="defs4" />
  <sodipodi:namedview
     id="base"
     pagecolor="#ffffff"
     bordercolor="#666666"
     borderopacity="1.0"
     inkscape:pageopacity="0.0"
     inkscape:pageshadow="2"
     inkscape:zoom="0.99407742"
     inkscape:cx="377.63015"
     inkscape:cy="131.82263"
     inkscape:document-units="px"
     inkscape:current-layer="layer1"
     showgrid="false"
     inkscape:window-width="1280"
     inkscape:window-height="741"
     inkscape:window-x="0"
     inkscape:window-y="27"
     inkscape:window-maximized="1"
     height="300px"
     fit-margin-top="0"
     fit-margin-left="0"
     fit-margin-right="0"
     fit-margin-bottom="0" />
  <metadata
     id="metadata7">
    <rdf:RDF>
      <cc:Work
         rdf:about="">
        <dc:format>image/svg+xml</dc:format>
        <dc:type
           rdf:resource="http://purl.org/dc/dcmitype/StillImage" />
        <dc:title />
      </cc:Work>
    </rdf:RDF>
  </metadata>
  <g
     inkscape:label="Capa 1"
     inkscape:groupmode="layer"
     id="layer1"
     transform="translate(-13.850122,-695.25197)">
    <path
       style="fill:#792700;fill-opacity:1;stroke:#a5b6cd;stroke-width:6;stroke-linecap:butt;stroke-linejoin:miter;stroke-miterlimit:4;stroke-opacity:1;stroke-dasharray:none"
       d="M 61.607495,826.59571 C 22.567077,778.98661 38.379947,748.47879 44.811507,700.86969 c 77.373493,1.57643 90.745513,23.06304 131.846143,58.32141 47.17864,-38.38558 83.39675,-71.86525 143.58676,-57.60917 7.28359,80.80969 -4.84368,94.8332 -14.43374,137.07455 z"
       id="path3789"
       inkscape:connector-curvature="0"
       sodipodi:nodetypes="cccccc" />
    <path
       sodipodi:type="arc"
       style="fill:#808000;fill-opacity:1;fill-rule:nonzero;stroke:#a5a214;stroke-width:12.69999980999999956;stroke-linecap:round;stroke-linejoin:round;stroke-miterlimit:4;stroke-opacity:1;stroke-dasharray:none"
       id="path2985"
       sodipodi:cx="415.71429"
       sodipodi:cy="430.93362"
       sodipodi:rx="150"
       sodipodi:ry="121.42857"
       d="m 565.71429,430.93362 c 0,67.06315 -67.15728,121.42858 -150,121.42858 -82.84271,0 -150,-54.36543 -150,-121.42858 0,-67.06315 67.15729,-121.42857 150,-121.42857 82.84272,0 150,54.36542 150,121.42857 z"
       transform="translate(-227.79265,476.17555)" />
    <path
       sodipodi:type="arc"
       style="fill:#ffd5d5;fill-opacity:1;fill-rule:nonzero;stroke:#a5b600;stroke-width:12.69999980999999956;stroke-linecap:round;stroke-linejoin:round;stroke-miterlimit:4;stroke-opacity:1;stroke-dasharray:none"
       id="path2987"
       sodipodi:cx="301.42856"
       sodipodi:cy="258.07648"
       sodipodi:rx="55.714287"
       sodipodi:ry="51.42857"
       d="m 357.14285,258.07648 c 0,28.40321 -24.94414,51.42857 -55.71429,51.42857 -30.77015,0 -55.71429,-23.02536 -55.71429,-51.42857 0,-28.40322 24.94414,-51.42857 55.71429,-51.42857 30.77015,0 55.71429,23.02535 55.71429,51.42857 z"
       transform="translate(-182.07837,536.17555)" />
    <path
       sodipodi:type="arc"
       style="fill:#ffd5d5;fill-opacity:1;fill-rule:nonzero;stroke:#a5b600;stroke-width:12.69999980999999956;stroke-linecap:round;stroke-linejoin:round;stroke-miterlimit:4;stroke-opacity:1;stroke-dasharray:none"
       id="path2989"
       sodipodi:cx="418.57144"
       sodipodi:cy="259.50504"
       sodipodi:rx="64.285713"
       sodipodi:ry="52.857143"
       d="m 482.85715,259.50504 c 0,29.19219 -28.78169,52.85714 -64.28571,52.85714 -35.50402,0 -64.28571,-23.66495 -64.28571,-52.85714 0,-29.1922 28.78169,-52.85715 64.28571,-52.85715 35.50402,0 64.28571,23.66495 64.28571,52.85715 z"
       transform="translate(-182.07837,536.17555)" />
    <path
       sodipodi:type="arc"
       style="fill:#241c1c;fill-opacity:1;fill-rule:nonzero;stroke:#000000;stroke-width:12.69999981;stroke-linecap:round;stroke-linejoin:round;stroke-miterlimit:4;stroke-opacity:1;stroke-dasharray:none"
       id="path2991"
       sodipodi:cx="310.58856"
       sodipodi:cy="273.95361"
       sodipodi:rx="18.08"
       sodipodi:ry="10.654285"
       d="m 328.66856,273.95361 c 0,5.8842 -8.09469,10.65429 -18.08,10.65429 -9.98531,0 -18.08,-4.77009 -18.08,-10.65429 0,-5.8842 8.09469,-10.65428 18.08,-10.65428 9.98531,0 18.08,4.77008 18.08,10.65428 z"
       transform="translate(-182.07837,536.17555)" />
    <path
       sodipodi:type="arc"
       style="fill:#241c1c;fill-opacity:1;fill-rule:nonzero;stroke:#000000;stroke-width:12.69999981;stroke-linecap:round;stroke-linejoin:round;stroke-miterlimit:4;stroke-opacity:1;stroke-dasharray:none"
       id="path2993"
       sodipodi:cx="384.20001"
       sodipodi:cy="263.29932"
       sodipodi:rx="12.914286"
       sodipodi:ry="10.977143"
       d="m 397.1143,263.29932 c 0,6.06251 -5.78192,10.97714 -12.91429,10.97714 -7.13236,0 -12.91428,-4.91463 -12.91428,-10.97714 0,-6.06251 5.78192,-10.97715 12.91428,-10.97715 7.13237,0 12.91429,4.91464 12.91429,10.97715 z"
       transform="translate(-182.07837,536.17555)" />
    <path
       sodipodi:type="arc"
       style="fill:#ff00ff;fill-opacity:1;fill-rule:nonzero;stroke:#000014;stroke-width:6;stroke-linecap:round;stroke-linejoin:round;stroke-miterlimit:4;stroke-opacity:1;stroke-dasharray:none"
       id="path2995"
       sodipodi:cx="377.74286"
       sodipodi:cy="377.59076"
       sodipodi:rx="69.091431"
       sodipodi:ry="63.279999"
       d="m 446.83429,377.59076 c 0,34.94858 -30.93329,63.28 -69.09143,63.28 -38.15814,0 -69.09143,-28.33142 -69.09143,-63.28 0,-34.94858 30.93329,-63.28 69.09143,-63.28 38.15814,0 69.09143,28.33142 69.09143,63.28 z"
       transform="translate(-204.67837,515.51269)" />
    <path
       style="fill:#ff0000;stroke:#000000;stroke-width:1px;stroke-linecap:butt;stroke-linejoin:miter;stroke-opacity:1"
       d="m 148.52734,838.86345 c 28.14274,8.46146 20.69281,25.82108 23.24572,40.68 5.57382,-15.28787 -2.44294,-34.1999 26.47428,-43.26286 -17.11929,-8.96623 -34.27749,-18.63298 -49.72,2.58286 z"
       id="path3003"
       inkscape:connector-curvature="0"
       sodipodi:nodetypes="cccc" />
    <path
       sodipodi:type="arc"
       style="fill:#ff0000;fill-opacity:1;fill-rule:nonzero;stroke:#1b2900;stroke-width:12.69999980999999956;stroke-linecap:round;stroke-linejoin:round;stroke-miterlimit:4;stroke-opacity:1;stroke-dasharray:none"
       id="path3005"
       sodipodi:cx="376.12857"
       sodipodi:cy="351.11646"
       sodipodi:rx="22.277143"
       sodipodi:ry="8.3942862"
       d="m 398.40571,351.11646 c 0,4.63603 -9.97381,8.39428 -22.27714,8.39428 -12.30333,0 -22.27714,-3.75825 -22.27714,-8.39428 0,-4.63604 9.97381,-8.39429 22.27714,-8.39429 12.30333,0 22.27714,3.75825 22.27714,8.39429 z"
       transform="translate(-182.07837,536.17555)" />
    <path
       style="fill:none;stroke:#a5b6cd;stroke-width:3;stroke-linecap:round;stroke-linejoin:miter;stroke-miterlimit:4;stroke-opacity:1;stroke-dasharray:none"
       d="M 15.510197,829.82345 167.25306,856.29773 15.510197,871.79488"
       id="path3007"
       inkscape:connector-curvature="0" />
    <path
       style="fill:none;stroke:#a5b6cd;stroke-width:3;stroke-linecap:round;stroke-linejoin:miter;stroke-miterlimit:4;stroke-opacity:1;stroke-dasharray:none"
       d="M 165.31592,856.29773 16.801627,907.95488"
       id="path3009"
       inkscape:connector-curvature="0" />
    <path
       style="fill:none;stroke:#a5b6cd;stroke-width:3;stroke-linecap:round;stroke-linejoin:miter;stroke-miterlimit:4;stroke-opacity:1;stroke-dasharray:none"
       d="m 297.68734,884.06345 -118.81142,-27.76572 117.52,3.22857"
       id="path3011"
       inkscape:connector-curvature="0" />
    <path
       style="fill:none;stroke:#a5b6cd;stroke-width:3;stroke-linecap:round;stroke-linejoin:miter;stroke-miterlimit:4;stroke-opacity:1;stroke-dasharray:none"
       d="M 179.52163,856.29773 287.35592,826.59488"
       id="path3013"
       inkscape:connector-curvature="0" />
    <path
       sodipodi:type="arc"
       style="fill:#d35f5f;fill-opacity:1;fill-rule:nonzero;stroke:#f1f100;stroke-width:3;stroke-linecap:round;stroke-linejoin:round;stroke-miterlimit:4;stroke-opacity:1;stroke-dasharray:none"
       id="path3783"
       sodipodi:cx="289.71585"
       sodipodi:cy="489.02579"
       sodipodi:rx="47.280022"
       sodipodi:ry="23.137032"
       d="m 336.99587,489.02579 c 0,12.77823 -21.16798,23.13703 -47.28002,23.13703 -26.11203,0 -47.28002,-10.3588 -47.28002,-23.13703 0,-12.77823 21.16799,-23.13703 47.28002,-23.13703 26.11204,0 47.28002,10.3588 47.28002,23.13703 z"
       transform="translate(-182.07837,536.17555)" />
    <path
       sodipodi:type="arc"
       style="fill:#d35f5f;fill-opacity:1;fill-rule:nonzero;stroke:#f1f100;stroke-width:3;stroke-linecap:round;stroke-linejoin:round;stroke-miterlimit:4;stroke-opacity:1;stroke-dasharray:none"
       id="path3785"
       sodipodi:cx="461.73465"
       sodipodi:cy="481.98407"
       sodipodi:rx="53.315765"
       sodipodi:ry="23.137032"
       d="m 515.05042,481.98407 c 0,12.77823 -23.87029,23.13703 -53.31577,23.13703 -29.44548,0 -53.31577,-10.3588 -53.31577,-23.13703 0,-12.77823 23.87029,-23.13703 53.31577,-23.13703 29.44548,0 53.31577,10.3588 53.31577,23.13703 z"
       transform="translate(-182.07837,536.17555)" />
  </g>
</svg>
