<?xml version="1.0" encoding="UTF-8"?><svg viewBox="0 0 36 36" xmlns="http://www.w3.org/2000/svg"><path d="M22 0l-4 8.0-5-5.0v7.0L3 8.0l8 8.0-11 6.0h12L6 34.1l12-8.0 11 10.0-3-14.0h10l-8-6.0 8-9.0-12 3.0L22 0z" fill="#BB1A34"/><path d="M22.9 12.9l1.8-.4L30 11.1l-3.3 3.8-1.3 1.4 1.5 1.1 2.9 2.2h-5.9l.4 2.2 1.5 7.2-5.8-5.3-1.0-.9-1.1.7-5.2 3.5 2.4-4.8 1.3-2.6H9.5l3.7-2.0 2.1-1.1-1.7-1.7-3.0-3.0 3.2.6 2.1.4V8.6l1.4 1.4 1.7 1.7 1.1-2.2 1.2-2.5" fill="#FCAB40"/><path d="M21.5 14.3l.7-.1 2.1-.5-1.3 1.5-.5.6.6.4 1.2.9h-2.4l.1.9.6 2.9-2.4-2.2-.4-.3-.4.3-2.1 1.4.9-1.9.5-1.0H16l1.5-.8.8-.4-.7-.7-1.2-1.2 1.3.2.9.1v-1.7l.5.6.7.7.4-.9.5-1.0" fill="#F5F8FA"/></svg>