<svg xmlns="http://www.w3.org/2000/svg" viewBox="0 0 36 36"><path fill="#5C913B" d="M35.6 16.2c-2.5-3.7-7.9 1.7-17.6 2.8-3.6.4-6.8 3.4-11.0 3.1-1.7-.1-4.1-5.0-5.9-4.2-.9.4-1.3 1.7-.3 2.7L11.1 33.4s.5.6 2.3.1c.4.1 7.1-2.5 11.0-7.9.9-1.2 2.0-2.3 3.1-3.2 3.7-2.7 7.7-3.7 7.7-3.7.5-.4.6-.8.6-1.2.0-.6-.4-1.1-.4-1.1z"/><path fill="#A7D28B" d="M11.4 10.2c-3.7 5.2-10.4 7.7-10.4 7.7-1.2 1.0-.1 2.2-.1 2.2l10.4 12.3s.5.6 2.2.1c0 0 6.6-2.4 10.4-7.7 3.8-5.4 10.9-7.1 10.9-7.1 1.2-1.0.1-2.2.1-2.2L24.6 3.3s-.5-.6-2.2-.1c0 0-7.0 1.7-10.9 7.1z"/><circle fill="#77B255" cx="22" cy="14" r="5.5"/><path fill="#5C913B" d="M12.8 31.9c-.8 0-1.2-.3-1.2-.3L2.2 20.5c-.0-.0-.4-.5-.4-1.2.0-.4.2-.7.6-1.1l.0-.0c.0-.0 6.1-2.5 9.5-7.0l.2.1-.2-.1c3.6-4.7 9.8-6.8 9.9-6.8 1.7-.4 2.3.1 2.3.2l9.2 11.0c.0.0.4.5.4 1.2-.0.4-.2.7-.6 1.1l-.0.0c-.0.0-6.1 1.5-9.6 6.1-3.4 4.6-9.6 7.6-9.6 7.6-.4.1-.8.1-1.1.1zm-.8-.7c.0 0 .4.4 1.8.0.0-.0 6.0-2.9 9.4-7.5 3.4-4.5 9.2-6.1 9.8-6.3.2-.2.3-.4.4-.7.0-.4-.3-.8-.3-.8L23.9 4.7c-.0 0-.4-.4-1.8-.0-.0.0-6.1 2.0-9.6 6.6-3.3 4.4-9.2 6.9-9.7 7.2-.2.2-.4.4-.4.7-.0.4.3.8.3.8l9.4 10.9z"/><path fill="#FFAC33" d="M21.2 22.1l-.0 5.9.4.5c.9-.8 1.9-1.8 2.7-2.9.8-1.1 1.8-2.1 2.8-2.9l-.4-.5-5.5.0z"/><path fill="#FFE8B6" d="M26.7 22.1L14.2 7.3c-1.0.8-1.9 1.8-2.8 2.9-.8 1.1-1.7 2.1-2.7 2.9l1.4 1.7-.0.0 11.0 13.1c.9-.8 1.9-1.8 2.7-3.0.8-1.1 1.8-2.1 2.8-2.9l-.0-.0h.0z"/><path fill="#5C913B" d="M14.4 22.5c-1.5-1.8-4.8 1.1-5.7.0-.4-.5-.1-1.2.4-1.7 1.0-.8 1.7-.3 2.1-.7.3-.2.3-.6.1-.8-.4-.5-1.5-.2-2.4.2l-.4-.5c-.2-.3-.7-.3-1.0-.0-.3.2-.3.7-.0 1.0l.4.5c-.6.8-.9 2.0-.1 3.0 1.4 1.7 4.8-1.1 5.8.0.3.4.2 1.2-.5 1.9-1.1.9-2.1.5-2.6.9-.2.1-.2.5-.0.8.3.4 1.6.3 2.8-.3.0.0.0.0.0.0l.4.5c.2.3.7.3 1.0.0.3-.2.3-.7.0-1.0l-.4-.5c-.0-.0-.0-.0-.0-.0.7-.9 1.0-2.2.1-3.3z"/><path fill="#E1E8ED" d="M32.4 32.5c.0-.0.0-.0.0-.0.0-.0.1-.1.1-.2.0-.0.0-.1.1-.1.0-.0.0-.1.0-.1 1.4-2.1.4-5.8-2.3-8.7-2.8-2.8-6.5-3.7-8.7-2.3-.0.0-.1.0-.1.0-.0.0-.1.0-.1.1-.0.0-.1.1-.2.1-.0.0-.0.0-.0.0-.0.0-.0.0-.0.0l.0.0c-1 1.0-1.0 2.7-.0 3.7 1.0 1.0 2.6.9 3.7-.0l.0.0c-.0.0-.0.0-.0.0-1.0 1.0-1.0 2.7-.0 3.7 1.0 1.0 2.7 1 3.7-.0.0-.0.0-.0.0-.0l.0.0c-1 1.0-1.0 2.7-.0 3.7 1.0 1.0 2.6.9 3.7-.0l.0.0c.0-.0.0-.0.0-.0z"/><path fill="#CCD6DD" d="M21.2 25.2c.9.9 2.3.9 3.3.2.4-.7.5-1.4.5-1.6-2.2 1.6-4.1.0-4.6-.9-.1.8.0 1.7.6 2.3zm7.2 3.8c.2-.4.5-.8.6-1.0-1.4 1.2-4.0.3-4.9-1.6-.3.9-.1 2.0.5 2.7 1.0 1.0 2.6.9 3.6.0zm3.8 3.5l.0-.0c.0-.0.0-.0.0-.0.0-.0.1-.1.1-.2.0-.0.0-.1.1-.1.0-.0.0-.1.0-.1.0-.1.1-.2.1-.3-2.5 1.1-4.4-.7-4.9-1.7-.2.9-.1 1.9.6 2.6 1.0 1.0 2.6.9 3.7-.0l.0.0z"/><path fill="#E1E8ED" d="M13.9 12.4l.0-.0c.0-.0.1-.1.1-.2.0-.0.0-.1.1-.1.0-.0.0-.1.0-.1 1.4-2.1.4-5.8-2.3-8.7C9.2.4 5.5-.5 3.3.9c-.0.0-.1.0-.1.0-.0.0-.1.0-.1.1-.0.0-.1.1-.2.1-.0.0-.0.0-.0.0-.0.0-.0.0-.0.0l.0.0c-1 1.0-1.0 2.7-.0 3.7 1.0 1.0 2.6.9 3.7-.0l.0.0c-.0.0-.0.0-.0.0-1.0 1.0-1.0 2.7-.0 3.7 1.0 1.0 2.7 1.0 3.7-.0.0-.0.0-.0.0-.0l.0.0c-1 1.0-1.0 2.7-.0 3.7 1.0 1.0 2.6.9 3.7-.0l.0.0c.0-.0.0-.0.0-.0z"/><path fill="#CCD6DD" d="M2.7 5.1c.9.9 2.3.9 3.3.2.4-.7.5-1.4.5-1.6-2.2 1.6-4.1.0-4.6-.9-.1.8.0 1.7.6 2.3zm7.3 3.8c.2-.4.5-.8.6-1.0-1.4 1.2-4.0.3-4.9-1.6-.3.9-.1 2.0.5 2.7 1.0 1.0 2.6.9 3.7.0zm3.8 3.5c.0-.0.0-.0.0-.0l.0-.0c.0-.0.1-.1.1-.2.0-.0.0-.1.1-.1.0-.0.0-.1.0-.1.0-.1.1-.2.1-.3-2.5 1.1-4.4-.7-4.9-1.7-.2.9-.1 1.9.6 2.6 1.0 1.0 2.6.9 3.7-.0l.0.0z"/></svg>