<?xml version="1.0" encoding="UTF-8"?>
<svg enable-background="new 0 0 512.0 512.0" version="1.1" viewBox="0 0 512.0 512.0" xml:space="preserve" xmlns="http://www.w3.org/2000/svg">
<path d="m17.2 493.1c3.6-10.1 8.3-23.1 13.6-36.5 19.8-50.6 30.4-65.7 34.9-70.2 6.7-6.7 15.1-11.3 24.3-13.2l3.1-0.6 35.3-35.7 42.3 48.8-32.9 31.5-0.6 3.2c-1.8 9.1-6.4 17.5-13.2 24.3-4.5 4.5-19.6 15.0-70.2 34.9-13.4 5.2-26.4 10.0-36.5 13.6z" fill="#FFCE54"/>
<path d="m129.1 320.9-41.1 41.6c-10.7 2.2-21.1 7.6-29.6 16.1-21.8 21.8-58.2 131.6-58.2 131.6s109.7-36.3 131.6-58.2c8.5-8.5 13.9-18.9 16.1-29.7l37.8-36.2-56.4-65.2zm3.9 86.0-4.7 4.5-1.3 6.4c-1.4 7.0-5.0 13.6-10.3 18.9-1.7 1.7-13.2 11.5-66.5 32.5-5.0 1.9-10.0 3.9-14.9 5.7 1.8-4.8 3.7-9.8 5.7-14.8 20.9-53.3 30.7-64.8 32.5-66.5 5.3-5.3 11.8-8.9 18.9-10.3l6.3-1.3 4.5-4.5 24.9-25.2 28.1 32.5-23.1 22.2z" fill="#F6BB42"/><g fill="#DA4453"><path d="m199.9 423.4c5.9-2.7 11.9-5.7 17.8-8.8l121.5-86.7c4.9-4.6 9.8-9.3 14.7-14.2 2.7-2.8 5.5-5.6 8.2-8.4-0.4 55.3-25.8 115.9-74.0 164.1-16.0 16.0-33.4 29.5-51.6 40.4-0.1 0.0-0.8 0.5-0.8 0.5-4.0 2.1-9.1 1.5-12.5-1.8-1.1-1.1-1.9-2.4-2.4-3.8 0 0-0.3-1.1-0.4-1.5l-21.9-78.7c0.5-0.2 1.0-0.4 1.5-0.7z"/><path d="m207.5 150.2c-2.8 2.7-5.6 5.5-8.4 8.3-4.8 4.8-9.5 9.7-14.1 14.7-21.2 3-86.8 121.5-86.8 121.5-3.0 5.9-6.0 11.8-8.8 17.8-0.2 0.5-0.4 1.0-0.7 1.5l-78.7-21.9c-0.4-0.0-1.5-0.4-1.5-0.4-1.4-0.5-2.7-1.3-3.8-2.4-3.4-3.4-4-8.5-1.8-12.5 0 0 0.4-0.7 0.5-0.8 10.9-18.1 24.4-35.5 40.4-51.6 48.2-48.2 108.7-73.5 164.1-74.0z"/></g><path d="m197 151.0c-60.4 60.4-103.9 129.4-128.2 196.3-1.2 3.7-0.4 8.0 2.5 11.0l82.9 82.9c3 2.9 7.2 3.7 11.0 2.5 66.8-24.2 135.8-67.8 196.2-128.2 93.8-93.8 146.5-207.0 150.5-303.6 0.1-2.8-0.9-6.0-3.0-8.2-2.2-2.2-5.3-3.2-8.2-3.1-96.5 3.9-209.7 56.6-303.6 150.4z" fill="#E6E9ED"/><path d="m479.2 145.8-112.4-112.4c45.8-19.9 91.4-31.0 133.8-32.7 2.9-0.1 6.0 0.9 8.2 3.1 2.1 2.2 3.2 5.3 3.0 8.2-1.7 42.4-12.8 88.0-32.7 133.8z" fill="#DA4453"/>
<g style="transform:translate(290px, 90px) scale(5) rotate(45deg)"><path fill="#fff" stroke="#000" d="M34 16C34 6 26.8 0 18 0 9.1 0 2 6 2 16c0 5.5.0 10.3 6 12.6V33c0 1.6 1.3 3 3 3s3-1.3 3-3v-3.1c.3.0.6.0 1 .0V33c0 1.6 1.3 3 3 3s3-1.3 3-3v-3.0c.3-.0.6-.0 1-.0V33c0 1.6 1.3 3 3 3 1.6 0 3-1.3 3-3v-4.3c5.9-2.2 6-7.0 6-12.6z"/><circle fill="#000" cx="11" cy="14" r="5"/><circle fill="#000" cx="25" cy="14" r="5"/><path fill="#000" d="M19.9 23.0C19.6 22.4 18.9 22 18 22s-1.6.4-1.9 1.0c-.6.1-1.0.7-1.0 1.4 0 .8.6 1.5 1.5 1.5.6 0 1.2-.4 1.4-1.0.0.0.0.0.0.0s.0-.0.0-.0c.2.5.7 1.0 1.4 1.0.8 0 1.5-.6 1.5-1.5 0-.6-.4-1.2-1.0-1.4z"/></g></svg>