<svg xmlns="http://www.w3.org/2000/svg" viewBox="0 0 36 27"><ellipse transform="rotate(-78 17.4 15.6)" fill="#67757F" cx="17.4" cy="15.6" rx="7.5" ry="17"/><path fill="#67757F" d="M.4 10.9l.4 2.3 32.8 6.9 1.4-2.1z"/><ellipse transform="rotate(-78 18.0 13.1)" fill="#9AAAB4" cx="18.0" cy="13.1" rx="8" ry="18"/><ellipse transform="rotate(-78 18.4 11.2)" fill="#CCD6DD" cx="18.4" cy="11.2" rx="6" ry="15"/><ellipse transform="rotate(-78 18.8 9.2)" fill="#E1E8ED" cx="18.8" cy="9.2" rx="3" ry="9"/><path fill="#5DADEC" d="M10.0 7.4c.3-1.6 2.9-4.4 9.8-3.0s8.1 5.1 7.7 6.7c-.3 1.6-4.5 2.0-9.4 1.0s-8.5-3.1-8.1-4.8z"/><circle fill="#8CCAF7" cx="16.7" cy="19.0" r="1"/><circle fill="#8CCAF7" cx="24.7" cy="19.7" r="1"/><circle fill="#8CCAF7" cx="32.2" cy="18.2" r="1"/><ellipse transform="rotate(-50.8 34.1 14.0)" fill="#8CCAF7" cx="34.1" cy="14.0" rx=".5" ry="1"/><ellipse transform="rotate(-15.1 2.8 7.3)" fill="#8CCAF7" cx="2.8" cy="7.3" rx="1" ry=".5"/><circle fill="#8CCAF7" cx="2.9" cy="12.0" r="1"/><circle fill="#8CCAF7" cx="9.1" cy="16.4" r="1"/><ellipse transform="rotate(-78 19.5 5.8)" fill="#8CCAF7" cx="19.5" cy="5.8" rx="1.5" ry="5"/></svg>