<?xml version="1.0" encoding="utf-8"?>
<!-- Generator: Adobe Illustrator 16.0.1, SVG Export Plug-In . SVG Version: 6.00 Build 0)  -->
<!DOCTYPE svg PUBLIC "-//W3C//DTD SVG 1.1//EN" "http://www.w3.org/Graphics/SVG/1.1/DTD/svg11.dtd">
<svg version="1.1" id="Layer_1" xmlns="http://www.w3.org/2000/svg" xmlns:xlink="http://www.w3.org/1999/xlink" x="0px" y="0px"
	 width="400px" height="400px" viewBox="0 0 400 400" enable-background="new 0 0 400 400" xml:space="preserve">
<circle fill="none" stroke="#FFFFFF" stroke-width="5" stroke-miterlimit="10" cx="187.48" cy="132.742" r="121.895"/>
<ellipse fill="none" stroke="#FFFFFF" stroke-width="5" stroke-miterlimit="10" cx="188.943" cy="132.742" rx="47.405" ry="121.894"/>
<ellipse fill="none" stroke="#FFFFFF" stroke-width="5" stroke-miterlimit="10" cx="187.48" cy="133.635" rx="121.895" ry="41.309"/>
<circle fill="#4382A8" stroke="#FDFEFF" stroke-miterlimit="10" cx="150.78" cy="93.439" r="10.54"/>
<line fill="none" stroke="#FFFFFF" stroke-miterlimit="10" x1="150.779" y1="93.439" x2="93.161" y2="157.417"/>
<line fill="none" stroke="#FFFFFF" stroke-miterlimit="10" x1="93.161" y1="157.417" x2="181.876" y2="116.603"/>
<line fill="none" stroke="#FFFFFF" stroke-miterlimit="10" x1="93.161" y1="158.25" x2="194.226" y2="153.947"/>
<line fill="none" stroke="#FFFFFF" stroke-miterlimit="10" x1="93.161" y1="157.417" x2="195.203" y2="133.42"/>
<circle fill="#4382A8" stroke="#FFFFFF" stroke-miterlimit="10" cx="195.204" cy="133.42" r="10.54"/>
<polygon opacity="0.8" fill="#1CA038" enable-background="new    " points="115,200.458 71,178.792 71,114.377 115,136.043 "/>
<circle fill="#8D4091" stroke="#FFFFFF" stroke-miterlimit="10" cx="181.877" cy="117.872" r="10.54"/>
<circle fill="#A88435" stroke="#FFFFFF" stroke-miterlimit="10" cx="195.204" cy="153.411" r="10.54"/>
<polygon fill="#FFFFFF" points="130.318,101.958 144.005,113.801 126.895,119.744 "/>
<polygon fill="#FFFFFF" points="159.228,132.391 176.407,138.093 162.874,150.133 "/>
<path fill="none" stroke="#FFFFFF" stroke-width="5" stroke-miterlimit="10" d="M75.441,208.281c0,0,20.921,69.96,107.982,69.96
	c94.485,0,116.755-69.96,116.755-69.96"/>
<polygon fill="#FFFFFF" points="73.593,202.439 87.281,214.284 70.169,220.227 "/>
<polygon fill="#FFFFFF" points="303.128,198.947 306.896,216.65 289.667,211.064 "/>
<path fill="none" stroke="#FFFFFF" stroke-width="5" stroke-miterlimit="10" d="M124,386v-67.922c0,0,1.884-9.044,11-9.044
	s11,9.044,11,9.044V386"/>
<ellipse fill="none" stroke="#FFFFFF" stroke-width="5" stroke-miterlimit="10" cx="135.064" cy="319.738" rx="5.672" ry="7.496"/>
<line fill="none" stroke="#FFFFFF" stroke-width="5" stroke-miterlimit="10" x1="131" y1="345" x2="139" y2="345"/>
<line fill="none" stroke="#FFFFFF" stroke-width="5" stroke-miterlimit="10" x1="131" y1="349" x2="139" y2="349"/>
<line fill="none" stroke="#FFFFFF" stroke-width="5" stroke-miterlimit="10" x1="131" y1="355" x2="139" y2="355"/>
<line fill="none" stroke="#FFFFFF" stroke-width="5" stroke-miterlimit="10" x1="167.819" y1="359.547" x2="191.688" y2="327.234"/>
<polygon fill="none" stroke="#FFFFFF" stroke-width="5" stroke-miterlimit="10" points="215,312.546 215,375.754 231.191,360 
	250.741,360 "/>
<line fill="none" stroke="#FFFFFF" stroke-width="5" stroke-miterlimit="10" x1="134.5" y1="305" x2="134.5" y2="287"/>
<line fill="none" stroke="#FFFFFF" stroke-width="5" stroke-miterlimit="10" x1="150" y1="315.5" x2="168" y2="315.5"/>
<line fill="none" stroke="#FFFFFF" stroke-width="5" stroke-miterlimit="10" x1="102" y1="315.5" x2="120" y2="315.5"/>
<line fill="none" stroke="#FFFFFF" stroke-width="5" stroke-miterlimit="10" x1="144.765" y1="308.312" x2="157.371" y2="295.71"/>
<line fill="none" stroke="#FFFFFF" stroke-width="5" stroke-miterlimit="10" x1="123.337" y1="308.312" x2="110.73" y2="295.71"/>
<line fill="none" stroke="#FFFFFF" stroke-width="5" stroke-miterlimit="10" x1="216.5" y1="306" x2="216.5" y2="288"/>
<line fill="none" stroke="#FFFFFF" stroke-width="5" stroke-miterlimit="10" x1="228" y1="313.5" x2="246" y2="313.5"/>
<line fill="none" stroke="#FFFFFF" stroke-width="5" stroke-miterlimit="10" x1="186" y1="313.5" x2="203" y2="313.5"/>
<line fill="none" stroke="#FFFFFF" stroke-width="5" stroke-miterlimit="10" x1="222.559" y1="309.936" x2="235.165" y2="297.33"/>
<line fill="none" stroke="#FFFFFF" stroke-width="5" stroke-miterlimit="10" x1="207.611" y1="309.936" x2="195.007" y2="297.33"/>
<g>
	<path fill="#FFFFFF" d="M247.188,336.963h3.217v1.872h-3.217v3.288h-1.871v-3.288H242.1v-1.872h3.217v-3.24h1.873v3.24H247.188z"/>
	<path fill="#FFFFFF" d="M251.964,329.498h4.177c2.641,0,3.938,1.465,3.938,4.152v8.496c0,2.688-1.297,4.152-3.938,4.152h-4.177
		V329.498L251.964,329.498z M254.604,331.898v12h1.488c0.84,0,1.344-0.432,1.344-1.631v-8.737c0-1.199-0.504-1.632-1.344-1.632
		H254.604L254.604,331.898z"/>
	<path fill="#FFFFFF" d="M267.275,346.3c-0.144-0.432-0.239-0.696-0.239-2.063v-2.641c0-1.561-0.527-2.137-1.728-2.137h-0.912v6.841
		h-2.642v-16.802h3.984c2.735,0,3.911,1.271,3.911,3.863v1.32c0,1.729-0.551,2.856-1.728,3.408c1.319,0.553,1.752,1.824,1.752,3.576
		v2.593c0,0.816,0.023,1.416,0.288,2.04L267.275,346.3L267.275,346.3z M264.396,331.898v5.16h1.031c0.983,0,1.584-0.433,1.584-1.775
		v-1.656c0-1.2-0.408-1.729-1.345-1.729H264.396z"/>
	<path fill="#FFFFFF" d="M279.948,346.3h-2.664l-0.456-3.048h-3.24l-0.456,3.048h-2.425l2.688-16.802h3.864L279.948,346.3z
		 M273.924,340.973h2.544l-1.272-8.498L273.924,340.973z"/>
	<path fill="#FFFFFF" d="M285.107,336.939h3.697v5.328c0,2.688-1.346,4.225-3.938,4.225c-2.594,0-3.938-1.536-3.938-4.225v-8.738
		c0-2.688,1.344-4.223,3.938-4.223c2.592,0,3.938,1.535,3.938,4.223v1.634h-2.498v-1.802c0-1.199-0.527-1.654-1.367-1.654
		s-1.367,0.455-1.367,1.654v9.074c0,1.199,0.527,1.631,1.367,1.631s1.367-0.432,1.367-1.631v-3.098h-1.199V336.939z"/>
</g>
</svg>
