<?xml version="1.0" encoding="utf-8"?>
<!-- Generator: Adobe Illustrator 16.0.1, SVG Export Plug-In . SVG Version: 6.00 Build 0)  -->
<!DOCTYPE svg PUBLIC "-//W3C//DTD SVG 1.1//EN" "http://www.w3.org/Graphics/SVG/1.1/DTD/svg11.dtd">
<svg version="1.1" id="Layer_1" xmlns="http://www.w3.org/2000/svg" xmlns:xlink="http://www.w3.org/1999/xlink" x="0px" y="0px"
	 width="300px" height="300px" viewBox="0 0 300 300" enable-background="new 0 0 300 300" xml:space="preserve">
<g id="background">
	<rect width="300" height="300"/>
</g>
<g id="Layer_1_1_">
	<circle fill="#C4C4C4" cx="149.59" cy="131.996" r="126.268"/>
	<polygon points="40.333,229.667 59.189,218.716 75.36,211.021 94.693,209.107 119.815,204.088 140.686,201 154.643,201 
		169.732,201 177.65,206.217 181,214.214 181,221.479 183.371,228.443 196.236,259.672 166.706,270.667 102.338,266.754 49,261.725 
			"/>
</g>
<g>
	<path fill="#1E1E1E" d="M109.31,203.527l-26.152-13.711l-28.348,1.952l-5.443,13.297l-10.973,6.886c0,0,1.602,27.741,5.307,36.409
		c3.107,7.272,14.219,21.142,21.96,22.769c5.11,1.07,15.37-4.515,19.319-7.928c3.583-3.096,7.843-13.225,6.53-17.773
		c-0.389-1.349-3.793-2.921-5.095-2.385c-3.916,1.605-5.387,11.538-8.454,14.459c-2.051,1.953-7.314,4.293-10.063,3.62
		c-3.886-0.952-9.261-8.14-11.903-11.138c-7.043-7.996-4.888-26.603-4.888-26.603s34.196,3.829,42.435,0.896
		c9.408-3.344,32.071-23.253,32.071-23.253l23.303,5.579l20.973-8.924"/>
	<polygon fill="#1E1E1E" points="170.145,199.739 168.92,189.915 159.592,186.774 159.979,170.879 152.449,154.74 153.613,132.426 
		139.574,152.687 124.998,153.85 106.497,138.291 109.235,160.28 103.871,169.979 80.026,179.064 47.059,178.733 38.841,211.632 
		50.941,222.052 90.24,195.64 97.874,220.847 134.223,211.064 146,214.854 	"/>
	<polyline fill="none" stroke="#C4C4C4" stroke-miterlimit="10" points="134.223,211.064 135.39,203.366 146.109,202.03 
		151.09,197.656 	"/>
	<path fill="none" stroke="#C4C4C4" stroke-miterlimit="10" d="M99.515,220.51c0,0-5.926-13.593-14.441-14.635"/>
	<path fill="#94C570" d="M128.123,177.91c0,0-7.374-8.547-15.893-4.134C112.23,173.776,119.048,181.013,128.123,177.91z"/>
	<path fill="#94C570" d="M139.193,176.533c0,0,4.961-10.084,14.176-7.88C153.369,168.653,148.619,177.33,139.193,176.533z"/>
	<polygon fill="#CBA2A5" points="131.141,181.873 135.589,181.32 133.444,183.952 	"/>
	
		<line fill="none" stroke="#1D1D1B" stroke-width="2" stroke-miterlimit="10" x1="120.552" y1="171.951" x2="121.095" y2="176.312"/>
	
		<line fill="none" stroke="#1D1D1B" stroke-width="2" stroke-miterlimit="10" x1="147.375" y1="167.822" x2="147.918" y2="172.185"/>
</g>
</svg>
