<?xml version="1.0" encoding="utf-8"?>
<!-- Generator: Adobe Illustrator 16.0.1, SVG Export Plug-In . SVG Version: 6.00 Build 0)  -->
<!DOCTYPE svg PUBLIC "-//W3C//DTD SVG 1.1//EN" "http://www.w3.org/Graphics/SVG/1.1/DTD/svg11.dtd">
<svg version="1.1" xmlns="http://www.w3.org/2000/svg" xmlns:xlink="http://www.w3.org/1999/xlink" x="0px" y="0px" width="300px"
	 height="300px" viewBox="0 0 300 300" enable-background="new 0 0 300 300" xml:space="preserve">
<g id="background">
	<rect fill-rule="evenodd" clip-rule="evenodd" width="300" height="300"/>
</g>
<g id="Layer_1">
	<circle fill-rule="evenodd" clip-rule="evenodd" fill="#C4C4C4" cx="149.59" cy="131.996" r="126.268"/>
	<path fill-rule="evenodd" clip-rule="evenodd" d="M125.052,140.552c-8.278-11.604-4.525-24.992,3.756-31.506
		c5.927-4.663,12.608-6.462,19.975-4.546c2.146,0.558,3.468,0.119,4.977-1.297c2.869-2.695,5.446-5.636,8.074-9.387
		c0.93,5.31-0.205,9.646-2.158,14.407c3.688-1.554,5.517-4.578,8.871-6.929c-0.568,4.868-1.824,8.798-3.603,12.524
		c-0.868,1.822-0.715,3.195,0.146,4.936c12.822,25.929,8.269,60.9-18.083,80.553c-13.204,9.845-28.019,14.589-44.566,13.516
		c-0.477-0.03-0.951-0.131-2.363-0.335c11.628-4.824,19.988-12.034,25.414-22.797c-12.581,2.594-19.051,1.254-25.229-5.131
		c2.273-1.744,5.433-2.121,7.34-4.7c-10.141,1.268-18.195-1.877-24.025-10.288c-1.359-1.962-1.062-2.592,1.315-2.612
		c2.373-0.02,4.689-0.521,6.989-1.602c-13.308-4.759-19.686-12.927-18.856-24.399c16.518,6.952,33.184,7.646,49.994,1.415
		C123.956,142.055,125.448,142.357,125.052,140.552z"/>
	<polygon fill-rule="evenodd" clip-rule="evenodd" points="40.333,229.667 59.189,218.716 75.36,211.022 94.693,209.108 
		119.815,204.088 140.686,201 154.643,201 169.733,201 177.65,206.217 181,214.214 181,221.479 183.371,228.444 196.236,259.672 
		166.706,270.667 102.338,266.754 49,261.724 	"/>
</g>
</svg>
