<svg xmlns="http://www.w3.org/2000/svg" xmlns:xlink="http://www.w3.org/1999/xlink" width="1024" height="1024" viewBox="0 0 1024 1024"><defs><linearGradient id="i"><stop offset="0" stop-color="#540" stop-opacity="0"/><stop offset=".812" stop-color="#3273ce" stop-opacity=".161"/><stop offset="1" stop-color="#2a7fff"/></linearGradient><linearGradient id="g"><stop offset="0" stop-color="#ff6f00"/><stop offset=".301" stop-color="#ff6f00"/><stop offset="1" stop-color="#ff6f00" stop-opacity="0"/></linearGradient><linearGradient id="h"><stop offset="0" stop-color="#ff6f00"/><stop offset=".288" stop-color="#ff6f00"/><stop offset="1" stop-color="#ff6f00" stop-opacity="0"/></linearGradient><linearGradient id="f"><stop offset="0" stop-color="#ff6f00"/><stop offset=".433" stop-color="#ff6f00"/><stop offset="1" stop-color="#ff6f00" stop-opacity="0"/></linearGradient><linearGradient id="e"><stop offset="0" stop-color="#ffd42a"/><stop offset=".639" stop-color="#ffd42a" stop-opacity=".905"/><stop offset="1" stop-color="#ffd42a" stop-opacity="0"/></linearGradient><linearGradient id="d"><stop offset="0" stop-color="#fc0"/><stop offset="1" stop-color="#fc0" stop-opacity="0"/></linearGradient><linearGradient id="c"><stop offset="0" stop-color="#ffa000"/><stop offset="1" stop-color="#ffa000" stop-opacity="0"/></linearGradient><linearGradient id="b"><stop offset="0" stop-color="#4d4d4d"/><stop offset="1" stop-color="#4d4d4d" stop-opacity=".001"/></linearGradient><linearGradient id="a"><stop offset="0" stop-color="#f75"/><stop offset="1" stop-color="#ff8655" stop-opacity="0"/></linearGradient><filter id="o" x="-.061" width="1.123" y="-.169" height="1.337" color-interpolation-filters="sRGB"><feGaussianBlur stdDeviation="14.009"/></filter><filter id="q" x="-.052" width="1.104" y="-.338" height="1.676" color-interpolation-filters="sRGB"><feGaussianBlur stdDeviation="5.146"/></filter><radialGradient xlink:href="#a" id="r" cx="58.834" cy="31.684" fx="58.834" fy="31.684" r="31.029" gradientTransform="matrix(-.05526 -1.6244 2.30297 -.07835 1.375 -578.447)" gradientUnits="userSpaceOnUse"/><filter id="k" x="-.153" width="1.306" y="-.681" height="2.362" color-interpolation-filters="sRGB"><feGaussianBlur stdDeviation="3.163"/></filter><filter id="s" x="-.341" width="1.682" y="-.486" height="1.971" color-interpolation-filters="sRGB"><feGaussianBlur stdDeviation="6.931"/></filter><linearGradient xlink:href="#c" id="j" x1="200.206" y1="-674.667" x2="138.782" y2="-674.969" gradientUnits="userSpaceOnUse"/><radialGradient xlink:href="#d" id="l" cx="182.643" cy="-675.179" fx="182.643" fy="-675.179" r="15.56" gradientTransform="matrix(.74942 .00667 -.00103 .1637 45.596 -564.99)" gradientUnits="userSpaceOnUse"/><filter id="m" x="-.118" width="1.235" y="-.505" height="2.01" color-interpolation-filters="sRGB"><feGaussianBlur stdDeviation="1.285"/></filter><filter id="u" x="-.323" width="1.646" y="-.323" height="1.646" color-interpolation-filters="sRGB"><feGaussianBlur stdDeviation="4.85"/></filter><filter id="w" x="-.118" width="1.235" y="-.505" height="2.01" color-interpolation-filters="sRGB"><feGaussianBlur stdDeviation="1.285"/></filter><filter id="v" x="-.153" width="1.306" y="-.681" height="2.362" color-interpolation-filters="sRGB"><feGaussianBlur stdDeviation="3.163"/></filter><radialGradient xlink:href="#e" id="x" cx="427.458" cy="-611.66" fx="427.458" fy="-611.66" r="30.932" gradientTransform="matrix(1 0 0 .99336 0 -4.059)" gradientUnits="userSpaceOnUse"/><radialGradient xlink:href="#f" id="y" gradientUnits="userSpaceOnUse" gradientTransform="matrix(.57082 0 0 .54381 162.464 -279.72)" cx="472.708" cy="-594.785" fx="472.708" fy="-594.785" r="33.057"/><radialGradient xlink:href="#g" id="z" gradientUnits="userSpaceOnUse" gradientTransform="matrix(.57082 0 0 .54381 148.999 -286.921)" cx="472.708" cy="-594.785" fx="472.708" fy="-594.785" r="33.057"/><radialGradient xlink:href="#h" id="A" gradientUnits="userSpaceOnUse" gradientTransform="matrix(.57082 0 0 .54381 163.188 -297.612)" cx="472.708" cy="-594.785" fx="472.708" fy="-594.785" r="33.057"/><filter id="B" x="-.083" width="1.166" y="-.218" height="1.436" color-interpolation-filters="sRGB"><feGaussianBlur stdDeviation="12.034"/></filter><radialGradient xlink:href="#i" id="I" cx="74.128" cy="-649.02" fx="74.128" fy="-649.02" r="90.156" gradientTransform="matrix(.93725 0 0 .92157 27.279 101.029)" gradientUnits="userSpaceOnUse"/><filter id="J" x="-.362" width="1.724" y="-.358" height="1.716" color-interpolation-filters="sRGB"><feGaussianBlur stdDeviation="3.217"/></filter><filter id="K" x="-.035" width="1.07" y="-.799" height="2.597" color-interpolation-filters="sRGB"><feGaussianBlur stdDeviation="4.999"/></filter></defs><g transform="translate(-12.256 708.173)"><rect ry="2.836" rx="13.767" y="-680.088" x="151.704" height="11.144" width="49.681" style="isolation:auto;mix-blend-mode:normal" transform="matrix(.93995 0 0 1.1718 7.286 115.879)" color="#000" overflow="visible" fill="url(#j)" filter="url(#k)" enable-background="accumulate"/><rect style="isolation:auto;mix-blend-mode:normal" width="26.219" height="6.106" x="170.062" y="-677.348" rx="7.265" ry="1.554" color="#000" overflow="visible" fill="url(#l)" enable-background="accumulate" filter="url(#m)"/><g transform="translate(-12.38 650.38)"><text style="line-height:125%" x="160.631" y="-365.566" id="n" transform="rotate(-12.25)" font-weight="400" font-size="107.489" font-family="sans-serif" letter-spacing="0" word-spacing="0"><tspan x="160.631" y="-365.566" style="-inkscape-font-specification:'Arial Bold'" font-weight="700" font-family="Arial"><tspan fill="red">jp</tspan><tspan fill="#fff">presents</tspan></tspan></text><text style="line-height:125%;-inkscape-font-specification:Arial" x="284.269" y="-389.617" id="p" font-weight="400" font-size="40" font-family="Arial" letter-spacing="0" word-spacing="0" fill="#fff"><tspan x="284.269" y="-389.617" style="-inkscape-font-specification:'Arial Bold'" font-weight="700"><tspan fill="red">lost</tspan> in space</tspan></text><use xlink:href="#n" width="100%" height="100%" filter="url(#o)"/><use xlink:href="#p" width="100%" height="100%" filter="url(#q)"/></g><path d="M14.795-706.64l41.373 48.435-7.64-1.486-14.918-2.9.146 19.543-.146 17.298 14.582-2.835 7.976-1.55-41.373 48.434 46.271-10.21 44.587-24.264 25.09.034-.026-3.563 6.572-.073-.09-3.084-6.505.063-.028-3.663-11.458.038 19.698-17.747-17.39-23.828-21.975-2.603-38.475-25.833z" fill="#666" fill-rule="evenodd" stroke="#4d4d4d" stroke-width="1.89"/><path d="M118.506-663.736l10.625 12.75h-29.5l1-15.75z" fill="#8ca3a6" fill-rule="evenodd" stroke="#4d4d4d"/><path d="M26.783-649.1v10.572l6.818-2.363v-6zM26.72-664.826v10.571l6.818-2.363v-6zM26.783-633.912v10.572l6.818-2.363v-6z" fill="#333" fill-rule="evenodd" stroke="#4d4d4d" stroke-width="1.89"/><text style="line-height:125%" x="360.248" y="-485.501" transform="matrix(.86771 -.49233 .50778 .86435 0 0)" font-weight="400" font-size="9.625" font-family="sans-serif" letter-spacing="0" word-spacing="0" fill="#999"><tspan x="360.248" y="-485.501" style="-inkscape-font-specification:'Arial Bold'" font-weight="700" font-family="Arial">JP - L051</tspan></text><ellipse style="isolation:auto;mix-blend-mode:normal" cx="171.381" cy="-610.798" rx="24.375" ry="17.125" transform="matrix(.76752 0 0 .94587 41.61 -33.944)" color="#000" overflow="visible" fill="#2aaaff" filter="url(#s)" enable-background="accumulate"/><ellipse style="isolation:auto;mix-blend-mode:normal" id="t" cx="315.34" cy="-679.828" rx="46.139" ry="27.4" color="#000" overflow="visible" fill="#999" stroke="#333" stroke-width="1.89" stroke-dashoffset=".8" enable-background="accumulate"/><path d="M284.595-700.475c19.958 5.091 39.884 6.35 60.507-.522 2.378 1.38 5.24 2.908 8.352 5.522-28.803 8.233-53.403 6.174-76.911.508 2.428-2.376 5.645-4.4 8.052-5.508z" fill="#8787de" fill-rule="evenodd" stroke="#333" stroke-width="1.5"/><path style="isolation:auto;mix-blend-mode:normal" d="M292.89-698.65c4.644.897 9.495 1.736 14.968 2.122l-.65 6.265c-5.619-.224-10.942-.965-16.232-1.763zM321.697-696.44c6.516-.426 9.318-1.136 14.882-2.222l.681 6.849c-5.549 1.021-10.978 1.423-15.66 1.662z" color="#000" overflow="visible" fill="#87de87" stroke="#333" stroke-width="1.5" stroke-dashoffset=".8" enable-background="accumulate"/><use xlink:href="#t" transform="translate(0 64)" width="100%" height="100%"/><path d="M284.595-636.475c19.958 5.091 39.884 6.35 60.507-.522 2.378 1.38 5.24 2.908 8.352 5.522-28.803 8.233-53.403 6.174-76.911.508 2.428-2.376 5.645-4.4 8.052-5.508z" fill="#87de87" fill-rule="evenodd" stroke="#333" stroke-width="1.5"/><path d="M292.89-634.65c4.644.897 9.495 1.736 14.968 2.122l-.65 6.265c-5.619-.224-10.942-.965-16.232-1.763zM321.697-632.44c6.516-.426 9.318-1.136 14.882-2.222l.681 6.849c-5.549 1.021-10.978 1.423-15.66 1.662z" style="isolation:auto;mix-blend-mode:normal" color="#000" overflow="visible" fill="#8787de" stroke="#333" stroke-width="1.5" stroke-dashoffset=".8" enable-background="accumulate"/><path style="isolation:auto;mix-blend-mode:normal" d="M224.407-505.417l4.09-12.065-7.618-10.21 12.738.163 7.356-10.401 3.782 12.165 12.165 3.781-10.401 7.356.162 12.739-10.21-7.62z" transform="matrix(.49812 0 0 .51566 116.683 -405.88)" color="#000" overflow="visible" opacity=".666" fill="#fff" filter="url(#u)" enable-background="accumulate"/><rect ry="2.836" rx="13.767" y="-681.155" x="141.73" height="12.211" width="59.655" style="isolation:auto;mix-blend-mode:normal" transform="matrix(-.8548 0 0 1.1718 577.439 116.629)" color="#000" overflow="visible" fill="#ff2a2a" filter="url(#v)" enable-background="accumulate"/><path transform="matrix(-1.31977 0 0 .72985 1001.13 -182.782)" style="isolation:auto;mix-blend-mode:normal" d="M437.203-680.598l7.813 3.25c3.716 1.546 7.265.693 7.265 1.554v2.997c0 .861-3.549.008-7.265 1.554l-7.813 3.25c-7.826 3.256-15.016-1.43-15.016-3.208v-6.189c0-1.776 7.212-6.454 15.016-3.208z" color="#000" overflow="visible" fill="#ff2a2a" filter="url(#w)" enable-background="accumulate"/><ellipse style="isolation:auto;mix-blend-mode:normal" cx="427.458" cy="-611.66" rx="30.932" ry="30.727" color="#000" overflow="visible" opacity=".906" fill="url(#x)" enable-background="accumulate"/><ellipse ry="17.977" rx="18.87" cy="-603.172" cx="432.296" style="isolation:auto;mix-blend-mode:normal" color="#000" overflow="visible" fill="url(#y)" enable-background="accumulate"/><ellipse style="isolation:auto;mix-blend-mode:normal" cx="418.83" cy="-610.373" rx="18.87" ry="17.977" color="#000" overflow="visible" fill="url(#z)" enable-background="accumulate"/><ellipse ry="17.977" rx="18.87" cy="-621.064" cx="433.019" style="isolation:auto;mix-blend-mode:normal" color="#000" overflow="visible" fill="url(#A)" enable-background="accumulate"/><g stroke-width=".798" font-weight="400" font-size="40" font-family="Arial" letter-spacing="0" word-spacing="0" text-anchor="middle" fill="#fff"><text style="line-height:125%;-inkscape-font-specification:Arial;text-align:center" x="387.887" y="-129.346" filter="url(#B)" transform="matrix(1.22706 0 0 1.27968 -141.688 51.443)"><tspan x="393.434" y="-129.346" style="-inkscape-font-specification:'Arial Bold';text-align:center" font-weight="700">you are now really </tspan><tspan x="387.887" y="-79.346" style="-inkscape-font-specification:'Arial Bold';text-align:center" font-weight="700"><tspan style="text-align:center" fill="red">lost</tspan> in space</tspan><tspan x="387.887" y="-29.346" style="-inkscape-font-specification:'Arial Bold';text-align:center" font-weight="700" font-size="18.667">press any key to restart</tspan></text><text y="-129.346" x="387.887" style="line-height:125%;-inkscape-font-specification:Arial;text-align:center" transform="matrix(1.22706 0 0 1.27968 -141.688 51.443)"><tspan style="-inkscape-font-specification:'Arial Bold';text-align:center" y="-129.346" x="393.434" font-weight="700">you are now really </tspan><tspan style="-inkscape-font-specification:'Arial Bold';text-align:center" y="-79.346" x="387.887" font-weight="700"><tspan style="text-align:center" fill="red">lost</tspan> in space</tspan><tspan style="-inkscape-font-specification:'Arial Bold';text-align:center" y="-29.346" x="387.887" font-weight="700" font-size="18.667">press space to restart</tspan></text></g><rect style="isolation:auto;mix-blend-mode:normal" width="57.983" height="56.569" x="463.537" y="-703.864" rx="4" ry="20" color="#000" overflow="visible" fill="#666" stroke="#4d4d4d" stroke-width="1.89" enable-background="accumulate"/><path d="M492.263-698.03l-23.777 22.45 15.851-.177-7.925 20.33h31.702l-7.926-19.8 15.851.354z" fill="#999" fill-rule="evenodd" stroke="#4d4d4d" stroke-width="1.89"/><ellipse style="isolation:auto;mix-blend-mode:normal" id="C" cx="562.189" cy="-642.949" rx="13.789" ry="48.437" color="#000" overflow="visible" fill="#999" stroke="#333" stroke-width="1.89" stroke-dashoffset=".8" enable-background="accumulate"/><rect style="isolation:auto;mix-blend-mode:normal" width="30.406" height="12.374" x="532.49" y="-679.719" rx="4" ry="12.374" color="#000" overflow="visible" fill="#ff2828" stroke="#333" stroke-width="1.89" stroke-dashoffset=".8" enable-background="accumulate"/><path style="isolation:auto;mix-blend-mode:normal;font-variant-east_asian:normal" id="D" transform="matrix(.57185 .82036 -.56033 .82827 0 0)" color="#000" overflow="visible" fill="#999" stroke="#333" stroke-width="1.956" stroke-dashoffset=".828" enable-background="accumulate" d="M159.509-1000.75h67.582v67.947h-67.582z"/><path d="M652.131-586.173v-44.5" id="E" fill="#999" fill-rule="evenodd" stroke="#333" stroke-width="1.89" stroke-dashoffset=".8"/><path d="M652.131-652.173v-44.5" id="F" fill="#999" fill-rule="evenodd" stroke="#333" stroke-width="1.89" stroke-dashoffset=".8"/><path d="M662.256-642.673h28.5" id="G" fill="#999" fill-rule="evenodd" stroke="#333" stroke-width="1.89" stroke-dashoffset=".8"/><path d="M614.381-642.673h27.5" id="H" fill="#999" fill-rule="evenodd" stroke="#333" stroke-width="1.89" stroke-dashoffset=".8"/><ellipse style="isolation:auto;mix-blend-mode:normal;font-variant-east_asian:normal" cx="652.188" cy="-641.772" rx="9.723" ry="10.253" color="#000" overflow="visible" fill="#ff2828" stroke="#333" stroke-width="1.89" stroke-dashoffset=".8" enable-background="accumulate"/><use xlink:href="#C" transform="translate(0 128)" width="100%" height="100%"/><rect ry="12.374" rx="4" y="-551.719" x="532.49" height="12.374" width="30.406" style="isolation:auto;mix-blend-mode:normal" color="#000" overflow="visible" fill="#ff8080" stroke="#333" stroke-width="1.89" stroke-dashoffset=".8" enable-background="accumulate"/><use xlink:href="#D" transform="translate(0 128)" width="100%" height="100%"/><use xlink:href="#E" transform="translate(0 128)" width="100%" height="100%"/><use xlink:href="#F" transform="translate(0 128)" width="100%" height="100%"/><use xlink:href="#G" transform="translate(0 128)" width="100%" height="100%"/><use xlink:href="#H" transform="translate(0 128)" width="100%" height="100%"/><ellipse ry="10.253" rx="9.723" cy="-513.772" cx="652.188" style="isolation:auto;mix-blend-mode:normal" color="#000" overflow="visible" fill="#ff8080" stroke="#333" stroke-width="1.89" stroke-dashoffset=".8" enable-background="accumulate"/><ellipse style="isolation:auto;mix-blend-mode:normal" cx="96.755" cy="-497.088" rx="84.499" ry="83.085" color="#000" overflow="visible" fill="url(#I)" enable-background="accumulate"/><ellipse style="isolation:auto;mix-blend-mode:normal" cx="428.034" cy="-548.127" rx="10.664" ry="10.783" transform="matrix(1.32918 0 0 1.32754 -140.9 179.536)" color="#000" overflow="visible" fill="#fd0000" filter="url(#J)" enable-background="accumulate"/><text style="line-height:125%" x="174.891" y="-20.049" font-weight="400" font-size="16" font-family="sans-serif" letter-spacing="0" word-spacing="0" fill="#fff"><tspan x="174.891" y="-20.049" style="-inkscape-font-specification:'Arial Bold'" font-weight="700" font-family="Arial">tweet your best score @jppresents for praise</tspan></text><text y="-20.049" x="174.891" style="line-height:125%" font-weight="400" font-size="16" font-family="sans-serif" letter-spacing="0" word-spacing="0" fill="#fff" filter="url(#K)"><tspan style="-inkscape-font-specification:'Arial Bold'" y="-20.049" x="174.891" font-weight="700" font-family="Arial">tweet your best score @jppresents for praise</tspan></text></g></svg>