<!--<?xml version="1.0" encoding="UTF-8" standalone="no"?>--> <!-- Created with Inkscape (http://www.inkscape.org/) -->
<svg xmlns:dc="http://purl.org/dc/elements/1.1/" xmlns:cc="http://creativecommons.org/ns#" xmlns:rdf="http://www.w3.org/1999/02/22-rdf-syntax-ns#" xmlns:svg="http://www.w3.org/2000/svg" xmlns="http://www.w3.org/2000/svg" xmlns:sodipodi="http://sodipodi.sourceforge.net/DTD/sodipodi-0.dtd" xmlns:inkscape="http://www.inkscape.org/namespaces/inkscape" width="262.20471" height="184.25197" id="svg2" version="1.1" inkscape:version="0.48.4 r9939" sodipodi:docname="dibujo.svg"> <defs id="defs4" /> <sodipodi:namedview id="base" pagecolor="#ffffff" bordercolor="#666666" borderopacity="1.0" inkscape:pageopacity="0.0" inkscape:pageshadow="2" inkscape:zoom="2.3297367" inkscape:cx="81.347166" inkscape:cy="76.910552" inkscape:document-units="px" inkscape:current-layer="layer1" showgrid="false" inkscape:window-width="1280" inkscape:window-height="741" inkscape:window-x="0" inkscape:window-y="27" inkscape:window-maximized="1" /> <metadata id="metadata7"> <rdf:RDF> <cc:Work rdf:about=""> <dc:format>image/svg+xml</dc:format> <dc:type rdf:resource="http://purl.org/dc/dcmitype/StillImage" /> <dc:title></dc:title> </cc:Work> </rdf:RDF> </metadata> <g inkscape:groupmode="layer" id="layer2" inkscape:label="Capa" style="display:inline"> <path style="fill:#ffff00;fill-opacity:1;stroke:#000000;stroke-width:2.40000010000000019;stroke-linecap:round;stroke-linejoin:miter;stroke-miterlimit:4;stroke-opacity:1;stroke-dasharray:none" d="M 97.478691,129.95876 C 89.087032,143.53218 104.80091,158.2161 60.389822,164.65975 32.069317,172.57278 28.507543,153.51766 19.460836,140.43693 -5.7215274,86.807148 43.591498,43.571165 67.433775,27.576599 c 69.427065,-15.010227 58.133575,9.667815 95.670865,4.911976 31.88579,-25.0139399 15.71695,34.885295 29.47544,34.630966 3.67314,14.02582 9.52394,28.6182 -9.70983,36.684429 -17.69301,6.27859 -32.49513,19.42689 -54.99074,14.29297 -13.47941,-1.78234 -25.74866,-1.50341 -30.567306,11.4662" id="path3768" inkscape:connector-curvature="0" sodipodi:nodetypes="ccccccccc" /> </g> <g transform="translate(0,-868.1102)" id="g3793" inkscape:groupmode="layer" inkscape:label="Capa 1 copia" style="display:inline"> <path sodipodi:nodetypes="ccccc" inkscape:connector-curvature="0" id="path3795" d="m 47.34228,955.8054 c -9.957345,-10.20603 -16.343944,-3.9003 -22.269837,4.53582 -7.364071,19.0568 5.405921,29.64084 10.952881,43.26448 13.189244,12.7011 22.962935,7.3733 33.099919,3.9631 6.713937,-3.3894 9.6971,-8.87259 4.63051,-18.87363" style="fill:none;stroke:#000000;stroke-width:12.69999981;stroke-linecap:round;stroke-linejoin:miter;stroke-miterlimit:4;stroke-opacity:1;stroke-dasharray:none" /> <path sodipodi:nodetypes="cccccccsscc" inkscape:connector-curvature="0" id="path3797" d="m 61.393868,963.91581 c -3.027811,-6.91714 -7.398717,-13.79244 5.582269,-21.20842 7.727479,-9.89785 18.153913,2.58312 27.802014,8.61043 -9.703138,0.30771 -19.376445,0.6863 -23.677005,13.83229 -5.091529,6.97109 -9.687233,13.92256 5.076764,20.1079 10.25607,2.89773 19.954787,2.18937 27.97856,-9.35601 5.99375,-9.14639 -10.36686,-21.15782 -8.794616,-24.34624 0.151057,0.35897 -1.535403,0.16255 -0.172883,-0.41082 0.136941,-0.0576 0.23051,0.54776 0.172883,0.41082 -0.172883,-0.41082 -0.345762,-0.82164 -0.518645,-1.23246 4.054959,4.37623 6.610761,13.26865 14.354591,6.5322" style="fill:none;stroke:#000000;stroke-width:12.69999981;stroke-linecap:round;stroke-linejoin:miter;stroke-miterlimit:4;stroke-opacity:1;stroke-dasharray:none" /> <path sodipodi:nodetypes="ccc" inkscape:connector-curvature="0" id="path3799" d="m 78.138846,909.47919 c 11.891423,31.16481 30.051534,39.47005 45.326194,58.29741 7.36246,2.68327 16.93099,9.37421 6.33885,-20.55966" style="fill:none;stroke:#000000;stroke-width:12.69999981;stroke-linecap:round;stroke-linejoin:miter;stroke-miterlimit:4;stroke-opacity:1;stroke-dasharray:none" /> <path sodipodi:nodetypes="cc" inkscape:connector-curvature="0" id="path3801" d="m 79.127873,937.11015 c 0.0068,-20.67686 11.704752,-22.63271 17.778601,-33.59443" style="fill:none;stroke:#000000;stroke-width:12.69999981;stroke-linecap:round;stroke-linejoin:miter;stroke-miterlimit:4;stroke-opacity:1;stroke-dasharray:none" /> <path sodipodi:nodetypes="cccc" inkscape:connector-curvature="0" id="path3803" d="m 134.6403,929.59933 c -8.78535,2.45092 -10.44527,-0.6659 -10.36867,16.68664 0.81496,14.71009 7.08688,14.05081 16.36051,18.61855 7.903,-1.72582 15.97472,-3.34272 7.4189,-15.69487" style="fill:none;stroke:#000000;stroke-width:12.69999981;stroke-linecap:round;stroke-linejoin:miter;stroke-miterlimit:4;stroke-opacity:1;stroke-dasharray:none" /> <path sodipodi:nodetypes="cc" inkscape:connector-curvature="0" id="path3805" d="m 143.06346,915.5242 c -1.66401,16.81931 6.73655,29.40326 12.35822,43.15662" style="fill:none;stroke:#000000;stroke-width:12.69999981;stroke-linecap:round;stroke-linejoin:miter;stroke-miterlimit:4;stroke-opacity:1;stroke-dasharray:none" /> <path sodipodi:nodetypes="ccc" inkscape:connector-curvature="0" id="path3807" d="m 144.50608,945.38215 c 3.91779,-6.58186 -4.60406,-5.3321 13.20611,-12.1615 19.36887,-6.80961 8.18452,9.46593 11.98039,18.004" style="fill:none;stroke:#000000;stroke-width:12.69999981;stroke-linecap:round;stroke-linejoin:miter;stroke-miterlimit:4;stroke-opacity:1;stroke-dasharray:none" /> </g> <g inkscape:label="Capa 1" inkscape:groupmode="layer" id="layer1" transform="translate(0,-868.1102)" style="display:inline"> <path style="fill:none;stroke:#16ff1b;stroke-width:8.30000019;stroke-linecap:round;stroke-linejoin:miter;stroke-miterlimit:4;stroke-opacity:1;stroke-dasharray:none" d="m 48.321498,952.59918 c -9.957344,-10.20603 -16.343944,-3.9003 -22.269836,4.53582 -7.364072,19.0568 5.405921,29.64084 10.952881,43.2644 13.189244,12.7011 22.962934,7.3733 33.099919,3.9632 6.713937,-3.3894 9.6971,-8.87261 4.63051,-18.87365" id="path2985" inkscape:connector-curvature="0" sodipodi:nodetypes="ccccc" /> <path style="fill:none;stroke:#16ff1b;stroke-width:8.30000019;stroke-linecap:round;stroke-linejoin:miter;stroke-miterlimit:4;stroke-opacity:1;stroke-dasharray:none" d="m 62.373087,960.70959 c -3.027811,-6.91714 -7.398717,-13.79244 5.582269,-21.20842 7.727479,-9.89785 18.153913,2.58312 27.802014,8.61043 -9.703138,0.30771 -19.376446,0.68631 -23.677005,13.83229 -5.091529,6.97109 -9.687234,13.92256 5.076764,20.1079 10.256069,2.89773 19.954787,2.18937 27.978561,-9.35601 5.99376,-9.14639 -10.366861,-21.15782 -8.794617,-24.34623 0.151057,0.35896 -1.535403,0.16254 -0.172883,-0.41083 0.136941,-0.0576 0.230509,0.54776 0.172883,0.41083 -0.172883,-0.41083 -0.345762,-0.82165 -0.518645,-1.23247 4.054959,4.37623 6.610762,13.26865 14.354602,6.5322" id="path2987" inkscape:connector-curvature="0" sodipodi:nodetypes="cccccccsscc" /> <path style="fill:none;stroke:#16ff1b;stroke-width:8.30000019;stroke-linecap:round;stroke-linejoin:miter;stroke-miterlimit:4;stroke-opacity:1;stroke-dasharray:none" d="m 78.138846,909.47919 c 11.891423,31.16481 30.051534,39.47005 45.326194,58.29741 7.36246,2.68327 16.93099,9.37421 6.33885,-20.55966" id="path2989" inkscape:connector-curvature="0" sodipodi:nodetypes="ccc" /> <path style="fill:none;stroke:#16ff1b;stroke-width:8.30000019;stroke-linecap:round;stroke-linejoin:miter;stroke-miterlimit:4;stroke-opacity:1;stroke-dasharray:none" d="m 80.107092,933.90394 c 0.0068,-20.67687 11.704757,-22.63272 17.778605,-33.59444" id="path2991" inkscape:connector-curvature="0" sodipodi:nodetypes="cc" /> <path style="fill:none;stroke:#16ff1b;stroke-width:8.30000019;stroke-linecap:round;stroke-linejoin:miter;stroke-miterlimit:4;stroke-opacity:1;stroke-dasharray:none" d="m 135.61952,926.39311 c -8.78534,2.45092 -10.44526,-0.6659 -10.36866,16.68663 0.81496,14.7101 7.08687,14.05081 16.3605,18.61856 7.903,-1.72582 15.97472,-3.34272 7.4189,-15.69487" id="path2993" inkscape:connector-curvature="0" sodipodi:nodetypes="cccc" /> <path style="fill:none;stroke:#16ff1b;stroke-width:8.30000019;stroke-linecap:round;stroke-linejoin:miter;stroke-miterlimit:4;stroke-opacity:1;stroke-dasharray:none" d="m 144.04268,912.31798 c -1.66401,16.81931 6.73655,29.40326 12.35822,43.15661" id="path2995" inkscape:connector-curvature="0" sodipodi:nodetypes="cc" /> <path style="fill:none;stroke:#16ff1b;stroke-width:8.30000019;stroke-linecap:round;stroke-linejoin:miter;stroke-miterlimit:4;stroke-opacity:1;stroke-dasharray:none" d="m 145.4853,942.17593 c 3.9178,-6.58186 -4.60406,-5.3321 13.20611,-12.1615 19.36887,-6.80961 8.18453,9.46593 11.98039,18.004" id="path2997" inkscape:connector-curvature="0" sodipodi:nodetypes="ccc" /> </g> </svg>
