<svg id="svg29832" xmlns:rdf="http://www.w3.org/1999/02/22-rdf-syntax-ns#" xmlns="http://www.w3.org/2000/svg" height="8.467mm" viewBox="0 0 32.000391 30.001675" width="9.031mm" version="1.1" xmlns:cc="http://creativecommons.org/ns#" xmlns:dc="http://purl.org/dc/elements/1.1/">
<rect id="rect10372" height="18" width="24" y="12" x="4" fill="#5c472e"/>
<g fill="#735839">
<rect id="rect10374" height="3" width="22" y="26" x="5"/>
<rect id="rect10376" height="3" width="22" y="22" x="5"/>
<rect id="rect10378" height="3" width="22" y="18" x="5"/>
<rect id="rect10380" height="3" width="22" y="14" x="5"/>
</g>
<g fill="#a17c50">
<rect id="rect10382" height="1" width="22" y="15" x="5"/>
<rect id="rect10384" height="1" width="22" y="19" x="5"/>
<rect id="rect10386" height="1" width="22" y="23" x="5"/>
<rect id="rect10388" height="1" width="22" y="27" x="5"/>
</g>
<g>
<rect id="rect10390" height="13" width="9.143" y="16" x="16.86" fill="#5c472e"/>
<rect id="rect10392" height="12" width="6.858" y="17" x="18" fill="#735839"/>
<rect id="rect10394" height="2" width="2" y="23" x="19" fill="#b3c200"/>
<rect id="rect10398" height="7" width="1" y="18" x="6" fill="#5c472e"/>
<rect id="rect10396" height="7" width="7" y="18" x="7" fill="#93b3d5"/>
<rect id="rect10400" height="7" width="1" y="18" x="14" fill="#5c472e"/>
<rect id="rect10404" height="9.001" width="24" y="4" x="4" fill="#735839"/>
<rect id="rect10406" height="1" width="16" y="11" x="8" fill="#a17c50"/>
</g>
<g id="g10414" transform="translate(-6.001 -1002)">
<rect id="rect10408" height="9" width="4" y="1004" x="14" fill="#5c472e"/>
<rect id="rect10410" height="2" width="2" y="1010" x="15" fill="#a17c50"/>
<rect id="rect10412" height="4" width="2" y="1005" x="15" fill="#866743"/>
</g>
<g id="g10419" transform="translate(-10 -1e3)">
<rect id="rect10421" height="9" width="4" y="1004" x="14" fill="#5c472e"/>
<rect id="rect10423" height="2" width="2" y="1010" x="15" fill="#a17c50"/>
<rect id="rect10425" height="4" width="2" y="1005" x="15" fill="#866743"/>
</g>
<g id="g10427" transform="translate(-14 -998.4)">
<rect id="rect10429" height="9" width="4" y="1004" x="14" fill="#5c472e"/>
<rect id="rect10431" height="2" width="2" y="1010" x="15" fill="#a17c50"/>
<rect id="rect10433" height="4" width="2" y="1005" x="15" fill="#866743"/>
</g>
<g id="g10435" transform="translate(10 -1e3)">
<rect id="rect10437" height="9" width="4" y="1004" x="14" fill="#5c472e"/>
<rect id="rect10439" height="2" width="2" y="1010" x="15" fill="#a17c50"/>
<rect id="rect10441" height="4" width="2" y="1005" x="15" fill="#866743"/>
</g>
<g id="g10443" transform="translate(14 -998.4)">
<rect id="rect10445" height="9" width="4" y="1004" x="14" fill="#5c472e"/>
<rect id="rect10447" height="2" width="2" y="1010" x="15" fill="#a17c50"/>
<rect id="rect10449" height="4" width="2" y="1005" x="15" fill="#866743"/>
</g>
<g id="g10451" transform="translate(6 -1002)">
<rect id="rect10453" height="9" width="4" y="1004" x="14" fill="#5c472e"/>
<rect id="rect10455" height="2" width="2" y="1010" x="15" fill="#a17c50"/>
<rect id="rect10457" height="4" width="2" y="1005" x="15" fill="#866743"/>
</g>
<g id="g10459" transform="translate(1.999 -1004)">
<rect id="rect10461" height="9" width="4" y="1004" x="14" fill="#5c472e"/>
<rect id="rect10463" height="2" width="2" y="1010" x="15" fill="#a17c50"/>
<rect id="rect10465" height="4" width="2" y="1005" x="15" fill="#866743"/>
</g>
<g id="g10467" transform="translate(-2.001 -1004)">
<rect id="rect10469" height="9" width="4" y="1004" x="14" fill="#5c472e"/>
<rect id="rect10471" height="2" width="2" y="1010" x="15" fill="#a17c50"/>
<rect id="rect10473" height="4" width="2" y="1005" x="15" fill="#866743"/>
</g>
</svg>
