<svg id="svg17004" xmlns:rdf="http://www.w3.org/1999/02/22-rdf-syntax-ns#" xmlns="http://www.w3.org/2000/svg" height="6.209mm" width="3.951mm" version="1.1" xmlns:cc="http://creativecommons.org/ns#" xmlns:dc="http://purl.org/dc/elements/1.1/" viewBox="0 0 14.00001 22.000031">
<g id="layer1" transform="translate(-323.8 -468.7)">
<path id="rect6770-5" d="m333.8 483.7h1v1h-1zm-1 0h1v1h-1zm-1 0h1v1h-1zm5-2h1v1h-1zh1v1h-1zm0-1h1v1h-1zm0-1h1v1h-1zm0 2h1v1h-1zh1v1h-1zm0-1h1v1h-1zm0-1h1v1h-1zm-4 3h1v1h-1zm2 0h1v1h-1zm1 0h1v1h-1zm-2 0h1v1h-1zm-3 0h1v1h-1zm1 0h1v1h-1zm1 0h1v1h-1zm2 0h1v1h-1zm1 0h1v1h-1zm-2 0h1v1h-1zm-3 0h1v1h-1zm1 0h1v1h-1zm1-1h1v1h-1zh1v1h-1zm0-1h1v1h-1zm0-1h1v1h-1zm2 1h1v1h-1zm1 0h1v1h-1zm0 1h1v1h-1zm-1 0h1v1h-1zm-1 0h1v1h-1zh1v1h-1zm0-1h1v1h-1zm0-1h1v1h-1zm2 0h1v1h-1zm-1 0h1v1h-1zm-4 1h1v1h-1zm1 0h1v1h-1zm0 1h1v1h-1zm-1 0h1v1h-1zm1-2h1v1h-1zm-1 0h1v1h-1zm2 2h1v1h-1zh1v1h-1zm0-1h1v1h-1zm0-1h1v1h-1zm2 1h1v1h-1zm1 0h1v1h-1zm0 1h1v1h-1zm-1 0h1v1h-1zm-1 0h1v1h-1zh1v1h-1zm0-1h1v1h-1zm0-1h1v1h-1zm2 0h1v1h-1zm-1 0h1v1h-1zm-4 1h1v1h-1zm1 0h1v1h-1zm0 1h1v1h-1zm-1 0h1v1h-1zm1-2h1v1h-1zm-1 0h1v1h-1zm-5-9h1v1h-1zm-2 8h1v1h-1zm0-1h1v1h-1zm0-1h1v1h-1zm0-1h1v1h-1zm0 3h1v1h-1zm0-1h1v1h-1zm0-1h1v1h-1zm0-1h1v1h-1zm0-1h1v1h-1zh1v1h-1zm5 4h1v1h-1zm0-1h1v1h-1zm0-1h1v1h-1zm0-1h1v1h-1zm1 0h1v1h-1zm0 1h1v1h-1zm0 1h1v1h-1zm0 1h1v1h-1zm-5 0h1v1h-1zm0-1h1v1h-1zm0-1h1v1h-1zm0-1h1v1h-1zm1 0h1v1h-1zm1 0h1v1h-1zm1 0h1v1h-1zm0 1h1v1h-1zm-1 0h1v1h-1zm-1 0h1v1h-1zm0 1h1v1h-1zm0 1h1v1h-1zm1 0h1v1h-1zm0-1h1v1h-1zm1 0h1v1h-1zm0 1h1v1h-1zm1 0h1v1h-1zm0-1h1v1h-1zm0-1h1v1h-1zm0-1h1v1h-1zm1 0h1v1h-1zm0 1h1v1h-1zm0 1h1v1h-1zm0 1h1v1h-1zm-5 0h1v1h-1zm0-1h1v1h-1zm0-1h1v1h-1zm0-1h1v1h-1zm1 0h1v1h-1zm1 0h1v1h-1zm1 0h1v1h-1zm0 1h1v1h-1zm-1 0h1v1h-1zm-1 0h1v1h-1zm0 1h1v1h-1zm0 1h1v1h-1zm1 0h1v1h-1zm0-1h1v1h-1zm1 0h1v1h-1zm0 1h1v1h-1zm1-4h1v1h-1zh1v1h-1zm0-1h1v1h-1zm0-1h1v1h-1zm0-1h1v1h-1zm0-1h1v1h-1zm0-1h1v1h-1zm0-1h1v1h-1zm1 0h1v1h-1zm0 1h1v1h-1zm0 1h1v1h-1zm0 4h1v1h-1zh1v1h-1zm0-1h1v1h-1zm0-1h1v1h-1zm0-1h1v1h-1zm-5 3h1v1h-1zh1v1h-1zm3-6h1v1h-1zm0 1h1v1h-1zm-2 1h1v1h-1zm1 3h1v1h-1zm1 0h1v1h-1zm0 1h1v1h-1zm-1 0h1v1h-1zm-1 0h1v1h-1zh1v1h-1zm0-1h1v1h-1zm0-1h1v1h-1zm0-1h1v1h-1zm1 0h1v1h-1zm0-1h1v1h-1zm1 0h1v1h-1zm0 1h1v1h-1zm0 1h1v1h-1zm-1 0h1v1h-1zm10 6h1v1h-1zm0-1h1v1h-1zm0-1h1v1h-1zm0-1h1v1h-1zm0 3h1v1h-1zm0-1h1v1h-1zm0-1h1v1h-1zm0-1h1v1h-1zm0-1h1v1h-1zh1v1h-1zm0-1h1v1h-1zm0-1h1v1h-1zm0-1h1v1h-1zm-4 7h1v1h-1zm0-1h1v1h-1zm0-1h1v1h-1zm1-1h1v1h-1zm1 0h1v1h-1zm1 0h1v1h-1zm0 1h1v1h-1zm-1 0h1v1h-1zm-1 0h1v1h-1zm0 1h1v1h-1zm1 1h1v1h-1zm0-1h1v1h-1zm1 0h1v1h-1zm0 1h1v1h-1zm-5-3h1v1h-1zm1 1h1v1h-1zm-1 0h1v1h-1zm0 2h1v1h-1zm0-1h1v1h-1zm1 0h1v1h-1zm0 1h1v1h-1zm1 0h1v1h-1zm0-1h1v1h-1zm0-1h1v1h-1zm0-1h1v1h-1zm1 0h1v1h-1zm1 0h1v1h-1zm1 0h1v1h-1zm0 1h1v1h-1zm-1 0h1v1h-1zm-1 0h1v1h-1zm0 1h1v1h-1zm0 1h1v1h-1zm1 0h1v1h-1zm0-1h1v1h-1zm1 0h1v1h-1zm0 1h1v1h-1zm-5-3h1v1h-1zm1 1h1v1h-1zm-1 0h1v1h-1zm0 2h1v1h-1zm0-1h1v1h-1zm1 0h1v1h-1zm0 1h1v1h-1zm1-4h1v1h-1zh1v1h-1zm0-1h1v1h-1zm0-1h1v1h-1zm0-1h1v1h-1zm0-1h1v1h-1zm0-1h1v1h-1zm1 0h1v1h-1zm0 1h1v1h-1zm1 3h1v1h-1zm1 0h1v1h-1zm0 1h1v1h-1zm-1 0h1v1h-1zm-1 0h1v1h-1zh1v1h-1zm0-1h1v1h-1zm0-1h1v1h-1zm0-1h1v1h-1zm1 0h1v1h-1zm1 0h1v1h-1zm0 1h1v1h-1zm-1 0h1v1h-1zm-4-4h1v1h-1zm1 1h1v1h-1zm-1 0h1v1h-1zm0 4h1v1h-1zm1 0h1v1h-1zm0 1h1v1h-1zm-1 0h1v1h-1zm0-3h1v1h-1zm0-1h1v1h-1zm1 0h1v1h-1zm0 1h1v1h-1zm0 1h1v1h-1zm-1 0h1v1h-1zm-4 11h1v1h-1zm2 0h1v1h-1zm-1 0h1v1h-1zm-4-3h1v1h-1zm0-1h1v1h-1zm0 1h1v1h-1zm0-1h1v1h-1zm5 3h1v1h-1zm1 0h1v1h-1zm-3 0h1v1h-1zm1 0h1v1h-1zm-2 0h1v1h-1zm3 0h1v1h-1zm1 0h1v1h-1zm-3 0h1v1h-1zm1 0h1v1h-1zm-2 0h1v1h-1zm3-1h1v1h-1zh1v1h-1zm0-1h1v1h-1zm0-1h1v1h-1zm1 2h1v1h-1zh1v1h-1zm0-1h1v1h-1zm0-1h1v1h-1zm-5 1h1v1h-1zm2 0h1v1h-1zm1 0h1v1h-1zm0 1h1v1h-1zm-1 0h1v1h-1zm-1 0h1v1h-1zh1v1h-1zm0-1h1v1h-1zm0-1h1v1h-1zm2 0h1v1h-1zm-1 0h1v1h-1zm2 2h1v1h-1zh1v1h-1zm0-1h1v1h-1zm0-1h1v1h-1zm1 2h1v1h-1zh1v1h-1zm0-1h1v1h-1zm0-1h1v1h-1zm-5 1h1v1h-1zm2 0h1v1h-1zm1 0h1v1h-1zm0 1h1v1h-1zm-1 0h1v1h-1zm-1 0h1v1h-1zh1v1h-1zm0-1h1v1h-1zm0-1h1v1h-1zm2 0h1v1h-1zm-1 0h1v1h-1z" fill="#008000"/>
<path id="rect6776-5" d="m329.8 489.7v1h-1v-1zm-1-1v1h-1v-1zm1-1v1h-1v-1zm1 1v1h-1v-1zm0-1v1h-1v-1zm-1 1v1h-1v-1zm1-2v1h-1v-1zm0-1v1h-1v-1zm0-1v1h-1v-1zm0-1v1h-1v-1zm0-3v1h-1v-1zm-3 0v1h-1v-1zm0 1v1h-1v-1zm1 1v1h-1v-1zm2-1v1h-1v-1zm0 1v1h-1v-1zm-2-1v1h-1v-1zm1 1v1h-1v-1zm3 7v1h-1v-1zm-1 0v1h-1v-1zm0-10v1h-1v-1zm1 6v1h-1v-1zm1 3v1h-1v-1zm-1 0v1h-1v-1zm-1 0v1h-1v-1zm0-1v1h-1v-1zm0-1v1h-1v-1zm0-1v1h-1v-1zm0-1v1h-1v-1zm0-1v1h-1v-1zm0-3v1h-1v-1zm3 1v1h-1v-1zm0-1v1h-1v-1zm-1 2v1h-1v-1zm0-1v1h-1v-1zm-1 1v1h-1v-1zm-1 0v1h-1v-1zm0-1v1h-1v-1z" fill="#541"/>
</g>
</svg>
