<svg xmlns="http://www.w3.org/2000/svg" viewBox="0 0 64 64"><g transform="translate(-136.66 -975.59)"><path d="M140.94 1029.07l2.03 10.44 7.9-9.8m8.1.17l8.7 9.7.8-10.6m-25.3-6.97l.2-7.1-6.68 12.4s4.8-13.48 6.62-20.74c3.14-12.5 13.56-13.92 17.6-8.77 4.06 5.12 3.66 11.2 6.7 10.6 3.03-.64 7.7-5.78 7.7-5.78s-6.1 7.26-7.1 11.8c-1 4.54-.2 7.87-.2 7.87" fill="#dc0bc1" fill-rule="evenodd" stroke="#000" stroke-width=".06"/><path d="M139.93 1029.97l1.42-9.68 28.34.3 1 10.53-12.8.16-3.65-4.24-3.04 4.23z" fill="#67dc0b" fill-rule="evenodd" stroke="#000" stroke-width=".06"/><ellipse cx="150.76" cy="1003.65" rx="1.11" ry="2.27" color="#000" overflow="visible"/><ellipse ry="2.27" rx="1.11" cy="1003.65" cx="157.85" color="#000" overflow="visible"/><path d="M177.58 1008.34l-7.9-28.9s8.7 1.06 12.56.45c3.85-.6 12.15-1.7 12.15-1.7l3 16.2s-7.3-3.06-12.58-1.7-9.7 4.4-9.7 4.4z" fill="#fff" fill-rule="evenodd"/><text transform="matrix(1.14635 -.11554 .1546 .85675 0 0)" y="1155.26" x="-3.79" style="line-height:125%" font-size="8.69" fill="#a20000"><tspan y="1155.26" x="-3.79" font-family="sans-serif">SOS</tspan></text></g></svg>