<?xml version="1.0" encoding="UTF-8"?>
<svg width="155.73mm" height="143.49mm" version="1.1" viewBox="0 0 155.73 143.49" xmlns="http://www.w3.org/2000/svg"><g transform="translate(-1.5173 -.81089)"><g><rect x="60.003" y="3.4984" width="38.754" height=".80181" ry=".4009" fill="#333" stroke-width=".076138"/><rect x="35.157" y="104.67" width="88.446" height="23.85" rx="13.957" ry="9.145" fill="#e0e0e8" stroke-width=".13616"/><rect x="1.5173" y="39.958" width="155.73" height="37.42" rx="41.211" ry="14.348" fill="#e0e0e8" stroke-width=".22631"/></g><rect x="72.826" y=".81089" width="13.109" height="16.823" rx="6.5546" ry="6.7001" fill="#e6e6e6" stroke-width=".043295"/><g><rect x="60.239" y="7.4752" width="38.284" height="136.83" rx="12.733" ry="54.493" fill="#e0e0e8" stroke-width=".211"/><path d="m36.89 68.423-7.9166-4.0098-7.7913 4.2483 1.3672-8.7683-6.448-6.0971 8.7616-1.4093 3.8062-8.0165 4.0478 7.8973 8.8004 1.1426-6.2599 6.2901z" fill="#c75c5c" stroke-width=".26458"/><path d="m141.93 67.888-7.9166-4.0098-7.7912 4.2483 1.3672-8.7683-6.448-6.0971 8.7616-1.4093 3.8062-8.0165 4.0478 7.8973 8.8004 1.1426-6.2599 6.2901z" fill="#c75c5c" stroke-width=".26458"/><ellipse cx="80.182" cy="70.561" rx="11.893" ry="28.619" fill="#77b3d4" stroke-width=".33999"/></g></g></svg>