<svg xmlns="http://www.w3.org/2000/svg" style="isolation:isolate" viewBox="187.5 264 122.547 139.683" width="122.547" height="139.683"><g fill-rule="evenodd" fill="#C3CFD9"><path d="M248.772 264l19.358 36.315 41.13-1.394-21.769 34.92 21.769 34.921-41.13-1.392-19.358 36.313-19.356-36.313-41.129 1.392 21.769-34.921-21.769-34.92 41.129 1.394L248.772 264z"/><path d="M236.179 285.432c0-.088-.005-.179-.005-.267 0-6.954 5.647-12.598 12.598-12.598 6.951 0 12.598 5.644 12.598 12.598v.267l-.034 1.522.735-1.333.132-.236c3.476-6.019 11.189-8.088 17.211-4.61 6.02 3.476 8.088 11.189 4.608 17.209-.044.078-.091.154-.137.23l-.789 1.304 1.304-.789c.073-.049.151-.094.23-.138 6.02-3.475 13.733-1.409 17.206 4.613 3.48 6.02 1.412 13.733-4.608 17.208l-.233.133-1.336.733 1.52-.032c.091 0 .179-.005.27-.005 6.953 0 12.598 5.647 12.598 12.6 0 6.954-5.647 12.598-12.598 12.598-.089 0-.177 0-.27-.002l-1.52-.034 1.336.732.233.133c6.022 3.48 8.088 11.189 4.608 17.211-3.476 6.019-11.189 8.088-17.206 4.61-.079-.044-.155-.091-.23-.137l-1.304-.79.789 1.304c.049.074.093.152.137.231 3.476 6.022 1.409 13.733-4.608 17.208-6.022 3.48-13.735 1.412-17.211-4.61l-.132-.233-.735-1.336.034 1.522v.267c0 6.954-5.647 12.598-12.598 12.601-6.953 0-12.598-5.647-12.598-12.601 0-.088 0-.176.005-.267l.032-1.522-.736 1.336-.132.233c-3.475 6.022-11.189 8.088-17.206 4.61-6.022-3.475-8.088-11.186-4.612-17.208a5.85 5.85 0 0 1 .137-.231l.789-1.304-1.304.79c-.073.049-.152.093-.23.137-6.02 3.475-13.733 1.409-17.206-4.61-3.481-6.022-1.412-13.733 4.608-17.211.078-.044.156-.088.232-.133l1.336-.732-1.519.034c-.091 0-.179 0-.27.002-6.953 0-12.598-5.644-12.598-12.598 0-6.953 5.645-12.598 12.598-12.6.088 0 .177 0 .27.005l1.519.032-1.336-.733c-.073-.044-.154-.088-.232-.133-6.022-3.475-8.089-11.188-4.608-17.208 3.475-6.022 11.189-8.088 17.206-4.613.078.044.154.091.23.138l1.304.789-.789-1.304a3.768 3.768 0 0 1-.137-.23c-3.476-6.02-1.41-13.733 4.612-17.209 6.02-3.475 13.733-1.409 17.206 4.61l.132.236.736 1.333-.032-1.522z"/></g></svg>