<svg xmlns:svg="http://www.w3.org/2000/svg" xmlns="http://www.w3.org/2000/svg" width="128" height="298" version="1"><style>.s0{fill:#743c23;stroke-width:9;stroke:#fdef73;}.s1{fill:none;stroke-width:10;stroke:#6dbcc5;}.s2{fill:#000;}.s3{fill:none;stroke-width:14;stroke:#000;}.s4{fill:#fff;stroke-width:5;stroke:#000;}</style><defs><linearGradient><stop offset="0" style="stop-color:#fdee73;stop-opacity:1"/><stop offset="1" style="stop-color:#b8aa37;stop-opacity:1"/></linearGradient></defs><g transform="translate(0,-3)"><g transform="matrix(0.3193344,0,0,0.3193344,-0.17230435,190.40743)"><g transform="translate(-184,-349)"/><g transform="translate(-184,-349)"><path d="m214 598-14-78 85 75 7 91-78-87" class="s0"/><path d="m291 683-3-86 223-91-10 81-209 98M201 514" class="s0"/><path d="m201 514c-22-78-17-161 45-56l253-66-90 65-206 59" class="s0"/><path d="M245 451 209 403 444 354 492 392 245 451" class="s0"/><path d="m209 519 19-41C388 419 425 453 473 455l33 49-219 88" style="fill-opacity:1;fill:#ebbc00"/></g></g><g transform="matrix(0.3193344,0,0,0.3193344,-0.64075374,123.7171)"><g transform="translate(-112.0491,-396.78477)"><image width="450" height="319" x="56" y="376"/></g><path transform="translate(0,-51.85838)" d="m299 202c0 20-44 36-99 36-54 0-99-16-99-36 0-20 44-36 99-36 54 0 99 16 99 36z" fill="#00bce4"/><path d="m106 113c-54 31-59 58 18 86M278 106" class="s1"/><path d="m278 106c76 17 93 49 19 85" class="s1"/><path d="m14 23 168 95C79-7 257-34 223 105L330 51C343 0 367 75 331 70L246 136 145 140 40 58C-7 84-18-4 39 41" fill="#f8d6bb"/><path transform="matrix(0.71428572,0,0,0.66666665,-32.428772,-245.97339)" d="m305 474c0 5-4 8-10 8-5 0-10-4-10-8 0-5 4-8 10-8 5 0 10 4 10 8z" fill="#000"/><path d="M155 88C168 51 175 38 225 50 228-32 80 6 156 88" fill="#803300"/><path d="m48 71 100 86 111-16 71-64-15-24-94 64-42 4L60 43" fill="#668000"/><path transform="matrix(0.71428572,0,0,0.66666665,-5.81828,-252.5271)" d="m305 474c0 5-4 8-10 8-5 0-10-4-10-8 0-5 4-8 10-8 5 0 10 4 10 8zM305 474" fill="#000"/><path transform="matrix(1.6071429,0,0,1.5,-277.38793,-617.78598)" d="m305 474c0 5-4 8-10 8-5 0-10-4-10-8 0-5 4-8 10-8 5 0 10 4 10 8z" fill="#000"/></g><g transform="matrix(0.3193344,0,0,0.3193344,0.55117329,1.0910729)"><g transform="translate(-157.4,-173.31933)"><image width="440" height="440" x="143" y="155"/></g><g transform="translate(-157.4,-173.31933)"><path d="m246 283 12 164" class="s3"/><path d="m367 180 5 309" class="s3"/><path d="m160 404c36 18 28 38 139 53 11 35 50 64 151-6l89-12c-65 83-25 68-82 97-69 12-132 3-196-2-13-42-33-66-100-129" style="fill:#a40;stroke-width:5;stroke:#000"/><path d="m226 340 64-25c-17 28-47 46-17 115-35-16-40-5-47 5-17-27-53-49-1-93M459 317l51-54" class="s4"/><path d="m459 317 51-54c-17 28 10 113 40 183-35-16-118-16-124-7-17-27-16-78 35-121" class="s4"/><path d="m299 338 135-41c-17 28-35 96-6 165-35-16-88 4-95 13-17-27-86-90-35-133" class="s4"/><path d="m374 232 37-11c-12 37 15 40 24 72-56-40-129 10-122 35-17-28-4-85 61-95" class="s4"/></g></g></g></svg>