<svg xmlns="http://www.w3.org/2000/svg" viewBox="0 0 427 207"><style>.a,.b,.c{fill:none}.b,.c{stroke:#29abe2}.c{stroke:#8cc63f}.d{fill:#00c467}.e{fill:#fcee21}.f{fill:#d4145a}.g{fill:#f2f2f2}.h{fill:#e9272d}</style><path class="a" d="M94 12L48 71"/><path class="b" d="M94 12L48 71"/><path class="c" d="M89 7l46 59"/><circle cx="92" cy="16" r="13" class="d"/><circle cx="138" cy="69" r="13" class="e"/><circle cx="49" cy="66" r="13" class="f"/><path class="c" d="M248 19l41 48"/><circle cx="244" cy="15" r="13" class="d"/><circle cx="291" cy="68" r="13" class="e"/><circle cx="202" cy="66" r="13" fill="#666"/><path d="M56 89c-3 0-5-1-5-3v-4h9v4c0 2-2 3-4 3z" class="g"/><path d="M54 86h-3v-9l1-1 2 1v9zM55 86l-1-1v-4l1-1 1 1v4l-1 1z" class="g"/><path d="M53 85l-2 1-2-2v-1l1-1 3 2v1zM57 86l-1-1v-4l1-1 1 1v4l-1 1zM59 86l-1-1v-4h2v4l-1 1zM244 40c-2 0-4-1-4-3v-4h9v4c0 2-2 3-5 3z" class="g"/><path d="M242 37h-2v-9l1-1 1 1v9zM244 37l-2-1v-4l2-1 1 1v4l-1 1z" class="g"/><path d="M242 36l-2 1-2-2-1-1 2-1 2 2 1 1zM246 37l-1-1v-4l1-1 1 1v4l-1 1zM248 37l-1-1v-4l1-1v1h1v4l-1 1z" class="g"/><path class="a" d="M171 135l-46 60"/><path class="b" d="M171 135l-46 60"/><path class="c" d="M167 130l46 60"/><circle cx="169" cy="139" r="13" class="d"/><circle cx="215" cy="192" r="13" class="e"/><circle cx="127" cy="190" r="13" class="f"/><path d="M173 163c-3 0-5-1-5-4v-3h9v3c0 3-2 4-4 4z" class="g"/><path d="M171 160h-3v-9l2-1 1 1v9zM172 160l-1-2v-3l1-1 1 1v3l-1 2z" class="g"/><path d="M170 159l-2 1-2-2v-1l1-1 3 2v1zM174 160l-1-2v-3l1-1 1 1v3l-1 2zM176 160l-1-1v-4l1-1 1 1v4l-1 1z" class="g"/><path fill="none" stroke-width="0" stroke="#29abe2" d="M96 105h282"/><text transform="translate(1 109)" font-family="'Consolas'" font-size="20" fill="#FFF">MOVES: 1</text><path class="a" d="M300 19h135v32H300z"/><text transform="translate(322 32)" font-family="'Consolas'" font-size="16" class="h">Game Over</text><text transform="translate(302 47)" font-family="'Consolas'" font-size="12" class="h">More than one move</text><path class="a" d="M261 144h160v66H261z"/><text transform="translate(280 155)" font-family="'Consolas'" font-size="16" fill="#8CC63F">Next Level</text></svg>