<svg width="70" height="70" viewBox="-35 -35 70 70" xmlns="http://www.w3.org/2000/svg">
<defs>
    <path id="head" d="M -4 -2.5 L -4.4 -3.9 L -10 -7.3 L -10.5 -11 Q -13 -14 -13.5 -20 Q -13 -32 0 -32 Q 13 -32 13.5 -20 Q 13 -14 10.5 -11 L 10 -7.3 L 4.4 -3.9 L 4 -2.5 Z" />
    <rect id="eye" width="6.5" height="7.5" rx="3" ry="3" />
    <path id="nose" d="M 0 -11 L -2.5 -7.5 Q -2.5 -5 0 -6 Q 2.5 -5 2.5 -7.5 Z" />
    <path id="jaw" d="M -6.1 -3.5 Q -3.5 0.8 0 0.5 Q 3.5 0.8 6.1 -3.5 L 7.3 -3.2 L 6.5 0.7 L 3.7 2.5 Q 3 4.5 0 4.8 Q -3 4.5 -3.7 2.5 L -6.5 0.7 L -7.3 -3.2 Z" />
    <path id="bone" d="M -11 8 Q -19 -2 -18 8 Q -22 15 -14 11 Q 0 15 10 24 Q 12 32 16 26 Q 25 22 12 20 Q 0 11 -11 8 Z" />
    <mask id="mask">
      <rect x="-35" y="-35" width="70" height="70" fill="white" />
      <use href="#eye" x="-8.7" y="-18" fill="black" />
      <use href="#eye" x="2.5" y="-18" fill="black" />
      <use href="#nose" fill="black" />
    </mask>
</defs>
  <use href="#head" fill="white" mask="url(#mask)" />
  <use href="#jaw" fill="white" />
  <use href="#bone" fill="white" />
  <use href="#bone" fill="white" transform="scale(-1, 1)" />
</svg>