<svg width="60" height="59" viewBox="0 0 60 59" xmlns="http://www.w3.org/2000/svg" xmlns:sketch="http://www.bohemiancoding.com/sketch/ns"><title>Owl</title><desc>Created with Sketch.</desc><g sketch:type="MSArtboardGroup" transform="translate(-2 -3)" fill="none"><path d="M32 62c16.569 0 30-13.431 30-30 0-8.5-4-25-7-23s-9-6-23-6-21 9-24 6-6 14.577-6 23c0 16.569 13.431 30 30 30z" fill="#6F480D" sketch:type="MSShapeGroup"/><path d="M32 39s26.5 20.966 26.5-7.699-26.5-13.301-26.5-13.301-26.5-15.364-26.5 13.301 26.5 7.699 26.5 7.699z" fill="#ECF0F1" sketch:type="MSShapeGroup"/><path fill="#E67E22" sketch:type="MSShapeGroup" d="M32 46l4-8h-8z"/><ellipse fill="#F8E81C" sketch:type="MSShapeGroup" cx="44.553" cy="28.927" rx="6.447" ry="6.99"/><ellipse fill="#F8E81C" sketch:type="MSShapeGroup" cx="19.447" cy="28.49" rx="6.447" ry="6.99"/><ellipse fill="#000" sketch:type="MSShapeGroup" cx="20.092" cy="31.584" rx="3.224" ry="3.151"/><ellipse fill="#000" sketch:type="MSShapeGroup" cx="43.908" cy="31.584" rx="3.224" ry="3.151"/></g></svg>