<svg width="62" height="61" viewBox="0 0 62 61" xmlns="http://www.w3.org/2000/svg" xmlns:sketch="http://www.bohemiancoding.com/sketch/ns"><title>Pig</title><desc>Created with Sketch.</desc><g sketch:type="MSArtboardGroup" transform="translate(-1 -1)" fill="none"><ellipse fill="#FFACF2" sketch:type="MSShapeGroup" cx="32.181" cy="35.313" rx="25.899" ry="26.381"/><ellipse fill="#DF76DA" sketch:type="MSShapeGroup" cx="32.181" cy="46.745" rx="10.36" ry="9.673"/><ellipse fill="#000" sketch:type="MSShapeGroup" cx="28.296" cy="45.426" rx="2.158" ry="2.198"/><ellipse fill="#000" sketch:type="MSShapeGroup" cx="36.929" cy="45.426" rx="2.158" ry="2.198"/><ellipse fill="#FEFEFE" sketch:type="MSShapeGroup" cx="40.814" cy="29.158" rx="4.317" ry="4.397"/><ellipse fill="#FEFEFE" sketch:type="MSShapeGroup" cx="23.548" cy="29.158" rx="4.317" ry="4.397"/><ellipse fill="#000" sketch:type="MSShapeGroup" cx="23.979" cy="28.718" rx="2.158" ry="2.198"/><ellipse fill="#000" sketch:type="MSShapeGroup" cx="41.246" cy="28.718" rx="2.158" ry="2.198"/><path d="M3 23c-1.163-4.125-1.386-14.69-1.906-19.235-.126-2.025 5.619-1.903 12.121.492 6.376 2.349 13.509 6.951 13.509 6.951l-17.649 15.342s-4.071 3.557-6.074-3.551zm57.221-.921c1.163-4.125 1.386-14.69 1.906-19.235.126-2.025-5.619-1.903-12.121.492-6.376 2.349-13.509 6.951-13.509 6.951l17.649 15.342s4.071 3.557 6.074-3.551z" fill="#FFACF1" sketch:type="MSShapeGroup"/><path d="M59.153 19.8c.947-3.456 1.054-12.327 1.457-16.139.091-1.7-4.746-1.641-10.202.32-5.35 1.924-11.321 5.734-11.321 5.734s6.619 3.645 9.783 6.396c1.829 1.59 5.195 6.624 5.195 6.624s3.455 3.018 5.087-2.936zm-55.041 1.154c-.947-3.456-1.054-12.327-1.457-16.139-.091-1.7 4.746-1.641 10.202.32 5.35 1.924 11.321 5.734 11.321 5.734s-6.159 2.507-9.177 5.13c-1.975 1.716-5.801 7.89-5.801 7.89s-3.455 3.018-5.087-2.936z" fill="#DF76DA" sketch:type="MSShapeGroup"/></g></svg>