<svg width="59" height="62" viewBox="0 0 59 62" xmlns="http://www.w3.org/2000/svg" xmlns:sketch="http://www.bohemiancoding.com/sketch/ns"><title>Rabbit</title><desc>Created with Sketch.</desc><g sketch:type="MSArtboardGroup" transform="translate(-3 -2)" fill="none"><path d="M23.979 27.559l-6.184 4.357-13.557-22.65c-3.239-3.266 2.379-12.851 8.73-2.24 6.351 10.611 11.01 20.533 11.01 20.533z" fill="#ECF0F1" sketch:type="MSShapeGroup"/><path d="M50.812 8.877c-6.814 10.489-11.955 20.541-11.955 20.541l6.712 4.36s12.434-19.137 15.436-25.139c3.002-6.002-3.379-10.251-10.193.238z" fill="#ECF0F1" sketch:type="MSShapeGroup"/><ellipse fill="#ECF0F1" sketch:type="MSShapeGroup" cx="32" cy="43.653" rx="20.404" ry="20.347"/><path d="M32 52.555c.939 0 1.7-.759 1.7-1.696 0-.936 1.3-1.696-1.7-1.696s-1.7.759-1.7 1.696c0 .936.761 1.696 1.7 1.696z" fill="#000" sketch:type="MSShapeGroup"/><ellipse fill="#FEFEFE" sketch:type="MSShapeGroup" cx="40.554" cy="39.653" rx="4.151" ry="4.14"/><ellipse fill="#FEFEFE" sketch:type="MSShapeGroup" cx="23.949" cy="39.653" rx="4.151" ry="4.14"/><ellipse fill="#000" sketch:type="MSShapeGroup" cx="23.534" cy="39.239" rx="2.076" ry="2.07"/><ellipse fill="#000" sketch:type="MSShapeGroup" cx="40.139" cy="39.239" rx="2.076" ry="2.07"/><path d="M48.52 15.712c-3.636 5.599-6.307 10.831-6.307 10.831l3.514 2.282 7.761-11.95s-1.332-6.761-4.968-1.163z" fill="#FFACF1" sketch:type="MSShapeGroup"/><path d="M22.189 26.494l-3.263 2.282-7.153-11.864s1.255-6.731 4.606-1.173 5.809 10.755 5.809 10.755z" fill="#FFACF1" sketch:type="MSShapeGroup"/><path d="M27.955 51.5l-11.955 3.641" stroke="#BDC3C7" stroke-linecap="square" sketch:type="MSShapeGroup"/><path d="M16 46.859l11.955 2.641" stroke="#BDC3C7" stroke-linecap="square" sketch:type="MSShapeGroup"/><path d="M36.045 51.5l11.955 3.641" stroke="#BDC3C7" stroke-linecap="square" sketch:type="MSShapeGroup"/><path d="M48 46.859l-11.955 2.641" stroke="#BDC3C7" stroke-linecap="square" sketch:type="MSShapeGroup"/></g></svg>