<svg xmlns="http://www.w3.org/2000/svg" version="1.1" viewBox="0 0 680 1040"><path d="M5.017 38.354h240.825m80.275 0h321.099M85.292 118.628h160.55m80.275 80.275h80.274m80.274 0h160.55M5.018 279.177h80.275m160.55 0h321.1m-481.65 80.276h80.276m160.549 0h80.274M5.017 439.727h240.825m160.549 0h160.55m-401.373 80.275H406.39m-160.549 80.274h80.275M85.292 680.551h80.276m240.823 0h160.55M5.017 760.827h240.825m80.275 0h80.274M85.291 841.1h321.1m80.274 0h80.276m-321.099 80.275h240.823M5.017 1001.65h321.1m80.274 0h240.825M5.017 38.354v963.296m80.275-802.747v80.274m0 240.825V680.55m0 160.55v80.275m80.276-722.473v240.824m0 80.275V680.55m0 160.55v160.549m80.274-963.296v321.099m0 321.098v80.276m80.275-642.199v80.275m0 160.55v160.549m0 80.274v160.55m80.273-722.47v80.274m0 80.275v80.274m0 240.825V680.55m0 80.276V841.1m0 80.275v80.274m80.274-883.022v80.275m0 160.55v80.274m0 80.275V841.1M566.94 38.353v80.274m0 160.55v321.098m0 80.275v80.276m0 80.274v160.549m80.275-963.296v963.296" fill="none" stroke="#000" stroke-dasharray="none" stroke-linecap="square" stroke-linejoin="miter" stroke-miterlimit="10" stroke-opacity="1" stroke-width="10.035"/></svg>