<svg width="200" height="200" xmlns="http://www.w3.org/2000/svg"><rect x="50" y="100" width="100" height="50" fill="gray" /><rect x="40" y="80" width="20" height="70" fill="gray" /><rect x="140" y="80" width="20" height="70" fill="gray" /><polygon points="30,80 70,80 50,60" fill="darkgray" /><polygon points="130,80 170,80 150,60" fill="darkgray" /><rect x="75" y="50" width="50" height="100" fill="gray" /><polygon points="70,50 130,50 100,30" fill="darkgray" /><rect x="85" y="130" width="30" height="20" fill="saddlebrown" /><rect x="60" y="110" width="10" height="10" fill="skyblue" /><rect x="130" y="110" width="10" height="10" fill="skyblue" /><rect x="45" y="90" width="10" height="10" fill="skyblue" /><rect x="145" y="90" width="10" height="10" fill="skyblue" /><line x1="50" y1="60" x2="50" y2="40" stroke="black" strokeWidth="2" /><polygon points="50,40 60,50 50,60" fill="red" /><line x1="150" y1="60" x2="150" y2="40" stroke="black" strokeWidth="2" /><polygon points="150,40 140,50 150,60" fill="red" /><ellipse cx="100" cy="175" rx="90" ry="20" fill="deepskyblue" /><rect x="80" y="160" width="40" height="5" fill="saddlebrown" /></svg>