<svg width="10" height="10" xmlns="http://www.w3.org/2000/svg">
 <g>
  <title>Layer 1</title>
  <path transform="rotate(21.0565, 5.36601, 5.20416)" id="svg_60" d="m0.48948,2.61758c-0.09125,0.35845 0.1672,0.69956 0.36894,1.00922c0.42981,0.54618 0.92846,1.07187 1.55425,1.49636c0.42699,0.26898 0.81172,0.57875 1.29521,0.79187c0.63208,0.32594 1.31078,0.59284 2.01453,0.8148c0.52329,0.17453 1.07206,0.29834 1.63275,0.37955c0.16309,0.03235 0.61905,0.12372 0.3354,-0.09065c-0.23529,-0.07603 -0.48559,-0.1315 -0.72218,-0.2108c-1.14851,-0.36088 -2.36894,-0.67795 -3.29547,-1.33634c-0.15353,-0.15604 0.29458,0.08428 0.37179,0.15018c0.77297,0.42115 1.65603,0.70353 2.52691,0.98246c0.44303,0.11233 0.9273,0.35177 1.39797,0.18186c0.40659,-0.11889 -0.09723,-0.13712 -0.27688,-0.1824c-0.7985,-0.17376 -1.6064,-0.34078 -2.33923,-0.64824c-0.41845,-0.11716 -0.77015,-0.33284 -1.14606,-0.51062c-0.40612,-0.21468 -0.77781,-0.46552 -1.17318,-0.69193c-0.25874,-0.15014 -0.51582,-0.30169 -0.73003,-0.48987c-0.36224,-0.27741 -0.71355,-0.5627 -1.04188,-0.86395c-0.21449,-0.18532 -0.4558,-0.35499 -0.60657,-0.57724l-0.16627,-0.20425zm8.43278,3.50115c-0.04951,-0.00119 -0.10062,0.0071 -0.14344,0.02894c-0.3197,0.12233 -0.25119,0.34951 -0.43388,0.52427c-0.13701,0.13981 -0.29686,0.20971 -0.52522,0.26214c0.04567,0.0699 0.13701,0.17476 0.13701,0.26214c0,0.19223 -0.29686,0.36699 -0.52522,0.34951c-0.09134,-0.01748 -0.29686,-0.10485 -0.36537,0c-0.02284,0.03495 -0.02284,0.0699 0,0.08738c0,0.0699 0.11418,0.10485 0.20552,0.13981c0.25119,0.05243 0.52522,-0.01748 0.73074,-0.12233c0.15985,-0.0699 0.27403,-0.19223 0.3197,-0.33204l0.04567,-0.22718c0.02284,-0.0699 0.11418,-0.08738 0.22836,-0.20971c0.13701,-0.13981 0.27403,-0.38447 0.45671,-0.48932c0.06851,-0.03495 0.13701,-0.05243 0.22836,-0.0699c-0.04567,-0.05243 -0.09134,-0.08738 -0.13701,-0.1398c-0.04567,-0.01748 -0.09134,-0.05243 -0.13701,-0.05243c-0.02569,-0.00655 -0.05522,-0.01075 -0.08492,-0.01147zm0.96695,0.65971c-0.08585,-0.00073 -0.17555,0.01365 -0.26546,0.03331l0.18269,0.08738c-0.04567,0.0699 -0.15985,0.20971 -0.13701,0.29709c0.02284,0.17476 0.34253,0.17476 0.47955,0.0699c0.15985,-0.13981 0.15985,-0.34951 -0.06851,-0.45437c-0.05994,-0.02294 -0.12448,-0.03275 -0.19125,-0.03331zm-0.4403,0.08574c-0.01788,0.00005 -0.03535,0.00018 -0.05281,0.00055c-0.12655,0.00531 -0.25305,0.01261 -0.37964,0.01693c-0.07953,0.00078 -0.16071,-0.00012 -0.23763,0.01748c-0.10433,0.05096 -0.17408,0.13545 -0.2148,0.22336c-0.00548,0.01267 -0.01013,0.02569 -0.01356,0.03877c0.127,0.04402 0.26871,0.0393 0.40462,0.0355c0.08235,-0.00169 0.16472,0.00618 0.24691,0.00928c0.05878,0.00199 0.11742,0.00813 0.17626,0.00655c0.07215,-0.00183 0.13896,-0.03314 0.17698,-0.07973c0.03286,-0.03982 0.06395,-0.08101 0.08421,-0.12561c0.01636,-0.04002 0.01939,-0.09565 -0.03497,-0.1196c-0.0473,-0.01999 -0.10194,-0.02363 -0.15557,-0.02348l0,0zm0.08349,0.40194c-0.02284,0.01748 -0.04567,0.01748 -0.06851,0.03495c-0.02284,0.08738 0.27403,0.29709 0.3197,0.10485c-0.11418,-0.03495 -0.18269,-0.0699 -0.25119,-0.13981l0,0z" stroke="#000000" fill="#000000"/>
  <path transform="rotate(163.549, 4.52773, 5.36663)" id="svg_66" d="m0.08323,8.40792c-0.08316,-0.42147 0.15238,-0.82255 0.33625,-1.18664c0.39173,-0.6422 0.84621,-1.2603 1.41656,-1.75941c0.38916,-0.31627 0.73981,-0.68049 1.18046,-0.93108c0.57609,-0.38323 1.19465,-0.69706 1.83606,-0.95805c0.47693,-0.20521 0.97708,-0.35079 1.4881,-0.44627c0.14864,-0.03804 0.56421,-0.14547 0.30568,0.10659c-0.21444,0.0894 -0.44257,0.15462 -0.6582,0.24786c-1.04676,0.42432 -2.15907,0.79714 -3.00351,1.57127c-0.13993,0.18347 0.26848,-0.0991 0.33885,-0.17658c0.70449,-0.49518 1.50931,-0.82721 2.30304,-1.15518c0.40378,-0.13208 0.84515,-0.41361 1.27412,-0.21383c0.37057,0.13979 -0.08862,0.16122 -0.25235,0.21447c-0.72776,0.2043 -1.46409,0.40069 -2.13199,0.7622c-0.38138,0.13775 -0.70192,0.39136 -1.04453,0.60038c-0.37014,0.25243 -0.7089,0.54736 -1.06925,0.81357c-0.23582,0.17654 -0.47012,0.35472 -0.66535,0.57598c-0.33015,0.32618 -0.65034,0.66162 -0.94957,1.01584c-0.19549,0.2179 -0.41542,0.4174 -0.55283,0.67872l-0.15154,0.24015zm7.68569,-4.11664c-0.04512,0.0014 -0.09171,-0.00835 -0.13073,-0.03403c-0.29138,-0.14384 -0.22894,-0.41096 -0.39544,-0.61644c-0.12488,-0.16438 -0.27056,-0.24658 -0.47869,-0.30822c0.04163,-0.08219 0.12487,-0.20548 0.12487,-0.30822c0,-0.22603 -0.27056,-0.43151 -0.47869,-0.41096c-0.08325,0.02055 -0.27056,0.12329 -0.333,0c-0.02081,-0.0411 -0.02081,-0.08219 0,-0.10274c0,-0.08219 0.10406,-0.12329 0.18731,-0.16438c0.22894,-0.06164 0.47869,0.02055 0.666,0.14384c0.14569,0.08219 0.24975,0.22603 0.29138,0.39041l0.04163,0.26712c0.02081,0.08219 0.10406,0.10274 0.20813,0.24657c0.12488,0.16438 0.24975,0.45205 0.41625,0.57534c0.06244,0.0411 0.12487,0.06164 0.20813,0.08219c-0.04163,0.06164 -0.08325,0.10274 -0.12488,0.16438c-0.04163,0.02055 -0.08325,0.06164 -0.12487,0.06164c-0.02341,0.00771 -0.05032,0.01264 -0.0774,0.01348zm0.88128,-0.77568c-0.07825,0.00086 -0.16,-0.01605 -0.24195,-0.03917l0.1665,-0.10274c-0.04163,-0.08219 -0.14569,-0.24657 -0.12488,-0.34931c0.02081,-0.20548 0.31219,-0.20548 0.43706,-0.08219c0.14569,0.16438 0.14569,0.41096 -0.06244,0.53424c-0.05463,0.02697 -0.11345,0.0385 -0.17431,0.03917zm-0.40129,-0.10081c-0.01629,-0.00006 -0.03222,-0.00021 -0.04813,-0.00064c-0.11534,-0.00624 -0.23063,-0.01483 -0.34601,-0.01991c-0.07249,-0.00092 -0.14648,0.00014 -0.21658,-0.02055c-0.09509,-0.05992 -0.15866,-0.15927 -0.19577,-0.26263c-0.00499,-0.0149 -0.00923,-0.0302 -0.01236,-0.04559c0.11575,-0.05176 0.24491,-0.04621 0.36877,-0.04174c0.07505,0.00198 0.15013,-0.00727 0.22504,-0.01092c0.05357,-0.00234 0.10702,-0.00956 0.16065,-0.00771c0.06576,0.00215 0.12665,0.03896 0.1613,0.09375c0.02995,0.04682 0.05828,0.09525 0.07675,0.14769c0.01492,0.04706 0.01767,0.11246 -0.03187,0.14062c-0.04311,0.02351 -0.09291,0.02779 -0.14179,0.02761l0,0zm0.0761,-0.4726c-0.02081,-0.02055 -0.04163,-0.02055 -0.06244,-0.0411c-0.02081,-0.10274 0.24975,-0.34931 0.29138,-0.12329c-0.10406,0.0411 -0.1665,0.08219 -0.22894,0.16438l0,0z" stroke="#000000" fill="#000000"/>
 </g>

</svg>