<svg xmlns="http://www.w3.org/2000/svg" version="1.0" viewBox="0 0 900 900"><path d="m14 4-2 5-2 8C6 27 3 41 1 52v66c1 13 6 35 9 45l3 10 2 9 3 8a439 439 0 0 0 91 150 1122 1122 0 0 0 82 79l6 5 6 5a497 497 0 0 0 42 33 193 193 0 0 0 24 17l16 13 15 9a2359 2359 0 0 0 45 31c1 2-4 6-62 51l-34 26-16 11-7-3-21-16-16-12-1-6c-1-11-6-20-14-27-9-9-17-12-29-12-10 0-16 2-24 7-7 4-12 10-16 18-3 6-4 7-4 17 0 11 0 13 5 23 4 9 19 20 28 22l5 1c4 4 31 36 31 38l-4 5A1288 1288 0 0 0 35 807c-12 3-23 12-29 21-5 10-6 14-6 27 1 11 1 12 4 19 5 9 11 16 19 20 7 5 9 5 23 6 8 0 12 0 16-2 8-2 15-7 20-13 8-8 11-17 13-29v-6l16-17 53-48 5-5 9-7 50-37a573 573 0 0 1 38 48c0 5 3 14 8 21 18 29 60 26 76-6 3-6 3-7 3-18s0-12-3-19c-6-11-18-22-29-23l-5-3-11-20a2253 2253 0 0 0-11-25l12-8 11-7a823 823 0 0 0 20-12c1-1 3-3 5-3l14-9 13-8 7-4 5-3 5-3 5-3 4-3 8-4 7-5 10-6 6-3a60 60 0 0 1 8-5c15-9 16-9 23-4l5 3 5 3a93 93 0 0 0 10 6l5 3 5 3 9 5 11 7 9 5 6 4 6 4a3217 3217 0 0 1 65 39c13 9 13 8 8 17l-11 21c-7 15-10 18-15 18-4 0-17 8-21 14l-6 10c-3 6-4 7-3 18 0 11 0 12 3 18 13 27 44 34 67 16 9-7 17-21 17-31 0-4 1-6 15-22l19-22 4-4 28 20 11 9a635 635 0 0 1 78 68l16 17v6c2 11 4 17 11 26 10 13 20 18 37 18 13 0 20-2 28-9 9-6 16-15 18-23 0-2 1-3 2-3l1-11c0-10 0-11-2-13l-2-4c0-3-7-14-12-19-6-5-13-9-21-11a1090 1090 0 0 0-135-137 445 445 0 0 1 31-38l5-1c13-3 27-16 31-30 3-6 3-22 0-27-5-12-9-17-18-23a43 43 0 0 0-67 32v5l-11 9c-20 14-32 23-34 23a335 335 0 0 1-46-34 720 720 0 0 1-66-54l44-30 8-5a2955 2955 0 0 0 102-78l15-13a1245 1245 0 0 0 89-92l5-8a590 590 0 0 0 55-92c12-28 22-64 25-90 1-11 2-12 3-12 1 1 1-10 1-26l-1-28c-1-1-2-3-2-7a173 173 0 0 0-11-42c-2-8-3-7-13 7a430 430 0 0 1-185 151c-17 5-16 5-20 13a379 379 0 0 1-21 38l-3 6a316 316 0 0 1-12 18 1175 1175 0 0 1-77 100 1742 1742 0 0 1-103 102h-6l-12-11a1546 1546 0 0 1-150-165l-11-15a184 184 0 0 1-11-18 147 147 0 0 1-11-17 268 268 0 0 1-20-35l-5-11-5-1-30-11a391 391 0 0 1-46-24C100 106 56 61 23 13c-7-10-7-11-9-9zm20 70a530 530 0 0 0 110 94c12 8 42 22 57 26 4 1 6 3 8 7l4 8 7 11a164 164 0 0 1 7 13l4 8a942 942 0 0 0 194 221l16 15a4135 4135 0 0 0 119 99l16 12a3305 3305 0 0 1 48 37l11 9 5 5-4 4c-6 4-9 7-12 13l-4 8c-2 3-2 3-17-7l-22-14-14-9a28147 28147 0 0 0-169-102 2152 2152 0 0 1-147-101A673 673 0 0 1 79 253a412 412 0 0 1-48-129c-2-10-4-49-3-52s2-2 6 2zm836 1a308 308 0 0 1-20 116l-7 15-15 31-6 10c-9 16-23 37-35 52a757 757 0 0 1-174 157l-12 9-15 11-8 5-18 12-24 16-8 5-6-5a1188 1188 0 0 0-33-27c-12-11-18-17-17-18a1600 1600 0 0 0 141-148l40-54 3-5a291 291 0 0 0 21-34l12-21c2-6 3-6 9-8a302 302 0 0 0 117-70 542 542 0 0 0 53-54c1 0 2 2 2 5zM376 551l2 2 5 3a1317 1317 0 0 0 36 24 10306 10306 0 0 0-134 84c-6 3-6 3-11-8-4-7-6-9-12-13l-4-4a7054 7054 0 0 0 65-51l20-16 17-14c10-7 14-9 15-7zm-225 22c4 2 5 4 8 8 7 14-11 29-23 19-9-6-9-17-2-24 4-4 11-5 17-3zm608 0c13 5 14 22 2 29-5 2-9 3-14 0-7-4-11-11-9-17 3-10 12-15 21-12zm-568 53a6820 6820 0 0 0 49 35c6 5 9 7 12 15l12 21 15 31 8 15-3 2-5 4c-2 0-3-1-12-11l-7-8-6-7-3-4a1387 1387 0 0 1-28-33l-9-10a346 346 0 0 1-18-21l-7-8-12-14-5-6-2-3 4-4 4-3 13 9zm533-6c5 4 5 4-9 20a391 391 0 0 0-30 35l-9 11-11 12-7 8a456 456 0 0 0-32 38c-6 6-7 6-12 1l-3-2 9-18 15-28 10-20 5-10 16-11 23-17a2525 2525 0 0 0 30-22l5 3zm-532 74c2 1 17 19 16 20l-18 14a863 863 0 0 0-108 92l-2-1-4-4-4-3 11-14 9-10c25-27 51-54 79-79 20-18 18-17 21-15zm522 3a1200 1200 0 0 1 112 115l-4 3-4 4-2 1a963 963 0 0 0-126-106c-1-1 14-19 16-20 2-2 3-1 8 3zm-395 71c9 7 9 19 0 26-5 4-13 3-18 0-5-4-8-11-6-16 3-9 7-12 15-12 5 0 7 0 9 2zm278 0c3 2 4 4 6 8v10c-3 7-8 10-15 10-4 0-6 0-9-2-9-7-9-18 0-26 4-3 13-3 18 0zM56 836c15 7 13 30-3 36H42c-6-2-11-6-14-13-1-5-1-7 1-12 1-5 7-12 11-12 6-1 12-1 16 1zm807 1c4 4 6 6 7 12 2 5 0 11-3 16-4 6-13 9-21 6-17-4-19-27-4-35 6-3 16-2 21 1z"/></svg>