<svg xmlns="http://www.w3.org/2000/svg" version="1.0" viewBox="0 0 300 66"><path d="M160 22c-5 2-7 6-7 10 1 3 1 4-1 5-3 2-6 0-6-4 0-10-12-16-19-10-4 3-2 12 2 10v-6l-1 2h-1c-3-3 3-7 9-5 8 2 12 12 4 10-4-1-8-1-15 2-5 1-5 1-11-1-6-3-11-2-23 2l-6 3-5-2c-6-3-16-4-28-1H37c-6-2-13-2-18-1l-6 2-4 2-4 3c-2 0-3 2-1 2h9c11 2 17 1 24-2l6-2 8 2c9 3 17 4 27 1 7-1 7-1 10 1 5 4 15 4 24-2l7-4 6 2c7 3 14 2 18-1s5-2 5 2c0 6 2 8 5 4v-4c-2-5 1-6 5-2 5 4 10 5 18 3l6-2 7 3c9 5 19 5 29 1 6-3 6-3 11-1h18c2-1 4-1 10 1l6 2 12-2h13c3 2 4 2 4 1 0-6-28-11-38-7h-26c-3 1-5 0-12-2-10-3-21-3-28 0-5 1-5 1-10-1l-6-2c-1-1-1-1 1-2 4-1 5-3 3-6-3-5-11-7-16-4zm12 3c3 1 2 5 0 6-2 0-2 0-2-2 1-2 0-3-2-1v3c1 2 1 2-4 2h-7c-3 1-2-4 1-7 4-3 10-4 14-1zm4 13c4 2 2 3-6 3-7 0-14-4-10-5 3-1 12 0 16 2zm-62-1c2 0 3 2 1 2l-5 2c-6 5-23 6-23 1 0-3 21-7 27-5zm29 0c-1 3-7 4-13 3-9-2-6-4 6-4l7 1zM38 39c6 2-4 4-16 4-9 0-15-1-11-2 8-3 19-4 27-2zm40 0c11 4-14 6-26 2l-5-2c3-2 25-2 31 0zm134 0c9 2 9 3 3 4-9 3-29 1-29-3 0-3 18-4 26-1zm66 2 3 1h-3c-7 2-17 3-21 1l-4-1 3-2c3-1 18-1 22 1zm-34 0c3 1 1 2-5 2s-10-1-9-2h14z"/></svg>