<svg xmlns="http://www.w3.org/2000/svg" xmlns:xlink="http://www.w3.org/1999/xlink" width="1200" height="1200" viewBox="0 0 900 900"><path id="bp" d="m70 28-2 12-2 8h-3l-11-2c-9-1-9-1-8 10l1 10 1 3-8 1c-9 0-16 3-16 6 0 2 7 7 17 13l7 4-4 4c-4 5-11 15-12 19l-5 11c-2 4-1 6 3 6l12-5 4-1 8-5c6-5 13-13 13-15l2-3 1-3c0-3 3-4 5-2v8l-2 5-2 3-1 1-4 6-5 4v53l1 53c1-1 2-12 2-52v-51l2-3 6-6 3-5 1-2 2-4 1-5c0-4 1-5 6-6l5 1c2 3-8 22-14 29l-1 3-1 117 1 115 2 1h2V133l4-5 6-10 4-7 1-4 2-6c1-4 2-4 8-6l8-3 6-3 10-6 5-4h231v-5H130l-6 4c-9 6-25 13-27 13l-1-6c1-5 2-6 6-6l6-1 4-3c3-1 9-5 13-9 1-2 6-2 53-2 40 0 51-1 52-2l-53-1h-53l-3 4-6 5-4 2c-7 4-10 5-13 3-3 0-2-4 0-5 5-2 14-7 18-11l9-13 1-4 5-12c0-4-2-5-6-3a109 109 0 0 0-34 21l-4-7c-5-10-11-17-13-17-1 0-3 1-4 4zm55 7-2 6-1 3-1 3-2 2c0 2-6 8-10 12-9 6-14 7-14 3l-2-6-1-5 6-6c4-4 7-7 9-7l7-5 3-1 3-2 3-1c2 0 3 1 2 4zm-46 3 9 19c3 9 4 31 2 34-3 4-25 2-38-2-10-4-22-11-21-13h14c12 0 14 0 21 2l9 4c6 2 7 0 4-7-5-12-8-27-6-36l1-6h1l4 5zM64 54c3 2 4 3 5 9a125 125 0 0 0 4 11l-15-3c-5-2-8-6-8-11l-1-5c-1-3 0-4 6-3l9 2zm-8 41 6 2c3 0 3 2 1 7-4 7-13 17-15 17l-3 1-3 2-3 1-6 2c-4 1-4 1-4-1l2-4 1-3 1-3 5-8 13-14 5 1z"/><use xlink:href="#bp" x="0" y="0"/><use xlink:href="#bp" x="900" y="0" transform="rotate(90 900 0)"/><use xlink:href="#bp" x="0" y="900" transform="rotate(270 0 900)"/><use xlink:href="#bp" x="900" y="900" transform="rotate(180 900 900)"/></svg>