<svg xmlns="http://www.w3.org/2000/svg" version="1.0" viewBox="0 0 900 900"><path d="m441 2-4 2c-4 2-11 10-13 15l-2 13-2 11-3 5c-2 7-11 14-18 18-7 3-18 7-22 7a223 223 0 0 0-79 30 268 268 0 0 0-120 157 253 253 0 0 0-9 49l-7 3c-9 3-11 4-15 9-7 8-7 0-7 130 0 109 0 117 2 121 3 11 4 11 59 38l50 26c1 1 0 12-1 16l-4 11a172 172 0 0 1-12 28c-8 15-27 36-45 49l-16 12-13 9c-11 9-16 14-18 20l-2 9c0 5 3 13 7 17 3 4 14 10 18 10l6 1 24 8 15 4a2413 2413 0 0 0 41 13l14 4 15 4 31 10 10 2c2 1 6 3 10 3l10 3c2 1 6 3 10 3l10 3c2 1 6 3 10 3l10 3c2 1 6 3 10 3l10 3c2 1 6 3 10 3l10 3c2 1 6 3 10 3l8 3h20l29-8 11-4 9-3 10-3 11-3a1447 1447 0 0 1 75-22l25-8a290 290 0 0 0 24-7l15-5 15-4 28-8 16-5c18-5 26-11 29-21 5-12 0-24-15-34a240 240 0 0 1-22-16l-11-9c-18-13-36-32-44-47-8-14-11-23-15-40-2-8-3-13-2-15l51-27c54-27 55-27 58-38 2-4 2-13 2-121 0-130 0-122-7-130-3-4-7-7-16-10l-6-3-1-6A260 260 0 0 0 519 72c-15-3-25-7-32-15-7-7-10-14-11-25l-2-13c-2-5-9-13-13-15-2 0-3-2-4-3l-8-1-8 1zm12 96a98 98 0 0 0 49 25l6 1 24 7a198 198 0 0 1 83 50 217 217 0 0 1 58 110h-8l-10-4-10-3a2206 2206 0 0 0-43-12l-15-5a949 949 0 0 1-57-17 1042 1042 0 0 1-59-18c-19-6-24-6-36-2l-12 4-10 3-15 4-14 4a927 927 0 0 1-30 9l-10 3-10 3-10 3-10 3-10 3-10 3-10 3-9 3-8 2a2173 2173 0 0 0-42 11l4-19a212 212 0 0 1 179-153c17-6 25-10 36-20l5-4 4 3zm0 184 9 3 10 3 10 3 10 3 10 3 10 3 10 3 10 3 10 3 10 3 10 3 10 3 10 3 10 3a290 290 0 0 0 20 6l14 4a923 923 0 0 1 26 8l10 3 10 3 10 3 10 3 9 3 4 2v93l-1 95-255 128-255-128-1-95v-93l2-1 5-2 7-2a257 257 0 0 1 35-11l14-4 16-5a1037 1037 0 0 1 74-22l10-3a365 365 0 0 0 30-9 3627 3627 0 0 0 67-18zm-82 414 73 35h10l73-35 68-34c2 1 4 7 4 9a198 198 0 0 0 73 108l-18 7-10 2-10 3-10 3-10 3-10 3-10 3-10 3-10 3-10 3-10 3-10 3-10 3-10 3-10 3-10 3-10 3-10 3-10 3-19 7h-11a509 509 0 0 0-30-9l-15-5a492 492 0 0 1-46-14l-10-2c-2-1-6-3-10-3l-10-3a795 795 0 0 0-60-18l-10-3a290 290 0 0 0-26-9c-2 0 0-2 10-10a205 205 0 0 0 62-99c0-3 3-9 4-9l68 34z"/><path d="m382 345-8 6c-8 8-8 3-8 109s0 100 8 109c11 10 26 10 36 0s9-2 9-109c0-87 0-95-2-99-5-15-21-22-35-16zM494 346c-6 3-11 8-13 15-2 4-2 12-2 99 0 106 0 99 8 108 10 11 26 11 37 1 9-9 8-3 8-109s0-101-8-109-20-10-30-5zM272 378c-6 2-13 7-16 13l-2 4v60c0 59 0 59 2 63 6 12 18 18 29 15 8-2 13-5 18-13l3-4v-60c0-60 0-60-3-65-3-6-10-11-17-13s-7-2-14 0zM611 378c-6 2-13 8-16 13l-2 4v120l2 5c6 8 10 11 18 13 11 3 23-3 29-14 3-4 3-5 3-64v-59l-3-5c-3-6-10-11-16-13-7-2-8-2-15 0z"/></svg>