<svg id="favicon" xmlns="http://www.w3.org/2000/svg" viewBox="0 0 20 20" width="100%">
  <title>favicon</title>
  <g>
    <rect width="20" height="20" fill="#1a1a1a"/>
    <rect x="1.5" y="1.5" width="8" height="8" fill="#808080"/>
    <rect x="1.5" y="10.5" width="8" height="8" fill="#4d4d4d"/>
    <rect x="10.5" y="1.5" width="8" height="8" fill="#4d4d4d"/>
    <rect x="10.5" y="10.5" width="8" height="8" fill="#808080"/>
      <path d="M196.61,202.65c-1.35.26-2.31,1.2-2.19,2.16s1.44,1.71,2.93,1.52,2.59-1.17,2.47-2.2-1.45-1.7-2.93-1.52Z" transform="translate(-190 -190)" fill="#fff" fill-rule="evenodd" style="isolation: isolate"/>
      <path d="M199.25,204.71l3.2-10.42" transform="translate(-190 -190)" fill="none" stroke="#fff" stroke-linecap="round" stroke-width="0.9"/>
      <path d="M202.8,194.1c.33,1.82,1.15,2,1.65,3.2a3.65,3.65,0,0,1,.15,3c-.2.5-.55.8-1.6,1.65,1.25-2.25.57-3-.05-4.1C202.2,196.48,202.18,195.92,202.8,194.1Z" transform="translate(-190 -190)" fill="#fff" fill-rule="evenodd"/>
  </g>
</svg>
