<svg xmlns="http://www.w3.org/2000/svg" viewBox="0 0 400 400">
  <title>fretboard</title>
  <rect x="14" y="150" width="372" height="180" fill="#420"/>
  <line x1="14" y1="165" x2="386" y2="165" fill="none" stroke="#e6e6e6" stroke-width="4"/>
  <line x1="14" y1="195" x2="386" y2="195" fill="none" stroke="#e6e6e6" stroke-width="4"/>
  <line x1="14" y1="225" x2="386" y2="225" fill="none" stroke="#e6e6e6" stroke-width="4"/>
  <line x1="14" y1="255" x2="386" y2="255" fill="none" stroke="#e6e6e6" stroke-width="4"/>
  <line x1="14" y1="285" x2="386" y2="285" fill="none" stroke="#e6e6e6" stroke-width="4"/>
  <line x1="14" y1="315" x2="386" y2="315" fill="none" stroke="#e6e6e6" stroke-width="4"/>
  <rect x="14" y="150" width="19" height="180" fill="#42210b" opacity="0.8"/>
  <line x1="34" y1="150" x2="34" y2="330" fill="none" stroke="#daa520" stroke-width="3"/>
  <line x1="149" y1="150" x2="149" y2="330" fill="none" stroke="#daa520" stroke-width="3"/>
  <line x1="202" y1="150" x2="202" y2="330" fill="none" stroke="#daa520" stroke-width="3"/>
  <line x1="253" y1="150" x2="253" y2="330" fill="none" stroke="#daa520" stroke-width="3"/>
  <line x1="302" y1="150" x2="302" y2="330" fill="none" stroke="#daa520" stroke-width="3"/>
  <line x1="348" y1="150" x2="348" y2="330" fill="none" stroke="#daa520" stroke-width="3"/>
  <line x1="92" y1="150" x2="92" y2="330" fill="none" stroke="#daa520" stroke-width="3"/>
  <circle cx="175" cy="240" r="6" fill="#967814" fill-opacity="0.7"/>
  <circle cx="277" cy="240" r="6" fill="#967814" fill-opacity="0.7"/>
  <circle cx="372" cy="240" r="6" fill="#967814" fill-opacity="0.7"/>
  <rect width="400" height="400" fill="none"/>
</svg>
