<svg xmlns:svg="http://www.w3.org/2000/svg" xmlns="http://www.w3.org/2000/svg" xmlns:xlink="http://www.w3.org/1999/xlink" width="300" height="500" id="svg2" version="1.1"><style>.s0{stop-color:#646464;stop-opacity:1;}.s1{stop-color:#969696;stop-opacity:1;}</style><defs id="defs4"><linearGradient id="linearGradient3844"><stop offset="0" id="stop3846" class="s0"/><stop id="stop3852" offset="0.3" class="s1"/><stop offset="0.8" id="stop3854" class="s1"/><stop offset="1" id="stop3848" class="s0"/></linearGradient><linearGradient xlink:href="#linearGradient3844" id="linearGradient3860" gradientUnits="userSpaceOnUse" x1="100" y1="198" x2="211.1" y2="195.9"/></defs><metadata id="metadata7"/><g id="layer1" transform="translate(0,-552.36218)"><g id="g3856" transform="matrix(1.4844815,0,0,1.4844815,-72.522359,-435.62666)"><path id="path2985" d="m206.1 85.8c0 0 17.1 219.9 17.1 229.8 0 9.9-31.4 35.9-70.2 35.9-38 0-67.8-25.5-67.9-36.2C85.1 304.7 106.9 85.3 106.9 85.3z" transform="translate(-5.0507627,638.22515)" style="fill:url(#linearGradient3860);stroke:#000"/><path id="path2985-1" transform="translate(0,552.36218)" d="m165.8 125.8 0 22.2-21.2 0 0-22.1-28.3 0 0 22.1-17.7 0 0-22.1-17.1 0 0 22.1 0.1 0c0 0-0.1 17.1 0 24.9 0.1 7.8 29.9 26.6 67.9 26.6 38.8 0 70.2-19.3 70.2-26.6l0-24.6 0.1 0 0-22.5-17 0 0 22.2-11 0 0-22.2z" style="fill:#646464;stroke:#000"/></g><path d="m210.6 889.7c-23 0-42.6 10.7-50.9 25.9-7.6-3.6-17.1-5.7-27.4-5.7-3.2 0-6.3 0.2-9.3 0.6-9.8-7.6-24.1-12.4-40.2-12.4-29.4 0-53.2 16.1-53.2 36.1 0 8.3 4.1 15.9 11 22-7.3 7.5-11.5 16.9-11.5 27 0 24.9 26.1 45.2 58.3 45.2 4.5 0 9-0.4 13.2-1.2 9 10.2 26.2 17.1 45.9 17.1 13.2 0 25.2-3.1 34.4-8.2 1.1 0.1 2.3 0.1 3.4 0.1 20.8 0 39-10.1 48.9-25.3 0.2 0 0.4 0 0.6 0 22 0 39.9-15.4 39.9-34.3 0-10.4-5.4-19.8-14-26.1 3.8-5.7 5.9-12.1 5.9-18.9 0-23.2-24.6-41.9-55-41.9z" id="path3864" style="fill:#eee;stroke-width:1.6;stroke:#000"/></g></svg>