<svg xmlns:svg="http://www.w3.org/2000/svg" xmlns="http://www.w3.org/2000/svg" xmlns:xlink="http://www.w3.org/1999/xlink" width="300" height="500" id="svg2" version="1.1"><style>.s0{stop-color:#646464;stop-opacity:1;}.s1{stop-color:#969696;stop-opacity:1;}.s2{fill:none;stroke-width:5;stroke:#0a0;}.s3{fill:#0a0;stroke-width:1;stroke:#0a0;}.s4{fill:#a00;stroke-width:5;stroke:#aa0005;}</style><defs id="defs4"><linearGradient id="linearGradient3844"><stop offset="0" id="stop3846" class="s0"/><stop id="stop3852" offset="0.25" class="s1"/><stop offset="0.75" id="stop3854" class="s1"/><stop offset="1" id="stop3848" class="s0"/></linearGradient><linearGradient xlink:href="#linearGradient3844" id="linearGradient3860" gradientUnits="userSpaceOnUse" x1="100.005" y1="197.964" x2="211.122" y2="195.944"/></defs><metadata id="metadata7"/><g id="layer1" transform="translate(0,-552.36218)"><g id="g3856" transform="matrix(1.4844815,0,0,1.4844815,-72.522359,-435.62666)"><path id="path2985" d="m206.122 85.837c0 0 17.122 219.907 17.122 229.81 0 9.903-31.432 35.86-70.206 35.86-38.045 0-67.843-25.508-67.908-36.168C85.066 304.679 106.874 85.332 106.874 85.332z" transform="translate(-5.0507627,638.22515)" style="fill:url(#linearGradient3860);stroke:#000"/><path id="path2985-1" transform="translate(0,552.36218)" d="m165.813 125.813 0 22.156-21.156 0 0-22.094-28.349 0 0 22.094-17.745 0 0-22.062-17.125 0 0 22.063 0.094 0c0 0-0.065 17.062 0 24.906 0.065 7.845 29.861 26.625 67.906 26.625 38.773 0 70.219-19.338 70.219-26.625l0-24.562 0.063 0 0-22.5-17.031 0 0 22.156-11 0 0-22.156z" style="fill:#646464;stroke:#000"/></g><g id="g4737"><path id="path4451" transform="translate(0,552.36218)" d="m144.658 354c-22.8 0-38.026 7.056-56.064 19.219-0.323-0.004-0.645-0.031-0.969-0.031-35.771 0-57.205 20.903-57.205 49.198L26.783 484l252.891 0-1.191-61.405c0-28.295-14.868-48.22-50.639-48.22-4.12 0-8.125 0.324-12.031 0.906C197.158 361.842 168.728 354 144.658 354z" style="fill:#520;stroke-width:1;stroke:#000"/><path id="path4498" d="M73.721 929.649C110.623 892.083 70.606 866.788 58.569 833.684" class="s2"/><path transform="translate(0,552.36218)" id="path4506" d="m151.523 364.64c23.549-29.001 68.71-32.717 91.419-61.619M60.104 812.956 60.104 812.956" class="s2"/><path id="path4510" d="m60.104 812.956c8.025-7.099 16.72-13.414 24.552-20.735 10.758 0.69 16.727 13.537 27.962 12.419 30.131 2.941 59.62-9.12 84.041-25.924 13.706-9.409 26.53-20.082 38.201-31.925" class="s2"/><path id="path4512" d="m240.416 807.583c-9.311-1.568-26.268-1.519-33.335-8.586-10.215-10.216-26.951-14.324-36.365-23.739-32.681-32.681-67.867-50.582-103.036-64.65" class="s2"/><path id="path4514" d="m199.505 926.598c-4.056-28.098-17.976-54.947-39.618-73.491-7.435-9.568-9.375-22-15.793-32.14-3.77-17.979 7.573-33.925 12.745-50.331 7.804-16.548 17.712-35.396 10.915-53.992-3.332-9.644-8.761-18.366-12.696-27.751" class="s2"/><path id="path4595" d="m94.093 713.593c0 3.515-0.358 5.891-2.267 5.827-2.313-0.077-2.325-2.313-2.325-5.827 0-3.515 2.042-7.771 2.267-7.629 0.145 0.092 2.325 4.114 2.325 7.629zM75.359 807.188 75.359 807.188" class="s3"/><path id="path4595-1" d="m75.359 807.188c-0.646-3.455-0.73-5.856 1.158-6.145 2.288-0.349 2.71 1.846 3.356 5.301 0.646 3.455-0.58 8.014-0.827 7.916-0.16-0.063-3.041-3.617-3.687-7.072z" class="s3"/><path id="path4595-5" d="m121.999 797.191c0 3.515-0.358 5.891-2.267 5.827-2.313-0.077-2.325-2.313-2.325-5.827 0-3.515 2.042-7.771 2.267-7.629 0.145 0.092 2.325 4.114 2.325 7.629z" class="s3"/><path id="path4595-58" d="m213.418 759.815c0 3.515-0.358 5.891-2.267 5.827-2.313-0.077-2.325-2.313-2.325-5.827 0-3.515 2.042-7.771 2.267-7.629 0.145 0.092 2.325 4.114 2.325 7.629z" class="s3"/><path id="path4595-4" d="m193.72 881.033c0 3.515-0.358 5.891-2.267 5.827-2.313-0.077-2.325-2.313-2.325-5.827 0-3.515 2.042-7.771 2.267-7.629 0.145 0.092 2.325 4.114 2.325 7.629z" class="s3"/><path id="path4595-0" d="m229.617 875.161c-1.392-3.227-2.004-5.551-0.226-6.249 2.154-0.845 3.051 1.203 4.443 4.43 1.392 3.227 1.202 7.944 0.94 7.903-0.17-0.027-3.764-2.857-5.156-6.085z" class="s3"/><path id="path4595-54" d="m198.192 800.43c1.264-3.28 2.452-5.368 4.21-4.623 2.131 0.903 1.338 2.994 0.075 6.274-1.264 3.28-4.699 6.517-4.858 6.304-0.103-0.138-0.69-4.675 0.573-7.955z" class="s3"/><path id="path4595-54-7" d="m113.295 739.64c1.264-3.28 2.452-5.368 4.21-4.623 2.131 0.903 1.338 2.994 0.075 6.274-1.264 3.28-4.699 6.517-4.858 6.304-0.103-0.138-0.69-4.675 0.573-7.955z" class="s3"/><path id="path4595-54-2" d="m73.56 871.471c1.264-3.28 2.452-5.368 4.21-4.623 2.131 0.903 1.338 2.994 0.075 6.274-1.264 3.28-4.699 6.517-4.858 6.304-0.103-0.138-0.69-4.675 0.573-7.955z" class="s3"/><path id="path4595-54-1" d="m165.508 719.438c2.564 2.404 4.053 4.29 2.702 5.639-1.638 1.635-3.277 0.115-5.842-2.289-2.564-2.404-4.273-6.804-4.016-6.871 0.166-0.043 4.592 1.118 7.156 3.521z" class="s3"/><path id="path4595-54-4" d="m158.792 786.986c-3.259 1.316-5.597 1.873-6.252 0.08-0.794-2.173 1.274-3.022 4.533-4.337 3.259-1.316 7.97-1.016 7.923-0.754-0.031 0.169-2.945 3.696-6.204 5.012z" class="s3"/><g transform="matrix(0.44341057,-0.36760302,0.37998434,0.42896258,-121.61636,408.21953)" id="g4732"><path id="path4690" d="m41.164 136.345c0 3.347-3.957 6.061-8.839 6.061-4.882 0-8.839-2.714-8.839-6.061 0 0 0 0 0 0l8.839 0zM41.164 136.345 41.164 136.345" transform="matrix(0.91284993,0,0,1.1814952,3.587421,526.51618)" class="s4"/><path id="path4690-9" d="m41.164 136.345c0 3.347-3.957 6.061-8.839 6.061-4.882 0-8.839-2.714-8.839-6.061 0 0 0 0 0 0l8.839 0z" transform="matrix(-0.507041,0,0,-1.3950828,45.317443,873.19953)" class="s4"/><path id="path4690-9-9" d="m41.164 136.345c0 3.347-3.957 6.061-8.839 6.061-4.882 0-8.839-2.714-8.839-6.061 0 0 0 0 0 0l8.839 0z" transform="matrix(-0.507041,0,0,-1.3950828,53.639417,873.29868)" class="s4"/></g></g></g></svg>