<svg xmlns:svg="http://www.w3.org/2000/svg" xmlns="http://www.w3.org/2000/svg" xmlns:xlink="http://www.w3.org/1999/xlink" width="300" height="500" id="svg2" version="1.1"><style>.s0{stop-color:#ff1111;stop-opacity:1;}.s1{stop-color:#ff8f11;stop-opacity:1;}.s2{stop-color:#646464;stop-opacity:1;}.s3{stop-color:#969696;stop-opacity:1;}.s4{stop-color:#77aaff;stop-opacity:1;}.s5{stop-color:#005df8;stop-opacity:1;}</style><defs id="defs4"><linearGradient id="linearGradient3931"><stop offset="0" id="stop3933" class="s0"/><stop offset="1" id="stop3935" class="s1"/></linearGradient><linearGradient id="linearGradient3844"><stop offset="0" id="stop3846" class="s2"/><stop id="stop3852" offset="0.3" class="s3"/><stop offset="0.8" id="stop3854" class="s3"/><stop offset="1" id="stop3848" class="s2"/></linearGradient><linearGradient xlink:href="#linearGradient3844" id="linearGradient3860" gradientUnits="userSpaceOnUse" x1="100" y1="198" x2="211.1" y2="195.9"/><radialGradient xlink:href="#linearGradient3931-5" id="radialGradient3937-4" cx="-194.1" cy="129.9" fx="-194.1" fy="129.9" r="67.2" gradientTransform="matrix(0.71024902,0.00296593,-0.01714019,1.1884599,-54.000068,-27.218361)" gradientUnits="userSpaceOnUse"/><linearGradient id="linearGradient3931-5"><stop offset="0" id="stop3933-5" class="s0"/><stop offset="1" id="stop3935-1" class="s1"/></linearGradient><radialGradient xlink:href="#linearGradient3931-1" id="radialGradient3937-1" cx="-194.1" cy="129.9" fx="-194.1" fy="129.9" r="67.2" gradientTransform="matrix(0.71024902,0.00296593,-0.01714019,1.1884599,-54.000068,-27.218361)" gradientUnits="userSpaceOnUse"/><linearGradient id="linearGradient3931-1"><stop offset="0" id="stop3933-52" class="s0"/><stop offset="1" id="stop3935-7" class="s1"/></linearGradient><radialGradient xlink:href="#linearGradient3931-3" id="radialGradient3937-42" cx="-194.1" cy="129.9" fx="-194.1" fy="129.9" r="67.2" gradientTransform="matrix(0.71024902,0.00296593,-0.01714019,1.1884599,-54.000068,-27.218361)" gradientUnits="userSpaceOnUse"/><linearGradient id="linearGradient3931-3"><stop offset="0" id="stop3933-2" class="s0"/><stop offset="1" id="stop3935-2" class="s1"/></linearGradient><radialGradient xlink:href="#linearGradient3931-57" id="radialGradient3937-8" cx="-194.1" cy="129.9" fx="-194.1" fy="129.9" r="67.2" gradientTransform="matrix(0.71024902,0.00296593,-0.01714019,1.1884599,-54.000068,-27.218361)" gradientUnits="userSpaceOnUse"/><linearGradient id="linearGradient3931-57"><stop offset="0" id="stop3933-6" class="s0"/><stop offset="1" id="stop3935-18" class="s1"/></linearGradient><radialGradient xlink:href="#linearGradient3931-9" id="radialGradient3937-7" cx="-194.1" cy="129.9" fx="-194.1" fy="129.9" r="67.2" gradientTransform="matrix(0.71024902,0.00296593,-0.01714019,1.1884599,-54.000068,-27.218361)" gradientUnits="userSpaceOnUse"/><linearGradient id="linearGradient3931-9"><stop offset="0" id="stop3933-54" class="s0"/><stop offset="1" id="stop3935-3" class="s1"/></linearGradient><linearGradient id="linearGradient3931-38"><stop offset="0" id="stop3933-26" class="s0"/><stop offset="1" id="stop3935-27" class="s1"/></linearGradient><linearGradient id="linearGradient3931-5-7"><stop offset="0" id="stop3933-5-8" class="s0"/><stop offset="1" id="stop3935-1-2" class="s1"/></linearGradient><linearGradient id="linearGradient3931-1-8"><stop offset="0" id="stop3933-52-0" class="s0"/><stop offset="1" id="stop3935-7-2" class="s1"/></linearGradient><linearGradient id="linearGradient3931-3-8"><stop offset="0" id="stop3933-2-9" class="s0"/><stop offset="1" id="stop3935-2-2" class="s1"/></linearGradient><linearGradient id="linearGradient3931-57-2"><stop offset="0" id="stop3933-6-0" class="s0"/><stop offset="1" id="stop3935-18-5" class="s1"/></linearGradient><linearGradient id="linearGradient3931-9-2"><stop offset="0" id="stop3933-54-7" class="s4"/><stop offset="1" id="stop3935-3-6" class="s5"/></linearGradient><radialGradient xlink:href="#linearGradient3931-9-2" id="radialGradient4049-7" cx="-98" cy="347.6" fx="-98" fy="347.6" r="102" gradientTransform="matrix(1.2482027,0.00560719,-0.00266344,0.59290423,25.24603,160.07717)" gradientUnits="userSpaceOnUse"/><linearGradient id="linearGradient4102"><stop offset="0" id="stop4104" class="s0"/><stop offset="1" id="stop4106" class="s1"/></linearGradient><radialGradient xlink:href="#linearGradient3931-9-2" id="radialGradient4389" cx="-153.2" cy="256.2" fx="-153.2" fy="256.2" r="26.1" gradientTransform="matrix(1.5335911,-0.94529209,0.80445503,1.3773797,113.97453,-115.22595)" gradientUnits="userSpaceOnUse"/><radialGradient xlink:href="#linearGradient3931-9-2" id="radialGradient4395" cx="5.1" cy="402.1" fx="5.1" fy="402.1" r="114.9" gradientTransform="matrix(0.7193848,-0.00284644,0.00329907,0.68654648,45.349556,281.61752)" gradientUnits="userSpaceOnUse"/><radialGradient xlink:href="#linearGradient3931-9-2-2" id="radialGradient4389-7" cx="-153.2" cy="256.2" fx="-153.2" fy="256.2" r="26.1" gradientTransform="matrix(1.8284255,-1.1306053,0.95911228,1.6473985,134.42653,333.14512)" gradientUnits="userSpaceOnUse"/><linearGradient id="linearGradient3931-9-2-2"><stop offset="0" id="stop3933-54-7-5" class="s4"/><stop offset="1" id="stop3935-3-6-5" class="s5"/></linearGradient><radialGradient r="26.1" fy="256.2" fx="-153.2" cy="256.2" cx="-153.2" gradientTransform="matrix(1.3660405,-0.78364821,0.71656525,1.1418493,173.17695,534.90396)" gradientUnits="userSpaceOnUse" id="radialGradient4412" xlink:href="#linearGradient3931-9-2-2"/><radialGradient xlink:href="#linearGradient3931-9-2-4" id="radialGradient4389-1" cx="-153.2" cy="256.2" fx="-153.2" fy="256.2" r="26.1" gradientTransform="matrix(1.8284255,-1.1306053,0.95911228,1.6473985,134.42653,333.14512)" gradientUnits="userSpaceOnUse"/><linearGradient id="linearGradient3931-9-2-4"><stop offset="0" id="stop3933-54-7-8" class="s4"/><stop offset="1" id="stop3935-3-6-6" class="s5"/></linearGradient><radialGradient r="26.1" fy="256.2" fx="-153.2" cy="256.2" cx="-153.2" gradientTransform="matrix(1.8284255,-1.1306053,0.95911228,1.6473985,251.31348,324.87698)" gradientUnits="userSpaceOnUse" id="radialGradient4412-4" xlink:href="#linearGradient3931-9-2-4"/><radialGradient xlink:href="#linearGradient3931-9-2" id="radialGradient4449" gradientUnits="userSpaceOnUse" gradientTransform="matrix(4.1334815,-0.02629747,-0.43698395,4.0239256,858.21931,-241.10423)" cx="-141.5" cy="303.2" fx="-141.5" fy="303.2" r="26.1"/></defs><metadata id="metadata7"/><g id="layer1" transform="translate(0,-552.36218)"><g id="g3856" transform="matrix(1.4844815,0,0,1.4844815,-72.522359,-435.62666)"><path id="path2985" d="m206.1 85.8c0 0 17.1 219.9 17.1 229.8 0 9.9-31.4 35.9-70.2 35.9-38 0-67.8-25.5-67.9-36.2C85.1 304.7 106.9 85.3 106.9 85.3z" transform="translate(-5.0507627,638.22515)" style="fill:url(#linearGradient3860);stroke:#000"/><path id="path2985-1" transform="translate(0,552.36218)" d="m165.8 125.8 0 22.2-21.2 0 0-22.1-28.3 0 0 22.1-17.7 0 0-22.1-17.1 0 0 22.1 0.1 0c0 0-0.1 17.1 0 24.9 0.1 7.8 29.9 26.6 67.9 26.6 38.8 0 70.2-19.3 70.2-26.6l0-24.6 0.1 0 0-22.5-17 0 0 22.2-11 0 0-22.2z" style="fill:#646464;stroke:#000"/></g><path d="m194.8 860.5c-3 0-6.1 0.3-9.2 1.1-13.6 3.4-36.7 35.5-17.4 45.6-8.1-7.1 2.7-21.2 10-23.8 18-6.4 33.7 12.9 35.7 31.7 2.2 20.5-8.5 39.3-23.8 49.1l-16.6 0c-0.2-7.1-1-12.3-2.2-20.3-2.5-15.5-18.8-39.1-40.4-39.1-2.2 0-4.5 0.2-6.9 0.8-5 1.2-11.8 7.2-15.6 13.8-6.9-16.9-22.5-35.2-41.9-35.2-2.5 0-5.1 0.3-7.7 1-11.4 2.8-30.8 29.7-14.6 38.1-6.8-5.9 2.3-17.7 8.4-19.8 15.1-5.3 28.3 10.8 29.9 26.5 1.4 13.2-3.6 25.5-11.8 34.3l-25.7 0c0 46.6 46.5 84.4 103.8 84.4 57.3 0 103.8-37.8 103.8-84.4l-0.9 0c0.4-21.8-0.4-30.2-3-47.5-3.3-22.4-25.1-56.4-54.1-56.4zm-71.2 59.5c11.3-0.2 20.4 11.4 21.7 22.8 0.9 7.8-1.1 15.2-5 21.5l-25.7 0c0-13.4-0.7-20.3-2.6-32.9-0.2-1.4-0.5-2.8-0.9-4.3 2-3 5.1-5.5 7.6-6.3 1.7-0.6 3.3-0.8 4.9-0.9z" id="path4358-0" style="fill:url(#radialGradient4449);stroke-width:1.6;stroke:#000"/></g></svg>