<svg xmlns="http://www.w3.org/2000/svg" xml:space="preserve" width="1250" height="1250" viewBox="0 75 1250 1250">
  <defs id="defs20937">
    
    <filter id="filter404" width="1" height="1" x="0" y="0" style="color-interpolation-filters:sRGB">
      <feGaussianBlur result="result6" stdDeviation="5"/>
      <feComposite in="SourceGraphic" in2="result6" operator="atop" result="result8"/>
      <feComposite in="result8" in2="SourceAlpha" operator="over" result="result9"/>
      <feColorMatrix result="result10" values="1 0 0 0 0 0 1 0 0 0 0 0 1 0 0 0 0 0 1 0"/>
      <feBlend in="result10" in2="result6" mode="normal"/>
    </filter>
  </defs>
  <style id="style20939" type="text/css">
    #pathsBG path{stroke-linecap: round;}.st1{fill:#dc3d96}.st13{fill:#ee3981}.st21{fill:#f1da10}.st25{fill:#4f421a}.st32{fill:#f9ef5e}#paths path{fill:none;stroke-width:15}#pathsBG path{fill:none;stroke:#000;stroke-width:25}.line0{stroke:#a32929}.line1{stroke:#a37a29}.line2{stroke:#7aa329}.line3{stroke:#29a329}.line4{stroke:#29a37a}.line5{stroke:#297aa3}.line6{stroke:#2929a3}.line7{stroke:#7a29a3}.line8{stroke:#a3297a}#paths .line2{stroke-dasharray:8 4}
  </style>
  <g id="g353" style="filter:url(#filter404)">
    <path fill="#00974a" d="M1086 955c15 40-57-3-78-21-100-82 103-39 78 21z" class="st25"/>
    <path d="M1048 691c-13 23-9-4-29 31 40 42-41 15 3-26 8-8 23-14 26-5zm62 25c-15 50-50-59-14-25 5 8 8 17 14 25z" class="st13"/>
    <path fill="#94782d" d="M1261 441c-8 79-87 38-128 60-51 6-120-61-137-101-2-20 86-64 111-76 84-7 140 67 154 117z"/>
    <path fill="#00974a" d="M1089 254c-76-6-168-39-218-105-3-63-73-192 34-203 65 19 3 61 12 89 64 13-25 22-16 30 14 67 82 89 133 42 25-3 49 77 78 15 44-15 168-103 175-2-67 47-90 86-198 134z"/>
    <path fill="#f15a2c" d="M56 1023c-43-18-76 66-124 11-11-68 16-139 53-195 12-39 60-13 92-21 58 33-6 150-21 205z"/>
    <path fill="#f15b2a" d="M317 503c-22-10-72-26-38-38-19-14 23-10-17-18 31-28 84-11 107 3 44 25 46-21 34-64 30-1 41 56 91 30-21-38 92-22 66-87 23-8 100-46 107-44 73 2 83 227 87 320-7 47-134 166-119 204-130 58-282 15-254-24 36-35 48-211-5-218-17-26-38-52-59-64z"/>
    <path d="M384 890c-5 119-99 182-162 211-76 36-110-36-141-107 20-105 17-175 96-235 39 22 120 30 153 42 51 56 59 66 54 89z" class="st32"/>
    <path d="M579 213c-3 42-85 64-26 89-57 45-139 4-202 11-23 33-61-6-93 18 27-35 77-64 126-65 34-31-50 11-57-33-78-12 32-45 60-52 17-47 31-89 6-129 26-20 58-122 81-46-12 46 66 108 35 127 38 15-16 80 45 53 12 3 25 14 25 27z" class="st1"/>
    <path fill="#991d53" d="M1281 805c-40 28-118 16-109-28-22-22-34-40-64-54 109-109 107-173 107-231 17-29 2-31 37-53 242 37 232 299 29 366z"/>
    <path fill="#e8128c" d="M1123 337c1-50-57-118-6-151 54 1 58-75 124-51 58 13 113 93 153 148 58 63 0 147-79 142-46-1-83 41-101-23-21-34-47-57-91-65z"/>
    <path d="M1346 1031c4 71-76-64-92 16-8 40 68 64 0 94 20 40-72 78-31 19 25-37-7-106-53-116-13-41-51-15-67-59-41-11-30-89-7-125 12 35 70 86 122 74-24 55 106 47 128 97z" class="st21"/>
    <path d="M1129 337c-31-6-119 28-123 60 10 55 95 131 139 73 70-10 96 36 64 101-14 71-50 121-103 152-4-73-145-24-78 21-31 69 117 78 54 155-1 84-51-32-93 14-69-25-35-130-127-134-56 15-131 122-184 54-54 11-58-68-46-93 55-26-38-57 6-91 51 27 63-42 65-76 58-67 4-161-48-207-28-33 53-61 12-85 13-40 54-116 54-34 54-2-30-78 41-76 40 10 30 5 54-14 33 16 24 15 54-10 65 44 145 62 223 72 19 36 26 79 36 118z" class="st25"/>
    <path d="M1197 1254c-32 57-99-32-148-33-3-66 96 0 133-42 57-14-24 53 15 74z" class="st21"/>
    <path d="M904 1033c-10 42-4 94-40 99-65 22-4-87-45-112 26-9 76-62 85 13zm-12-110c-3 48-33 65-47 16-11-39 61-94 46-24z" class="st13"/>
    <path fill="#f5865d" d="M574 913c-2 61-136 41-144 92-20-20-42-4-98 22-53 0-24-84-6-112 52-70 132-86 211-49 22 4 60 24 37 47zm72-103c-14 27-86 19-74 80-27 81-120 15-157-24-31-24-72-78-3-66 62 35 132 43 189-5 16 3 28 16 45 15z"/>
    <path fill="#dc3d96" d="M432 662c3 49-35 99-51 142-62 11 16-73 4-106 6-21 10-46 25-15-9-47-19-77-50-116 49-19 64 52 72 95z" class="st1"/>
    <path fill="#b33ccd" d="M430 1004c-45 33-52 82-39 123-50 12-39 73-93 68-44 72-129-4-192 30-81 68-49-110-140-77-111-19 26-101 42-149 48-21 139-11 136 69 24 36 64 39 95-14 57-26 121-37 174-64l9 5z"/>
    <path fill="#003d2b" d="M377 807c20 15 50 53-1 64-43 62-26-37-75-20-11-27 30-75 76-44z"/>
    <path fill="#a72f24" d="M176 758c2 63-52 102-45 169-5 43-82 106-83 40 9-38 38-68 49-99-33-43-133-13-104-84-24-34 9-56 46-48 12-43 82 25 121 15l8 4z"/>
    <path d="M-14 826z" class="st32"/>
    <path d="M936 841c35-11-27-44 0 0z" class="st13"/>
  </g>
  <g id="pathsBG">
    <path d="m198 1167-46-69m0 0q0-106 75-106m0 0 6-146m0 0 175-175m0 0 92-117m0 0 98-92m0 0 73-137m0 0 185 19m0 0 192 12m0 0 102 63" class="line0"/>
    <path d="M408 671q-304-254 48-342m0 0 63-44m0 0 152 40m0 0 12 102m0 0 36 192m0 0-11 221m0 0-127-9m0 0-81-39m0 0-92-121" class="line1" style="stroke:#ddd"/>
    <path d="M48 1165q-48 252 1058 22m0 0q42-145-75-252m0 0-323-95m0 0-181 93" class="line2"/>
    <path d="M527 933q-208 421-479 232" class="line2"/>
    <path d="M1031 935q-52-39-52-95m0 0 11-65m0 0 37-65m0 0 192-152m0 0-69-139" class="line3"/>
    <path d="m1219 558-179-96m0 0-142-47m0 0-215 12m0 0-85 35m0 0-79-45m0 0-63-88" class="line4" style="stroke:#555"/>
    <path d="m233 846 142 54m0 0 152 33m0 0 54-102m0 0 138-212m0 0 185 68m0 0 123 23m0 0 13-248m0 0 8-106" class="line5"/>
    <path d="m990 775-90-17m0 0 4-71m0 0-6-272m0 0-42-71" class="line6"/>
    <path d="m48 1165 104-67m0 0q75 0 75-106m0 0 148-92m0 0 33-229" class="line7" style="stroke:#ABA"/>
    <path d="m1106 1187-75-252m0 0q11-81-52-95m0 0-79-82m0 0L719 619m0 0L598 462" class="line8"/>
  </g>
  <g id="paths">
    <path d="m198 1167-46-69m0 0q0-106 75-106m0 0 6-146m0 0 175-175m0 0 92-117m0 0 98-92m0 0 73-137m0 0 185 19m0 0 192 12m0 0 102 63" class="line0"/>
    <path d="M408 671q-304-254 48-342m0 0 63-44m0 0 152 40m0 0 12 102m0 0 36 192m0 0-11 221m0 0-127-9m0 0-81-39m0 0-92-121" class="line1" style="stroke-dasharray:6 4"/>
    <path d="M48 1165q-48 252 1058 22m0 0q42-145-75-252m0 0-323-95m0 0-181 93" class="line2"/>
    <path d="M527 933q-208 421-479 232" class="line2"/>
    <path d="M1031 935q-52-39-52-95m0 0 11-65m0 0 37-65m0 0 192-152m0 0-69-139" class="line3"/>
    <path d="m1219 558-179-96m0 0-142-47m0 0-215 12m0 0-85 35m0 0-79-45m0 0-63-88" class="line4" style="stroke-dasharray:6 4"/>
    <path d="m233 846 142 54m0 0 152 33m0 0 54-102m0 0 138-212m0 0 185 68m0 0 123 23m0 0 13-248m0 0 8-106" class="line5" style="stroke-dasharray:8 4"/>
    <path d="m990 775-90-17m0 0 4-71m0 0-6-272m0 0-42-71" class="line6"/>
    <path d="m48 1165 104-67m0 0q75 0 75-106m0 0 148-92m0 0 33-229" class="line7" style="stroke-dasharray:6 4"/>
    <path d="m1106 1187-75-252m0 0q11-81-52-95m0 0-79-82m0 0L719 619m0 0L598 462" class="line8" style="stroke-dasharray:8 4"/>
  </g>
</svg>
