<svg height='100px' width='100px' xmlns="http://www.w3.org/2000/svg" viewBox="0 0 364.1 364.1"><style>.a{fill:#f00;}</style><path d="M354.1 98.5C343.8 76.9 317.2 74 299.1 61.7 258.4 40.9 218.2 19.3 176.9-0.3 158.6 1.2 142.3 20.3 124 8.3 107.1 13.4 96.8 39.8 76.4 26.9 55.2 27.9 47.8 58.6 23.8 52.7 2.5 62.4 9.9 90.8 8.7 109.5c1.1 78.7-1.5 157.5 1.1 236.1 8.4 24 38.2 18.9 58.2 18.5 49.6-0.1 99.2 0.9 148.8-0.6 23.5-8.6 25.8-36.7 38.5-54.9 32.9-64.9 66.7-129.2 98.9-194.4 1.5-5.1 1.5-10.6-0.2-15.6zM264.3 69c8 18.8-2.7 38.3-3.2 57.5C253.1 179.2 245.2 231.9 237.3 284.6 237.2 214.4 237.4 144.1 237.1 73.9 221.4 50.9 257.9 59.6 264.3 69Zm11.3 14.9c-1.5-8.9-4.8-25.2 8.8-15.7 22.8 0.5 35.3 28.3 20.9 45.6C284.8 175.1 264 236.5 243.4 297.8 254.1 226.5 264.8 155.2 275.6 83.8ZM167 8.9c22.3-1.1 39 17 58.9 24.2 12 6.4 34.5 17.2 40.3 21C229.7 41.7 193.2 29.5 156.7 17.2 159 13.3 162.7 10.3 167 8.9ZM109.7 29.2C120.8 6.2 148.3 23.5 165.6 28.6 187 35.8 208.5 43 230 50.3 189.5 44.2 149.1 38.1 108.7 32Zm-44.8 9.8c20.1-8.1 41.2 3.4 61.8 3.8 14.1 2.3 39.4 5.5 46.8 7.3-38.6 0-77.1 0-115.7 0 0.9-4.4 3.4-8.5 7.1-11.2zm146.1 317.2C151.4 356 91.8 356.3 32.3 356 8.4 348.6 18.9 318.4 16.8 299.8 16.8 224.5 16.6 149.1 16.9 73.7 22.4 52.3 48.9 58.8 65.2 58.2c49.5 0 99-0.2 148.5 0.1 19.4 5.7 16.3 29 15.3 44.8 0.4 78.9 0.3 157.9 0.1 236.9-0.9 8.9-9.3 16.4-18.3 16.2zm134.5-241.2c-31 60.5-62 121-93.1 181.6 22.3-66.5 44.9-132.9 67-199.4-6.8-25.9 32.2-5.7 28.1 10.6l-0.6 3.7z" class="a"/><path d="m147.3 187.8c7.4-22.3-26.9-41.1-42-23.3-3.2 19.8-25.3 33.4-23.3 53.1 4 17.9 26.3 19.3 37.8 19 4.9 10.1-22.2 18.9-1 21.3 11.1 3.3 27.3-7.7 9.3-12.4-5.2-20.1 33-1.3 34.3-23.6C168.7 209.1 161.4 191.4 147.3 187.8Zm-7.5 40.6c-11-7.7-23.8-8.7-32.9 0.6-23.9-1.3-16.9-36.4-0.7-37.1-6.1-19 18.6-39.2 30.4-18.1 0.6 14.1 7.1 22.9 17.8 30.1 5.7 10.5-1.8 25.8-14.6 24.5z" class="a"/><path d="M68.2 84.8C66.8 55.1 26.1 74 26.8 95.6 26.3 109.7 45.9 114.1 46.5 126.5 59 132.3 64.3 117.4 60 116.5 76.1 115.8 86.5 91.9 68.2 84.8Zm-6.2 22.3C57.2 95.8 27.3 114.4 40.8 94.1 44 85.7 53.4 66.6 60.2 83.8 54 94 80.2 96.4 65 106.7Z" class="a"/><path d="m203 299.1c-11.3 2.7 8.1-16.4-6-11.5-6.9-6.1-19.6 7.2-8 10.4-26.6-1.2-22.2 33.1-6.1 44.2 17.7 13.2 35.8-12.6 35.3-29.3C217.7 305.1 210.8 298.7 203 299.1Zm0.9 23.6c-3.1 6.1-10.8 26.7-15.1 11.9 1.9-9.6-23.5-25.3-1.5-23.5 10.3-6.3 35.7-0.7 16.6 11.7z" class="a"/></svg>