<svg height='100px' width='100px' xmlns="http://www.w3.org/2000/svg" viewBox="0 0 60.2 94.9"><path d="m11.5 94.1c-1.1-1.2-1.2-2.5 0.4-3.2 1.3-1.1 3.3-1.6 3.6-3.3 0.8-3 1.6-6 2.6-9 0.8-3 1.5-6.1 2.3-9.1 0.6-2-2.5-0.2-2.1-2.5-0.5-1.9-0.1-4 0.7-5.7 0.7-1.6 0-3.1-0.3-4.4-0.7-2.9-1.7-5.8-2.6-8.6-0.5-2.5-0.6-5.1-1.6-7.5 0-1.1-2.5-2.2-0.9-0.8 1 0.4-1.3 0.6-1.7 1.1-1.5-0.2-2.7 2.2-4.1 1.6-0.6-1.9-1.8-0.5-2.4 0-0.2-2.5-2-0.5-2.4 0.5-1.8-1.2-2.3-3.3-2.3-5.3-0.4-2 0.8-3.7 1-5.7 0.9-2.5 1.2-5.1 1.6-7.7 0.2-2.7 0.1-5.4 0.7-8.1 0.3-3 0.6-6 1.2-8.9 0.8-1 1-2.8 1.8-3.6 1.3-2 3.7-3.1 6.1-3.2 1.8-0.4 4.1 0 5.2 1.6 1 1.2 2.5 2.3 2.6 3.9 0.9 1.5 1.2 3.1 1.1 4.9 0.1 0.6-0.1 1.5 0.1 2 3.9 0 7.9-0.4 11.7 0.4 2 0.5 4.1 0.8 6.1 1.2 2 0.2 6.7 1.3 9.4 2 1.9 0.4 3.4 1.5 4.9 2.8 1.5 0.7 2.1 1.9 3.1 3.3 1.6 2.2 2.5 5.1 2.3 7.9-0.4 2.2-1.3 4.5-3.2 5.9-1 0.9-6.4 6.6-7.5 7.4-1.4 1.1-5.6 4.1-7.2 5.2-1.5 0.8-3 1.8-3.9 3.3 0 1.9 2.5 2.9 3.2 4.5 0.3 0.4 0.8 2.8 1.4 3.8 0.8 3.3 1.3 6.8 2 10.1 0.5 1.8 0.5 4.4 2.9 4.6 1.9 0.5 2.8 2 3.9 3.4 0.9 1.2 2.4 2.1 3.1 3.1-1.3 1.6-3.1-1.1-4.1-2.1-1.2-0.5-0.8 2.6-0.7 3.5 0.1 1.9 0.9 3.5 1 5.3-0.2 1.7-1.9 2.5-2.7 3.6-0.7 1-1.6 1.1-2.6 1.8-2.4 1-4.9 0-3.4-2 1.1-1 1.5-2.7 1.6-4.2-0.6-1.4-1.3-2.9-1.9-4.3-0.5-2.1-2.2-3.8-2.2-6-0.6-2.8-1.6-5.6-3.1-8-1-1.8-1.9-3.6-2.9-5.4-0.6-0.8-0.6-1.7-1.3-2.6-0.9 1.2-0.7 2.6-1.3 4.5-0.5 1.7-3.5 7-4.3 8.4-0.8 1.1-1.5 2.5-1.8 3.9-0.9 1.8 0.7 3.7 1.9 4.9 0.8 1.5-0.7 3.2-0.7 4.9-0.6 1.1 0 3.7-1.1 3.9-1.9-0.9-0.1-3.1-0.2-4.6 0.7-2.3-1.8-0.4-2.7 0.3-1.3 1.5-2.7 3.1-2.9 5.1-1.3 1.5-3.9 1.3-5.8 1.5-0.6 0-1.3 0.2-1.8-0.2zm11.1-36.7c0.3-2.7-0.1-5.6 0.7-8.3 0.4-1 0.8-1.1 1.6-2.2 0.9-1.3 2-2.8 3.1-4.1 0.8-1.5 1.5-2.5 2.7-3.7 0.9-1.6 2.4-3.2 3.3-4.7 1.1-1.4 1.2-1.9 2.3-3.3 0.7-1.4 1.8-2.9 2.2-4.6-1.6-0.7-3.7-0.3-5.5-0.1 0.3 2.3 0.3 4.8-0.3 7.1-0.4 1.1-1 1.7-1.5 2.3-1.5 0.6-3.5-0.2-4.9-1-1.4-1.2-2.8 1.8-4.7 1.4-1.1 0.2-2.5-1.4-1.7 0.6 0.6 2.5 2 4.8 2 7.4 0.3 2.2 0 4.5 0.4 6.6-0.2 2.1 0 4.3 0 6.4 0 0.1 0.1 0.8 0.3 0.4z" style="fill:none;stroke:#f00"/></svg>