<?xml version="1.0" encoding="UTF-8"?>
<svg height='100px' width='100px' version="1.1" viewBox="0 0 125.64 125.42" xmlns="http://www.w3.org/2000/svg" xmlns:cc="http://creativecommons.org/ns#" xmlns:dc="http://purl.org/dc/elements/1.1/" xmlns:rdf="http://www.w3.org/1999/02/22-rdf-syntax-ns#">
<metadata>
<rdf:RDF>
<cc:Work rdf:about="">
<dc:format>image/svg+xml</dc:format>
<dc:type rdf:resource="http://purl.org/dc/dcmitype/StillImage"/>
</cc:Work>
</rdf:RDF>
</metadata>
<path d="m125.26 0.37737-35.42 30.787l-6.7852-6.7852-4.9629 4.9648 18.215 18.215 4.9629-4.9648-6.7969-6.7969z" fill="none" stroke="#ffffea"/>
<path d="m23.622 72.524-6.625 6.625 11.574 11.574-16.951 16.965-4.7773-4.7812a3.59 3.59 0 1 0 -5.0684 5.0703l15.889 15.891a3.57 3.57 0 0 0 2.5312 1.0488 3.59 3.59 0 0 0 2.5293 -6.1191l-4.4688-4.4707 16.961-16.961 11.268 11.27 6.625-6.625z" fill="none" stroke="#ffffea"/>
<rect class="cls-4" transform="rotate(-45)" x="-34.575" y="75.969" width="69.05" height="25.76" fill="none" stroke="#ffffea"/>
<rect class="cls-2" transform="rotate(-45.01)" x="16.283" y="75.961" width="18.178" height="25.761" fill="#f00" stroke="#ffffea"/>
<rect class="cls-6" transform="rotate(-45)" x="19.591" y="75.963" width="2.35" height="8.91" fill="none" stroke="#ffffea"/>
<rect class="cls-6" transform="rotate(-45)" x="12.404" y="75.962" width="2.35" height="8.91" fill="none" stroke="#ffffea"/>
<rect class="cls-6" transform="rotate(-45)" x="5.2141" y="75.958" width="2.35" height="8.91" fill="none" stroke="#ffffea"/>
<rect class="cls-6" transform="rotate(-45)" x="-1.9801" y="75.964" width="2.35" height="8.91" fill="none" stroke="#ffffea"/>
<rect class="cls-6" transform="rotate(-45)" x="-9.1702" y="75.97" width="2.35" height="8.91" fill="none" stroke="#ffffea"/>
<rect class="cls-6" transform="rotate(-45)" x="-16.357" y="75.958" width="2.35" height="8.91" fill="none" stroke="#ffffea"/>
<rect class="cls-6" transform="rotate(-45)" x="-23.555" y="75.971" width="2.35" height="8.91" fill="none" stroke="#ffffea"/>
<rect class="cls-6" transform="rotate(-45)" x="-30.752" y="75.96" width="2.35" height="8.91" fill="none" stroke="#ffffea"/>
</svg>
