<svg xmlns="http://www.w3.org/2000/svg" width="1024" height="620" viewBox="0 0 270.93 164.04"><path d="M68 25a22 22 0 0 0-19 12 9 9 0 0 0-2-1c-3 0-5 1-6 3a7 7 0 0 0-3 5 8 8 0 0 0 0 1l1 3a7 7 0 0 0-1 2 22 22 0 0 0-8 6l-4-1a8 8 0 0 0-9 6l-9 2-4-1-4 1-.587 56.013 271.74-5.495L271 62a9 9 0 0 0-3 0l-3.507.878L262 57c-2-2-4-3-7-3l-1-2c-2-2-4-3-7-3a10 10 0 0 0-10 9l-5 1-2-3-6-2a9 9 0 0 0-7 3c-4-4-9-5-15-5-1-.064-2-.064-3 0l-6-3-4 1a5 5 0 0 0 0-1l-2-5-6-3a9 9 0 0 0-2 0l-2-3-6-2-6 2-2 4c-4 0-7 2-10 4l-5-1-6 2-2 4a24.012 24.012 0 0 0-5 0h-1l-3-4-6-2a7 7 0 0 0-6 2l-3-4c-4-4-9-6-15-6l-2-2c-2-2-4-2-6-2h-2c0-2-1-4-3-5-1-2-3-2-6-2l-4 1c-3-2-6-2-10-2z" fill="#e6f4fa"/><g transform="matrix(.3379 .034423 -.033664 .25574 112.96 185.77)"><path d="m356-352-1 24h43l-5-21-37-3m-83 24-1-24-37 3-2 21z" fill="#a4afaf"/><path d="m288-381 3 53h45l4-56z" fill="#5b6666"/><path d="M277-396v68h14l-3-53 51-3-3 56h14v-70l-73 2m-36-31 2 16 13-2-2-15-3-5-5-1q-2 0-4 3-2 2-1 4m88 12-3-14h-24l-5 15h-7l-5-15h-8v27l73-4v-23h-12l-2 14h-7m58-17-5-3-6 2q-3 2-3 5l-3 20 16 2 3-20z" fill="#7e8787"/><path d="m235-510-16 61q20-15 47-11l-31-50m174 61-16-61-31 50q27-4 47 11z" fill="#d26f49"/><path d="M277-429h-9l4 77 1 24h4v-101m73 0v101h5l1-24 4-77z" fill="#767e7e"/><path d="m212-443 14 18 9 76 37-3-4-77v-6l9-22-3-1-8-2q-27-4-47 11l-7 6m31 32-2-16q-1-2 1-4 2-3 4-3l5 1 3 5 2 15-13 2m107 13v-8l-73 4v6l73-2m7-61-6 2 9 22v6l-4 77 37 3 8-76 15-18-7-6q-20-15-47-11l-5 1m25 24 5 3 2 6-3 20-16-2 3-20q0-3 3-5z" fill="#95a1a1"/></g><path d="M14 96h1l3 1-4-17-3 16z" fill="#448c5e"/><path d="M14 96v1l-1 3h3l-1-3v-1h-1z" fill="#6d503d"/><path d="M73 109h2l5 1-6-21-6 20z" fill="#448c5e"/><path d="m73 109-1 2v4h4l-1-5v-1h-2z" fill="#6d503d"/><g transform="matrix(.15554 0 0 .20404 79.023 136.42)"><path d="m390-185 10 1 20 1-26-84-21 82z" fill="#448c5e"/><path d="m390-185-1 7-1 15h13.997l-1-16-1-5-9.997-1z" fill="#6d503d"/><g transform="matrix(1.6857 -.17352 .22762 1.2851 -882.74 436.16)"><path d="m761-328-8-36-47-1-5 37z" fill="#a4afaf"/><path d="m696-493 10 18v110l47 1v-110l7-17-9-5q-23-9-47-1l-8 4m26 37v-15q0-3 2-5t5-2q4 0 6 2t2 5v15z" fill="#95a1a1"/><path d="M722-471v15h15v-15q0-3-2-5t-6-2q-3 0-5 2t-2 5z" fill="#7e8787"/><path d="m727-554-23 57q24-8 47 1z" fill="#d26f49"/></g></g><path d="M253 109c-10.667 4.667-21.333 5-32 1l-31-11c-10.667-2.667-21.333-3-32-1s-21 5.333-31 10-20.333 7.333-31 8c-11.333 0-22.333-2-33-6-10-4-20.333-7-31-9-10.667-2.667-21.333-2.667-32 0l-.586 63.236 271.73.147-.082-63.41z" fill="#b8d0a6"/></svg>