<svg xmlns="http://www.w3.org/2000/svg" width="931" height="313" viewBox="0 0 271 91"><g fill="#d4e7c5"><path d="M212.7 32a65 65 0 00-16.3 2.4v30.3h74.7V46.5A91 91 0 01260 43a266.5 266.5 0 00-31-9.3A65 65 0 00212.8 32zM95.8 29.7c-4 0-8 .5-12.2 1.3a130.4 130.4 0 00-31 10.5 73.5 73.5 0 01-31.7 7.3 90.4 90.4 0 01-21-2.3v18.2h196.5V34.4a220.8 220.8 0 00-18.2 7.5 39.7 39.7 0 01-32 1 503.3 503.3 0 00-30.5-10.4c-6.6-2-13.3-3-20-2.9z"/><path d="M35.7 55.6h233V80h-233z"/></g><path d="M107 67.02h-.7v7.81q0 .47.3.82.2.35.6.35.4 0 .4-.35.2-.35.2-.82V66.9h-.8z" fill="#9c7b53"/><path d="M110 43.2q.1-2-.8-3.2-1-1.4-2.4-1.4-1.3 0-2.3 1.4-1 1.3-1 3.2v19.6q0 1.9 1 3.2.7 1 1.6 1.2l.8.1h.8q1-.4 1.6-1.3 1-1.3 1-3.2z" fill="#537b3e"/><path d="m208.6 61-1-.23v10.66q0 .57.3.91.2.46.7.46t.7-.46q.3-.34.3-.91V60.77z" fill="#9c7b53"/><path d="M213 28.6q0-2.5-1.2-4.3-1.3-1.8-3.1-1.8-1.9 0-3.2 1.8-1.2 1.8-1.3 4.3V55q0 2.4 1.3 4.2 1 1.2 2.1 1.6l1 .2q.6 0 1.1-.2 1.2-.4 2-1.6 1.3-1.8 1.4-4.2z" fill="#597b3e"/><path d="M253 68.5q-15.7 7.3-32 1.1-15-5.6-30.5-10.4-15.9-4.8-32.1-1.5Q142 61 127.4 68q-15 7.3-31.7 7.4-16.7.2-32.2-5.6-15.2-5.6-30.9-9.4-16.4-4-32.6.6v30.4h271V61q-9.2 3.3-18 7.5z" fill="#b8d0a6"/><path d="M19 56.15h-1.3v10.44q0 .7.4 1.16.4.35 1 .35t.8-.35q.4-.35.4-.93V56.03z" fill="#9c7b53"/><path d="M24 24.1q0-2.4-1.4-4.1-1.6-2-3.7-2-2.2 0-3.7 1.9-1.5 1.6-1.5 4.1v26.3q0 2.4 1.5 4.2 1 1.3 2.4 1.7H20q1.3-.5 2.4-1.7 1.4-1.8 1.5-4.2z" fill="#597b3e"/></svg>