<?xml version="1.0" encoding="utf-8"?>
<!DOCTYPE svg PUBLIC "-//W3C//DTD SVG 1.1//EN" "http://www.w3.org/Graphics/SVG/1.1/DTD/svg11.dtd">
<svg version="1.1" id="Layer_1" xmlns="http://www.w3.org/2000/svg" xmlns:xlink="http://www.w3.org/1999/xlink" x="0px" y="0px" width="460px" height="160px" viewBox="0 0 460 160"><path d="M445.4,15.2c-16.0,4.9-70.0,49.5-70.4,49.6l-3.7,29.8c15.0,16.4,39.6,41.7,62.9,58.4 C405.2,86.2,424.5,60.4,445.4,15.2z"/><path d="M118.6,12.3c-55.1-11.1-105.9,74.1-107.6,88.9c17.0,20.8,41.6,33.5,70.0,40.4l0.2-0.3 c53.4-17.0,63.0-85.0,61.8-98.6S126.7,14,118.6,12.3z M91.8,87.6c-12.1,0-22.0-8.7-22.0-19.5 c0-10.7,9.8-19.5,22.0-19.5c12.1,0,22.0,8.7,22.0,19.5C113.8,78.9,103.9,87.6,91.8,87.6z"/><polygon points="361,87.4 153.6,87.2 157.3,63.9 362,80.9 "/><path d="M195.3,90.1c0-32.7,9.3-62.4,24.5-84.0c-26.4,6.1-46.5,38.5-46.5,77.5 c0,33.9,15.2,62.8,36.7,73.8C200.7,138.2,195.3,115.0,195.3,90.1z"/><path d="M235.5,88.6c0-27.2,7.8-52.0,20.4-69.9c-21.9,5.1-38.7,32.0-38.7,64.5 c0,28.2,12.7,52.3,30.5,61.4C240.0,128.7,235.5,109.4,235.5,88.6z"/><path d="M275.7,87.2c0-21.6,6.1-41.2,16.2-55.5c-17.4,4.0-30.7,25.4-30.7,51.1 c0,22.4,10.1,41.5,24.2,48.7C279.3,119.0,275.7,103.7,275.7,87.2z"/><path d="M316.0,85.8c0-16.0,4.5-30.5,11.9-41.0c-12.9,3.0-22.7,18.8-22.7,37.8 c0,16.5,7.4,30.7,17.9,36.0C318.6,109.3,316.0,97.9,316.0,85.8z"/><path d="M343.2,84.3c0-10.3,2.9-19.7,7.7-26.6c-8.3,1.9-14.7,12.2-14.7,24.5 c0,10.7,4.8,19.9,11.6,23.3C344.9,99.6,343.2,92.2,343.2,84.3z"/></svg>
