<?xml version="1.0" encoding="utf-8"?>
<!DOCTYPE svg PUBLIC "-//W3C//DTD SVG 1.1//EN" "http://www.w3.org/Graphics/SVG/1.1/DTD/svg11.dtd">
<svg version="1.1" id="Layer_1" xmlns="http://www.w3.org/2000/svg" xmlns:xlink="http://www.w3.org/1999/xlink" x="0px" y="0px" width="360px" height="180px" viewBox="0 0 360 180"><path d="m345.7,74.1c-8.4,2.2 -16.8,4.8 -25.8,4.2c-10.0,0.8 -19.8,-2.9 -29.7,-4.9c-9.5,-2.0 -19.2,-6.5 -28.8,-3.4c-58.4,13.4 -116.9,26.5 -175.3,40.1c-6.8,2.8 -14.4,4.7 -20.9,8.1c-6.5,8.4 -10.6,18.7 -18.3,26.1c-8.5,5.2 -18.6,7.3 -28.8,7.7c3.5,3.4 6.5,8.0 10.4,10.8c5.8,0.7 12.0,4.1 17.3,0.4c6.9,-1.9 12.5,-6.0 17.9,-10.5c4.9,-3.4 6.9,-9.7 10.0,-14.7c2.1,-4.2 3.2,-9.7 6.1,-13.1c39.6,-9.7 78.9,-20.4 119.0,-28.5c23.8,-5.1 47.9,-9.3 71.9,-14.0c10.1,7.5 21.8,12.2 33.0,17.5c7.5,1.5 15.1,2.7 22.6,1.3c4.7,0.3 8.7,-1.3 12.2,-4.2c3.8,-2.7 6.9,-6.8 9.5,-10.5c0.5,-4.3 2.5,-9.0 -2.1,-11.9l-0.4,-0.4l0,-0.0z" fill="#0008" /><path d="m315.5,2.8c9.4,2.7 20.9,12.8 22.3,19.5c1.3,6.7 0.2,14.0 -3.0,19.4c-2.2,3.6 -2.9,5.8 -2.4,7.5c0.3,1.3 4.0,6.0 8.1,10.4c8.0,8.6 11.3,14.0 12.5,20.3c1.0,6.0 -2.6,13.8 -9.0,18.7c-7.6,5.9 -14.6,8.0 -25.3,7.7c-12.6,-0.3 -24.9,-4.6 -40.7,-14.3l-7.6,-4.6l-21.2,3.9c-19.5,3.6 -28.5,5.3 -57.6,11.2c-30.7,6.1 -105.8,24.3 -108.3,26.2c-0.6,0.4 -1.8,3.2 -2.5,6.0c-4.3,16.2 -25.5,34.7 -41.1,36.0c-9.8,0.8 -18.4,-4.1 -24.4,-14.3c-2.3,-4.0 -2.8,-6.0 -3.3,-14.6c-0.4,-7.3 -0.1,-11.6 0.9,-16.2l1.5,-6.3l-3.1,-4.0c-13.7,-17.5 -11.2,-35.6 6.2,-44.2c3.2,-1.5 5.8,-1.9 11.6,-1.7c9.7,0.3 14.0,1.7 28.1,8.8l11.6,5.9l22.7,-3.4c12.5,-1.8 28.3,-4.3 35.1,-5.5c11.3,-1.9 19.0,-3.3 58.5,-10.6c7.3,-1.3 27.9,-5.6 45.6,-9.5c31.9,-6.9 32.3,-7.0 35.6,-10.6c1.9,-2.1 4.6,-7.1 6.5,-12.0c5.5,-14.7 12.9,-24.2 22.0,-28.4c4.8,-2.2 15.4,-2.9 20.7,-1.3zm-19.6,7.8c-7.8,4.4 -14.3,14.2 -19.4,29.4c-1.8,5.4 -6.1,10.8 -10.3,12.9c-3.4,1.7 -40.0,10.0 -57.7,13.1c-7.0,1.2 -13.1,2.4 -13.4,2.6c-1.0,0.6 -31.4,6.3 -51.9,9.8c-10.9,1.8 -21.8,3.7 -24.2,4.1c-9.2,1.7 -47.9,7.4 -50.1,7.4c-1.2,-0.0 -6.7,-2.4 -12.1,-5.3c-11.9,-6.4 -19.7,-9.0 -27.8,-9.2c-6.9,-0.2 -10.4,1.1 -15.0,5.9c-9.1,9.5 -7.2,20.0 6.5,35.5c4.8,5.4 5.4,6.5 5.5,10.7c0.1,5.5 -1.7,6.2 -1.9,0.7c-0.1,-4.0 -1.7,-6.4 -3.4,-5.4c-3.1,1.9 -3.8,21.7 -0.9,28.4c5.1,12.0 16.7,16.1 29.2,10.1c8.9,-4.2 19.0,-14.0 23.0,-22.3c1.8,-3.7 3.5,-8.6 3.8,-10.8c0.3,-2.2 1.1,-4.3 1.7,-4.8c1.6,-1.2 57.9,-15.1 92.2,-22.7c30.7,-6.7 82.8,-17.0 95.3,-18.7c6.8,-0.9 7.3,-0.8 10.9,1.4c7.8,4.9 24.1,12.8 30.0,14.5c23.8,6.8 46.3,-5.9 39.7,-22.6c-0.5,-1.4 -4.4,-6.3 -8.5,-10.8c-4.1,-4.5 -7.8,-9.2 -8.2,-10.3c-1.1,-3.5 -2.9,-1.7 -3.2,3.2c-0.2,4.8 -1.4,6.1 -2.6,2.5c-1.1,-3.3 1.1,-13.2 4.0,-17.4c4.5,-6.5 5.8,-10.0 5.7,-15.0c-0.1,-7.4 -3.9,-12.0 -14.4,-17.4c-7.0,-3.5 -15.5,-3.4 -22.0,0.2z" fill="#000" /></svg>
