<svg xmlns="http://www.w3.org/2000/svg" width="777" height="480"><style><![CDATA[.B{stroke-linejoin:round}]]></style><path d="M0 0h777v480H0z"/><path fill="#2d3747" d="M-3.459-4.902h785v494h-785z"/><path d="M-12 309h806v185H-12z"/><g stroke="#000" class="B"><g stroke-width="20"><path d="M344.938 167.836l-28.689 158.197"/><path d="M275.266 205.541l117.213 109.016"/><path d="M231.823 323.574l172.131-103.279"/></g><g stroke-width="10"><path d="M549.856 240.787l23.77 79.508"/><path d="M526.085 320.295l63.934-59.836"/><path d="M540.02 280.131l58.197 35.246m-453.279-64.754l-14.754 69.672"/><path d="M124.446 264.557l33.607 60.656"/><path d="M100.675 313.738l57.377-45.902"/></g><g stroke-width="6"><path d="M726.085 285.049l.82 30.328"/><path d="M704.774 317.016l36.066-27.049"/><path d="M720.348 294.066l22.131 17.213m-306.558-22.951l-4.098 27.869"/><path d="M428.544 296.525l18.033 14.754"/><path d="M449.036 294.066l-25.41 18.033"/><g fill="none"><path d="M187 281c0-18.232 9.174-33 20.5-33s20.5 14.768 20.5 33-9.174 33-20.5 33-20.5-14.768-20.5-33z"/><path d="M212 282.5c0-20.718 8.95-37.5 20-37.5s20 16.782 20 37.5-8.95 37.5-20 37.5-20-16.782-20-37.5z"/><path d="M201 283c0-19.89 8.727-36 19.5-36s19.5 16.11 19.5 36-8.727 36-19.5 36-19.5-16.11-19.5-36z"/><path d="M237 278.5c0-19.613 9.398-35.5 21-35.5s21 15.887 21 35.5-9.398 35.5-21 35.5-21-15.887-21-35.5z"/><path d="M235 278.5c0-21.823 8.055-39.5 18-39.5s18 17.677 18 39.5-8.055 39.5-18 39.5-18-17.677-18-39.5z"/><path d="M252 283.5c0-14.641 11.412-26.5 25.5-26.5s25.5 11.859 25.5 26.5-11.412 26.5-25.5 26.5-25.5-11.859-25.5-26.5z"/><path d="M285 281.5c0-18.508 7.384-33.5 16.5-33.5s16.5 14.992 16.5 33.5-7.384 33.5-16.5 33.5-16.5-14.992-16.5-33.5z"/><path d="M312 291c0-14.365 9.398-26 21-26s21 11.635 21 26-9.398 26-21 26-21-11.635-21-26zm-134 1c0-15.47 5.146-28 11.5-28s11.5 12.53 11.5 28-5.146 28-11.5 28-11.5-12.53-11.5-28zm443.987-25.803v56.557"/></g></g><g stroke-width="3"><path fill="none" d="M622.807 270.295l-61.475 13.115m58.196 4.918l-49.18 10.656"/><path fill="none" d="M599.856 271.115l8.197 8.197"/><path fill="none" d="M606.413 269.475l-6.557 12.295m-11.476 13.115h-3.279m-.819-.819v.82"/></g><g fill="#2d3747" stroke-width="2"><path d="M588.38 290.787l12.295 6.557"/><path d="M597.397 289.148l-7.377 9.836"/></g></g></svg>