<svg xmlns="http://www.w3.org/2000/svg" width="410" height="137"><style><![CDATA[.B{stroke-linejoin:round}]]></style><g class="B"><path stroke="#6d6d6d" stroke-width="3" d="M85.041 37.32L16.393 62.295c.615.434 45.697 16.008 45.697 16.008s-9.836 4.918-10.451 4.484c.615.434 12.09 2.893 11.475 2.459.615.434-55.123 42.238-55.738 41.803.615.434 66.189-12.68 65.574-13.115.615.434 5.533 12.729 4.918 12.295.615.434 3.893-13.5 3.279-13.934.615.434 5.533 15.188 4.918 14.754.615.434 13.729-11.041 13.115-11.475.615.434 7.992 11.91 7.377 11.475.615.434 6.352-8.582 5.738-9.016.615.434 194.057 2.074 193.443 1.639.615.434 74.385-2.025 75.205-2.025s-31.967-61.475-32.582-61.91c.615.434-186.271-11.861-186.885-12.295.615.434 74.385 20.107 73.77 19.672"/><g fill="#f28c8e" stroke="#fc4453" stroke-width="2"><path d="M126 43h29v80h-29z"/><path d="M156.041 54.516c37.705 60.656 27.049 56.557 27.869 56.557s-24.59-4.918-23.77-4.918-4.098 17.213-4.402 16.795c.303.418-14.451-49.582-14.754-50"/></g></g><g stroke="#eb1a1a" class="B"><path fill="#919191" stroke-width="32" d="M103.254 47.786l99.18-1.639"/><g fill="none"><path stroke-width="27" d="M157.885 73.77l105.738-27.869"/><g stroke-width="13"><path d="M77.558 74.59l23.77 4.918m140.984 16.393h27.049"/><use href="#B"/></g></g><g transform="rotate(199.252 250.017 70.41)"><path fill="#919191" stroke-width="32" d="M172.434 55.491l99.18-1.639"/><g fill="none"><path stroke-width="27" d="M227.065 81.475l105.738-27.869"/><g stroke-width="13"><path d="M146.738 82.295l23.77 4.918m140.984 16.393h27.049"/><use href="#B" x="69.18" y="7.705"/></g></g></g></g><defs ><path id="B" d="M269.361 95.901h-.82m-135.246-4.918l18.852-3.279m114.755-58.196l17.213 13.115"/></defs></svg>