<svg xmlns="http://www.w3.org/2000/svg" viewBox="312.4 51.8 214.1 257.2" width="214" height="257"><g stroke-linejoin="round" stroke-width="2"><path d="M384.282 158.82c1.639.819-63.115-70.492-63.934-70.492s104.918 7.377 104.098 6.557 7.377-17.213 5.738-16.393 8.196 10.656 7.377 12.295 77.869-30.328 77.049-30.328-16.394 74.59-17.213 75.41l-15.43 8.393c.676.623 14.61 12.918 14.61 11.279s-13.934 13.115-15.574 12.295-4.918 13.115-4.918 13.934S490.02 298.984 489.2 301.443s-120.492-5.738-121.311-3.279 24.59-105.738 22.95-104.918-10.655 8.197-12.295 7.377 2.459-21.312 3.279-21.312 9.836-11.475 8.197-10.655" stroke="#6d6d6d"/><path stroke="#f2ca74" fill="#fff766" d="M408 148.541c0-8.84 3.58-16 8-16s8 7.16 8 16-3.58 16-8 16-8-7.16-8-16zm35-.541c0-8.287 3.356-15 7.5-15s7.5 6.713 7.5 15-3.356 15-7.5 15-7.5-6.713-7.5-15z"/></g><g stroke="#e76767" fill="#e98a8a" stroke-linejoin="round" stroke-width="2"><path d="M431.823 186.689l-3.134 82.983c.675.623 19.527-16.59 19.527-15.77l7.522 18.229c.675.623 7.232-87.902 6.413-86.262"/><path d="M385 163h96v30h-96z"/></g><g stroke="#6d6d6d" stroke-linejoin="round" stroke-width="2"><path d="M339.2 97.344l50 44.262"/><path d="M389.2 140.787l-10.656-1.639"/><path d="M378.544 138.328l7.377 9.016m-.819 0l-.82 6.557m.82-1.639l7.377-1.639m109.836-75.41l-17.213 46.721"/><path d="M485.102 121.115h9.016m0 .819l-6.557 3.279m.819 1.639l1.639 7.377"/><path d="M490.02 133.41l-6.557-1.639m-78.689 85.245l-7.377 78.689m61.475-52.459l-2.459 57.377"/></g></svg>