<svg xmlns="http://www.w3.org/2000/svg" width="50" height="50"><style>.a{fill:grey;stroke-width:3;stroke:white;}</style><path d="m28.1 21.4l2.1 0 0 9 -2.1 0 0-9zm2.3 4.6l8.7 0m-28-0.2l8.4 0 0-5 8.6 5.1 -8.6 5.2 0-5.3m-9.1-0.3l0.7 0 0 0.5 -0.7 0 0-0.5zm28.7 0.2l0.7 0 0 0.5 -0.7 0 0-0.5z" style="fill:#bef4d8;stroke-dasharray:null;stroke-linejoin:null;stroke-width:3;stroke:white"/><rect height="1.2" width="1.6" y="25.7" x="1.6" class="a"/><rect height="1.2" width="1.6" y="25.8" x="46.6" class="a"/><rect height="0.4" width="13.3" y="26.1" x="5" class="a"/><rect height="0.4" width="13.3" y="26" x="31.6" class="a"/></svg>