<svg xmlns="http://www.w3.org/2000/svg" xmlns:xlink="http://www.w3.org/1999/xlink" width="74.667" height="74.667" viewBox="0 0 70.000001 70.000002"><defs><linearGradient id="e"><stop offset="0" stop-color="#fff"/><stop offset=".114" stop-color="#fff"/><stop offset=".225" stop-color="#aeaeae"/><stop offset=".634" stop-color="#a2a2a2"/><stop offset="1" stop-color="#686868"/></linearGradient><linearGradient id="d"><stop offset="0" stop-color="#cecece"/><stop offset=".549" stop-color="#b1b1b1"/><stop offset="1" stop-color="#686868"/></linearGradient><linearGradient id="c"><stop offset="0" stop-color="#6d95dc"/><stop offset="1" stop-color="#495a8a"/></linearGradient><linearGradient id="b"><stop offset="0" stop-color="#cecece"/><stop offset=".4" stop-color="#b1b1b1"/><stop offset="1" stop-color="#686868"/></linearGradient><linearGradient id="a"><stop offset="0" stop-color="#cecece"/><stop offset=".636" stop-color="#b1b1b1"/><stop offset="1" stop-color="#686868"/></linearGradient><radialGradient xlink:href="#a" id="g" cx="329.466" cy="608.467" fx="329.466" fy="638.612" r="53.038" gradientTransform="matrix(0 .2231 -1.44313 0 908.28 983.54)" gradientUnits="userSpaceOnUse" spreadMethod="pad"/><radialGradient xlink:href="#b" id="f" cx=".659" cy="804.12" fx=".659" fy="804.12" r="137.5" gradientTransform="matrix(0 .32943 -.41167 0 306.214 1056.981)" gradientUnits="userSpaceOnUse"/><radialGradient xlink:href="#c" id="h" cx=".659" cy="566.741" fx=".659" fy="566.741" r="29.747" gradientTransform="matrix(0 .23665 -.29888 0 191.288 1057.042)" gradientUnits="userSpaceOnUse"/><linearGradient xlink:href="#d" id="i" x1="-105.134" y1="737.569" x2="-146.417" y2="740.029" gradientUnits="userSpaceOnUse" gradientTransform="matrix(0 .23665 -.24429 0 159.969 1057.042)"/><linearGradient gradientTransform="matrix(0 -.23665 -.24429 0 159.969 1056.932)" xlink:href="#d" id="j" x1="-105.134" y1="737.569" x2="-146.417" y2="740.029" gradientUnits="userSpaceOnUse"/><radialGradient xlink:href="#e" id="k" cx=".95" cy="744.271" fx="-.024" fy="748.014" r="35.052" gradientTransform="matrix(-.00172 .23664 -.91056 -.0062 659.091 1061.692)" gradientUnits="userSpaceOnUse"/></defs><path d="M6.68 1057.042a29.823 32.567 0 0 0-29.823-32.567 29.823 32.567 0 0 0-6.213.755l13.686 31.968-12.867 31.85a29.823 32.567 0 0 0 5.394.56 29.823 32.567 0 0 0 29.822-32.566z" fill="url(#f)" transform="translate(30.375 -1021.987)"/><path d="M39.625 1057.042A35.674 11.832 0 0 0 3.95 1045.21a35.674 11.832 0 0 0-28.58 4.774v14.119a35.674 11.832 0 0 0 28.58 4.772 35.674 11.832 0 0 0 35.674-11.833z" fill="url(#g)" transform="translate(30.375 -1021.987)"/><path d="M30.184 1057.042a9.762 7.1 0 0 0-8.586-7.042 9.762 9.71 0 0 1 3.058 7.042 9.762 9.71 0 0 1-3.043 7.038 9.762 7.1 0 0 0 8.57-7.038z" fill="url(#h)" transform="translate(30.375 -1021.987)"/><path d="M-30.375 1030.919l24.64-4.18-5.964-4.752-17.657 3.243z" fill="url(#i)" fill-rule="evenodd" transform="translate(30.375 -1021.987)"/><path d="M-30.375 1083.054l24.64 4.18-5.964 4.753-17.657-3.243z" fill="url(#j)" fill-rule="evenodd" transform="translate(30.375 -1021.987)"/><path d="M-24.629 1049.984v14.119l3.19 1.235v-16.59z" fill="url(#k)" fill-rule="evenodd" transform="translate(30.375 -1021.987)"/><path d="M5.005 27.997v14.166h.741V27.997z"/></svg>