<?xml version="1.0" encoding="UTF-8"?>
<svg fill="none" viewBox="0 0 1920 1080" xmlns="http://www.w3.org/2000/svg">
<style><![CDATA[.C{fill-opacity:.1}.D{fill-opacity:.5}]]></style>
<g fill="#fff">
<circle class="C" cx="4.55" cy="538" r="4.55"/>
<circle class="C" cx="4.55" cy="283.21" r="4.55"/>
<circle class="C" cx="4.55" cy="792.79" r="4.55"/>
<circle class="C" cx="4.55" cy="1047.6" r="4.55"/>
<circle class="C" cx="4.55" cy="155.82" r="4.55"/>
<circle class="C" cx="4.55" cy="665.39" r="4.55"/>
<circle class="C" cx="4.55" cy="410.61" r="4.55"/>
<circle class="C" cx="4.55" cy="920.18" r="4.55"/>
<circle class="C" cx="1023.7" cy="28.427" r="4.55"/>
<circle class="D" cx="1023.7" cy="538" r="4.55"/>
<circle class="C" cx="1023.7" cy="283.21" r="4.55"/>
<circle class="C" cx="1023.7" cy="792.79" r="4.55"/>
<circle class="C" cx="1023.7" cy="1047.6" r="4.55"/>
<circle cx="1023.7" cy="155.82" r="4.55"/>
<circle class="C" cx="1023.7" cy="665.39" r="4.55"/>
<circle class="C" cx="1023.7" cy="410.61" r="4.55"/>
<circle class="C" cx="1023.7" cy="920.18" r="4.55"/>
<circle class="C" cx="514.12" cy="28.427" r="4.55"/>
<circle class="C" cx="514.12" cy="538" r="4.55"/>
<circle class="C" cx="514.12" cy="283.21" r="4.55"/>
<circle class="C" cx="514.12" cy="792.79" r="4.55"/>
<circle class="C" cx="514.12" cy="1047.6" r="4.55"/>
<circle class="C" cx="514.12" cy="155.82" r="4.55"/>
<circle cx="514.12" cy="665.39" r="4.55"/>
<circle class="C" cx="514.12" cy="410.61" r="4.55"/>
<circle class="C" cx="514.12" cy="920.18" r="4.55"/>
<circle cx="1533.3" cy="28.427" r="4.55"/>
<circle class="C" cx="1533.3" cy="538" r="4.55"/>
<circle class="C" cx="1533.3" cy="283.21" r="4.55"/>
<circle class="C" cx="1533.3" cy="792.79" r="4.55"/>
<circle class="C" cx="1533.3" cy="1047.6" r="4.55"/>
<circle class="C" cx="1533.3" cy="155.82" r="4.55"/>
<circle class="C" cx="1533.3" cy="665.39" r="4.55"/>
<circle class="C" cx="1533.3" cy="410.61" r="4.55"/>
<circle class="C" cx="1533.3" cy="920.18" r="4.55"/>
<circle class="C" cx="259.34" cy="28.427" r="4.55"/>
<circle class="C" cx="259.34" cy="538" r="4.55"/>
<circle class="C" cx="259.34" cy="283.21" r="4.55"/>
<circle class="C" cx="259.34" cy="792.79" r="4.55"/>
<circle class="C" cx="259.34" cy="1047.6" r="4.55"/>
<circle class="D" cx="259.34" cy="155.82" r="4.55"/>
<circle class="C" cx="259.34" cy="665.39" r="4.55"/>
<circle class="C" cx="259.34" cy="410.61" r="4.55"/>
<circle class="C" cx="259.34" cy="920.18" r="4.55"/>
<circle class="C" cx="1278.5" cy="28.427" r="4.55"/>
<circle class="C" cx="1278.5" cy="538" r="4.55"/>
<circle class="C" cx="1278.5" cy="283.21" r="4.55"/>
<circle class="C" cx="1278.5" cy="792.79" r="4.55"/>
<circle class="C" cx="1278.5" cy="1047.6" r="4.55"/>
<circle class="C" cx="1278.5" cy="155.82" r="4.55"/>
<circle class="C" cx="1278.5" cy="665.39" r="4.55"/>
<circle class="D" cx="1278.5" cy="410.61" r="4.55"/>
<circle class="D" cx="1278.5" cy="920.18" r="4.55"/>
<circle class="C" cx="768.91" cy="28.427" r="4.55"/>
<circle class="C" cx="768.91" cy="538" r="4.55"/>
<circle class="C" cx="768.91" cy="283.21" r="4.55"/>
<circle class="C" cx="768.91" cy="792.79" r="4.55"/>
<circle class="C" cx="768.91" cy="1047.6" r="4.55"/>
<circle class="C" cx="768.91" cy="155.82" r="4.55"/>
<circle class="C" cx="768.91" cy="665.39" r="4.55"/>
<circle class="C" cx="768.91" cy="410.61" r="4.55"/>
<circle class="D" cx="768.91" cy="920.18" r="4.55"/>
<circle class="D" cx="1788.1" cy="28.427" r="4.55"/>
<circle class="C" cx="1788.1" cy="538" r="4.55"/>
<circle class="C" cx="1788.1" cy="283.21" r="4.55"/>
<circle class="C" cx="1788.1" cy="792.79" r="4.55"/>
<circle class="C" cx="1788.1" cy="1047.6" r="4.55"/>
<circle class="C" cx="1788.1" cy="155.82" r="4.55"/>
<circle class="C" cx="1788.1" cy="665.39" r="4.55"/>
<circle cx="1788.1" cy="410.61" r="4.55"/>
<circle cx="1788.1" cy="920.18" r="4.55"/>
<circle class="C" cx="131.94" cy="28.427" r="4.55"/>
<circle class="C" cx="4.55" cy="28.427" r="4.55"/>
<circle cx="131.94" cy="538" r="4.55"/>
<circle class="C" cx="131.94" cy="283.21" r="4.55"/>
<circle class="C" cx="131.94" cy="792.79" r="4.55"/>
<circle class="C" cx="131.94" cy="1047.6" r="4.55"/>
<circle class="C" cx="131.94" cy="155.82" r="4.55"/>
<circle class="C" cx="131.94" cy="665.39" r="4.55"/>
<circle class="C" cx="131.94" cy="410.61" r="4.55"/>
<circle class="D" cx="131.94" cy="920.18" r="4.55"/>
<circle class="C" cx="1151.1" cy="28.427" r="4.55"/>
<circle class="C" cx="1151.1" cy="538" r="4.55"/>
<circle class="C" cx="1151.1" cy="283.21" r="4.55"/>
<circle class="C" cx="1151.1" cy="792.79" r="4.55"/>
<circle class="C" cx="1151.1" cy="1047.6" r="4.55"/>
<circle class="C" cx="1151.1" cy="155.82" r="4.55"/>
<circle class="C" cx="1151.1" cy="665.39" r="4.55"/>
<circle class="C" cx="1151.1" cy="410.61" r="4.55"/>
<circle class="C" cx="1151.1" cy="920.18" r="4.55"/>
<circle class="C" cx="641.52" cy="28.427" r="4.55"/>
<circle class="C" cx="641.52" cy="538" r="4.55"/>
<circle class="D" cx="641.52" cy="283.21" r="4.55"/>
<circle class="C" cx="641.52" cy="792.79" r="4.55"/>
<circle class="C" cx="641.52" cy="1047.6" r="4.55"/>
<circle class="C" cx="641.52" cy="155.82" r="4.55"/>
<circle class="C" cx="641.52" cy="665.39" r="4.55"/>
<circle class="C" cx="641.52" cy="410.61" r="4.55"/>
<circle class="C" cx="641.52" cy="920.18" r="4.55"/>
<circle class="C" cx="1660.7" cy="28.427" r="4.55"/>
<circle class="C" cx="1660.7" cy="538" r="4.55"/>
<circle class="C" cx="1660.7" cy="283.21" r="4.55"/>
<circle class="C" cx="1660.7" cy="792.79" r="4.55"/>
<circle class="C" cx="1660.7" cy="1047.6" r="4.55"/>
<circle class="C" cx="1660.7" cy="155.82" r="4.55"/>
<circle class="C" cx="1660.7" cy="665.39" r="4.55"/>
<circle class="C" cx="1660.7" cy="410.61" r="4.55"/>
<circle class="C" cx="1660.7" cy="920.18" r="4.55"/>
<circle class="C" cx="386.73" cy="28.427" r="4.55"/>
<circle class="C" cx="386.73" cy="538" r="4.55"/>
<circle class="C" cx="386.73" cy="283.21" r="4.55"/>
<circle class="C" cx="386.73" cy="792.79" r="4.55"/>
<circle class="C" cx="386.73" cy="1047.6" r="4.55"/>
<circle class="C" cx="386.73" cy="155.82" r="4.55"/>
<circle class="C" cx="386.73" cy="665.39" r="4.55"/>
<circle class="C" cx="386.73" cy="410.61" r="4.55"/>
<circle class="C" cx="386.73" cy="920.18" r="4.55"/>
<circle class="C" cx="1405.9" cy="28.427" r="4.55"/>
<circle class="C" cx="1405.9" cy="538" r="4.55"/>
<circle class="C" cx="1405.9" cy="283.21" r="4.55"/>
<circle class="C" cx="1405.9" cy="792.79" r="4.55"/>
<circle class="C" cx="1405.9" cy="1047.6" r="4.55"/>
<circle class="C" cx="1405.9" cy="155.82" r="4.55"/>
<circle class="D" cx="1405.9" cy="665.39" r="4.55"/>
<circle class="C" cx="1405.9" cy="410.61" r="4.55"/>
<circle class="C" cx="1405.9" cy="920.18" r="4.55"/>
<circle class="C" cx="896.3" cy="28.427" r="4.55"/>
<circle class="C" cx="896.3" cy="538" r="4.55"/>
<circle class="C" cx="896.3" cy="283.21" r="4.55"/>
<circle class="C" cx="896.3" cy="792.79" r="4.55"/>
<circle class="C" cx="896.3" cy="1047.6" r="4.55"/>
<circle class="C" cx="896.3" cy="155.82" r="4.55"/>
<circle class="C" cx="896.3" cy="665.39" r="4.55"/>
<circle class="C" cx="896.3" cy="410.61" r="4.55"/>
<circle class="C" cx="896.3" cy="920.18" r="4.55"/>
<circle class="C" cx="1915.4" cy="28.427" r="4.55"/>
<circle class="C" cx="1915.4" cy="538" r="4.55"/>
<circle class="C" cx="1915.4" cy="283.21" r="4.55"/>
<circle class="C" cx="1915.4" cy="792.79" r="4.55"/>
<circle class="C" cx="1915.4" cy="1047.6" r="4.55"/>
<circle class="C" cx="1915.4" cy="155.82" r="4.55"/>
<circle class="C" cx="1915.4" cy="665.39" r="4.55"/>
<circle class="C" cx="1915.4" cy="410.61" r="4.55"/>
<circle class="C" cx="1915.4" cy="920.18" r="4.55"/>
</g>
</svg>
