<svg xmlns="http://www.w3.org/2000/svg" xmlns:xlink="http://www.w3.org/1999/xlink" width="531" height="400" fill="none" xmlns:v="https://vecta.io/nano"><style><![CDATA[.B{fill:#4b43e2}.C{fill:#3185fc}.D{fill-rule:evenodd}]]></style><g clip-path="url(#B)"><g class="D"><use xlink:href="#E" class="B"/><path d="M411.636 20.044c-3.485 6.888-10.97 12.848-18.375 8.002-5.506-3.61-7.135-10.518-4.64-16.024-5.486-.227-12.828 1.36-20.458 4.104 4.166 4.475 8.167 10.827 4.042 14.807-7.548 7.28-16.292.082-20.045-7.486-11.157 6.3-20.314 14.333-21.55 21.798-2.743 13.755 4.124 17.88 13.755 24.748 4.455 2.66 11.755 6.475 18.623 9.6 3.918-5.63 10.373-9.63 17.385-5.898 5.59 2.97 7.424 8.682 7.135 14.498 13.364 1.61 22.21-5.836 29.677-17.777-5.383-3.465-9.446-8.25-6.703-15.282 2.764-7.135 10.9-8.744 17.385-6.25 6.25-17.962-1.918-23.366-16.23-28.83zM342.59 54.876c-4.228 2.846-8.023-3.032-7.404-7.362.02-.165.062-.31.083-.474.082-.37.206-.722.37-1.052.763-1.61 2.392-2.702 5.217-2.516.454.02.743.31.887.64.33.124.66.248 1 .433 4.063 2.35 3.61 7.816-.144 10.332zm28.562 7.136c-.082.31-.268.598-.64.742-6.33 2.434-13.735 5.548-19.097-.784-3.856-4.558-4.97-11.404-1.423-16.56 7.033-10.208 25.18-7.59 26.356 5.857.413 4.702-1.856 8.476-5.197 10.744zm18.602-5.32c-4.887-1.506-7.878-7.053-7.692-11.982.144-4.27 2.433-7.197 5.92-8.27.02-.02.04-.04.06-.04 6.827-3.65 14.354 1.918 14.395 9.425.02 6-6.228 12.848-12.683 10.868zm8.724 23.14c-3.3-.04-5.57-2.598-5.177-5.898.29-2.372 1.815-4.042 3.795-4.784a.79.79 0 0 1 .701-.639c3.362-.516 6.62 1.258 6.723 4.95.083 3.423-2.516 6.414-6.042 6.372zm16.807-38.565c-2.97-.7-4.764-3.712-3.98-6.682.454-1.65 1.464-2.764 2.764-3.32.165-.227.412-.392.763-.433s.72-.02 1.072 0c.742-.04 1.526.062 2.3.29.35.103.557.35.64.62 1.65.95 2.887 2.578 3 4.66.186 3.588-3.258 5.63-6.558 4.867z" class="C"/><path d="M291.117 12.27c-16.5-2.743-57.744 16.498-60.487 32.997-2.743 13.755 4.124 17.88 13.755 24.747 6.868 4.125 20.623 10.992 28.872 13.755 26.13 12.374 38.503-1.382 49.495-23.366 19.24-37.142-2.763-35.76-31.635-48.134z" class="B"/><path d="M311.636 20.044c-3.485 6.888-10.97 12.848-18.375 8.002-5.506-3.61-7.135-10.518-4.64-16.024-5.486-.227-12.828 1.36-20.458 4.104 4.166 4.475 8.167 10.827 4.042 14.807-7.548 7.28-16.292.082-20.045-7.486-11.157 6.3-20.314 14.333-21.55 21.798-2.743 13.755 4.124 17.88 13.755 24.748 4.455 2.66 11.755 6.475 18.623 9.6 3.918-5.63 10.373-9.63 17.385-5.898 5.59 2.97 7.424 8.682 7.135 14.498 13.364 1.61 22.21-5.836 29.677-17.777-5.383-3.465-9.446-8.25-6.703-15.282 2.764-7.135 10.9-8.744 17.385-6.25 6.25-17.962-1.918-23.366-16.23-28.83zM242.59 54.876c-4.228 2.846-8.023-3.032-7.404-7.362.02-.165.062-.31.083-.474.082-.37.206-.722.37-1.052.763-1.61 2.392-2.702 5.217-2.516.454.02.743.31.887.64.33.124.66.248 1 .433 4.063 2.35 3.61 7.816-.144 10.332zm28.562 7.136c-.082.31-.268.598-.64.742-6.33 2.434-13.735 5.548-19.097-.784-3.856-4.558-4.97-11.404-1.423-16.56 7.033-10.208 25.18-7.59 26.356 5.857.413 4.702-1.856 8.476-5.197 10.744zm18.602-5.32c-4.887-1.506-7.878-7.053-7.692-11.982.144-4.27 2.433-7.197 5.92-8.27.02-.02.04-.04.06-.04 6.827-3.65 14.354 1.918 14.395 9.425.02 6-6.228 12.848-12.683 10.868zm8.724 23.14c-3.3-.04-5.57-2.598-5.177-5.898.29-2.372 1.815-4.042 3.795-4.784a.79.79 0 0 1 .701-.639c3.362-.516 6.62 1.258 6.723 4.95.083 3.423-2.516 6.414-6.042 6.372zm16.807-38.565c-2.97-.7-4.764-3.712-3.98-6.682.454-1.65 1.464-2.764 2.764-3.32.165-.227.412-.392.763-.433s.72-.02 1.072 0c.742-.04 1.526.062 2.3.29.35.103.557.35.64.62 1.65.95 2.887 2.578 3 4.66.186 3.588-3.258 5.63-6.558 4.867z" class="C"/><path d="M491.116 12.27c-16.498-2.743-57.744 16.498-60.487 32.997-2.743 13.755 4.125 17.88 13.756 24.747 6.867 4.125 20.623 10.992 28.872 13.755 26.13 12.374 38.503-1.382 49.495-23.366 19.24-37.142-2.764-35.76-31.636-48.134z" class="B"/><path d="M511.636 20.044c-3.485 6.888-10.97 12.848-18.375 8.002-5.506-3.61-7.135-10.518-4.64-16.024-5.486-.227-12.828 1.36-20.458 4.104 4.166 4.475 8.167 10.827 4.042 14.807-7.548 7.28-16.292.082-20.045-7.486-11.157 6.3-20.314 14.333-21.55 21.798-2.743 13.755 4.124 17.88 13.755 24.748 4.455 2.66 11.755 6.475 18.623 9.6 3.918-5.63 10.373-9.63 17.385-5.898 5.59 2.97 7.424 8.682 7.135 14.498 13.364 1.61 22.21-5.836 29.677-17.777-5.383-3.465-9.446-8.25-6.703-15.282 2.764-7.135 10.9-8.744 17.385-6.25 6.25-17.962-1.918-23.366-16.23-28.83zM442.59 54.876c-4.228 2.846-8.023-3.032-7.404-7.362.02-.165.062-.31.083-.474.082-.37.206-.722.37-1.052.763-1.61 2.392-2.702 5.217-2.516.454.02.743.31.887.64.33.124.66.248 1 .433 4.063 2.35 3.61 7.816-.144 10.332zm28.562 7.136c-.082.31-.268.598-.64.742-6.33 2.434-13.735 5.548-19.097-.784-3.856-4.558-4.97-11.404-1.423-16.56 7.033-10.208 25.18-7.59 26.356 5.857.413 4.702-1.856 8.476-5.197 10.744zm18.602-5.32c-4.887-1.506-7.878-7.053-7.692-11.982.144-4.27 2.433-7.197 5.92-8.27.02-.02.04-.04.06-.04 6.827-3.65 14.354 1.918 14.395 9.425.02 6-6.228 12.848-12.683 10.868zm8.724 23.14c-3.3-.04-5.57-2.598-5.177-5.898.29-2.372 1.815-4.042 3.795-4.784a.79.79 0 0 1 .701-.639c3.362-.516 6.62 1.258 6.723 4.95.083 3.423-2.516 6.414-6.042 6.372zm16.807-38.565c-2.97-.7-4.764-3.712-3.98-6.682.454-1.65 1.464-2.764 2.764-3.32.165-.227.412-.392.763-.433s.72-.02 1.072 0c.742-.04 1.526.062 2.3.29.35.103.557.35.64.62 1.65.95 2.887 2.578 3 4.66.186 3.588-3.258 5.63-6.558 4.867z" class="C"/><path d="M215.708 161.22c2.978-16.257-17.915-56.898-35.83-59.6-14.937-2.703-19.416 4.064-26.873 13.553-4.48 6.767-11.936 20.32-14.937 28.45-13.436 25.746 1.5 37.938 25.372 48.77 40.332 18.96 38.832-2.723 52.268-31.17z" class="B"/><path d="M207.265 181.44c-7.48-3.434-13.95-10.81-8.688-18.106 3.92-5.425 11.42-7.03 17.4-4.572.246-5.405-1.478-12.64-4.457-20.158-4.86 4.105-11.757 8.047-16.08 3.983-7.905-7.437-.09-16.053 8.13-19.75-6.83-10.994-15.563-20.016-23.67-21.235-14.937-2.703-19.416 4.064-26.873 13.553-2.89 4.4-7.03 11.583-10.413 18.35 6.114 3.86 10.458 10.22 6.405 17.13-3.225 5.507-9.428 7.315-15.743 7.03-1.747 13.168 6.337 21.885 19.303 29.24 3.763-5.304 8.958-9.307 16.594-6.604 7.75 2.723 9.495 10.75 6.786 17.13 19.505 6.157 25.372-1.9 31.306-15.992zm-37.823-68.033c-3.1-4.166 3.292-7.905 7.995-7.295.18.02.336.06.515.08a5.29 5.29 0 0 1 1.142.366c1.747.752 2.933 2.357 2.732 5.14-.022.447-.336.732-.694.874-.135.325-.27.65-.47.975-2.552 4.003-8.487 3.556-11.22-.142zm-7.748 28.144c-.336-.08-.65-.264-.806-.63-2.643-6.24-6.024-13.534.85-18.817 4.95-3.8 12.384-4.897 17.983-1.402 11.085 6.93 8.24 24.81-6.36 25.97-5.106.406-9.204-1.83-11.667-5.12zm5.777 18.33c1.635-4.816 7.66-7.763 13.01-7.58 4.636.143 7.816 2.398 8.98 5.832.023.02.045.04.045.06 3.964 6.726-2.083 14.143-10.234 14.184-6.517.02-13.95-6.137-11.802-12.497zm-25.126 8.595c.045-3.25 2.822-5.486 6.405-5.1 2.575.284 4.39 1.788 5.195 3.74.336.06.627.284.695.69.56 3.312-1.366 6.523-5.375 6.624-3.717.082-6.964-2.48-6.92-5.954zm41.877 16.562c.76-2.927 4.03-4.694 7.256-3.922 1.79.447 3 1.442 3.605 2.723.246.162.426.406.47.75s.023.712 0 1.057c.045.732-.067 1.504-.313 2.276-.112.345-.38.55-.672.63-1.03 1.626-2.8 2.845-5.06 2.946-3.897.183-6.114-3.2-5.285-6.46z" class="C"/></g><g clip-path="url(#C)" class="D"><path d="M229.627 226.423c0-12.466-6.193-24.914-19.843-26.166-18.596-2.486-19.842 13.7-31 21.176-16.123 12.466-57.036 1.252-45.878 34.894 6.193 19.943 21.07 14.952 33.474 22.428 13.63 6.224 18.597 22.43 34.72 21.176 18.596-2.485 18.597-14.952 19.842-29.904 1.246-12.447 9.93-32.4 8.685-43.604z" class="B"/><path d="M201.12 299.932c16.03-2.15 18.243-11.7 19.34-23.868-2.287-.673-4.39-1.83-5.914-3.794-2.027-2.616-2.324-6.354-1.097-9.382 2.01-4.953 6.156-7.383 10.582-7.233 2.845-10.43 6.415-21.756 5.597-29.232 0-9.046-3.29-18.054-10.284-22.82-1.952 2.635-4.816 4.336-8.6 3.55-3.775-.785-5.486-3.72-6.25-7.084-13.668 1-15.714 14.672-25.7 21.363-.223.187-.484.337-.725.505 3.124 6.803 3.366 16.597-4.76 18.073-8.536 1.55-12.534-4.766-13.483-11.943-16.904 3.12-34.757 4.617-26.91 28.24 6.193 19.942 21.07 14.952 33.474 22.428 1.804.822 3.46 1.832 5.002 2.934 4.37-3.906 9.987-6.28 14.58-1.532 3.906 4.018 4.13 10.952 1.004 15.494 3.906 2.878 8.276 4.747 14.153 4.3zm-3.385-71.733c-.763-5.27 3.645-10.224 8.63-11.252 3.793-.785 6.75.524 8.405 3.16.168.037.354.112.503.3 4.11 5.215.967 12.336-4.65 15-6.025 2.822-11.92-.542-12.887-7.196zm-13.63 18.99c.223.112.353.28.52.43.54.243 1.023.598 1.414 1.12.93 1.215 1.078 2.972.576 4.41-1.227 3.514-5.43 4.86-8.257 2.112-2.455-2.392-.706-6.018 1.804-7.55.167-.093.353-.186.52-.26.056-.038.11-.056.167-.094 1.06-.486 2.232-.7 3.255-.168zm-48.76 1.16c-2.1-2.598-.855-5.645 1.45-7.738a.93.93 0 0 1 .409-.729c1.785-1.233 4.426-2.672 6.657-1.738 3.645 1.514 3.943 6.58 2.25 9.7-2.232 4.13-7.885 4.037-10.768.505zm20.103 21.38c-5.523-2.186-8.573-9.42-5.783-14.896 2.213-4.336 7.085-6.952 11.9-6.504 4.445.41 6.788 3.738 7.476 7.644a.87.87 0 0 1 .223.599c0 3.532.298 8.335-2.808 10.84-2.92 2.355-7.327 3.757-11.01 2.317zm39.313 3.57c-5.188-1.944-7.252-9.438-4.184-13.96 2.288-3.346 6.844-5.3 10.786-3.832 3.403 1.252 4.89 4 5.04 7.196.037.13.037.262.02.41 0 .037-.02.094-.02.15a13.65 13.65 0 0 1-.205 2.429c-.037.206-.13.337-.24.45-.41 2.28-1.098 4.635-2.846 6-2.436 1.87-5.467 2.243-8.35 1.16zm7.458 21.7c-1.06-1.327-2.046-3.326-1.376-5.065a4.41 4.41 0 0 1 3.049-2.71c3.31-.84 6.212 1.365 6.044 4.84a.9.9 0 0 1-.613.841c-.075.187-.15.393-.242.56-1.358 2.486-4.705 4.205-6.862 1.532z" class="C"/></g><g class="D"><path d="M216.94 360.894c3.023-16.168-18.182-56.59-36.364-59.277-15.16-2.688-19.704 4.042-27.272 13.48-4.546 6.73-12.114 20.21-15.16 28.295-13.636 25.607 1.523 37.733 25.75 48.505 40.93 18.856 39.41-2.708 53.045-31.003z" class="B"/><path d="M208.37 381.003c-7.59-3.415-14.16-10.752-8.818-18.007 3.977-5.396 11.59-6.993 17.66-4.548.25-5.375-1.5-12.57-4.523-20.048-4.932 4.082-11.932 8.003-16.318 3.96-8.023-7.397-.09-15.966 8.25-19.645-6.932-10.933-15.796-19.907-24.023-21.12-15.16-2.688-19.705 4.042-27.273 13.48-2.932 4.365-7.136 11.52-10.568 18.25 6.205 3.84 10.614 10.166 6.5 17.037-3.273 5.477-9.568 7.276-15.977 6.993-1.773 13.096 6.432 21.767 19.59 29.083 3.818-5.275 9.09-9.256 16.84-6.568 7.863 2.708 9.636 10.69 6.886 17.037 19.796 6.124 25.75-1.88 31.773-15.906zm-38.387-67.664c-3.136-4.143 3.34-7.862 8.114-7.256.182.02.34.06.523.08.41.08.795.202 1.16.364 1.773.748 2.977 2.344 2.773 5.113-.023.445-.34.728-.705.87-.136.324-.273.647-.477.97-2.59 3.982-8.614 3.537-11.387-.14zm-7.863 27.99c-.34-.08-.66-.262-.818-.626-2.682-6.205-6.114-13.46.863-18.715 5.023-3.78 12.568-4.87 18.25-1.395 11.25 6.892 8.364 24.677-6.454 25.83-5.182.404-9.34-1.82-11.84-5.093zm5.863 18.23c1.66-4.8 7.773-7.72 13.205-7.538 4.704.14 7.932 2.384 9.114 5.8.022.02.045.04.045.06 4.023 6.69-2.114 14.066-10.386 14.106-6.614.02-14.16-6.103-11.978-12.43zm-25.5 8.55c.046-3.234 2.864-5.457 6.5-5.073 2.614.283 4.455 1.78 5.273 3.72.34.06.636.283.705.687.568 3.294-1.387 6.488-5.455 6.59-3.773.08-7.068-2.466-7.023-5.922zm42.5 16.472c.773-2.91 4.09-4.67 7.364-3.9 1.818.445 3.045 1.435 3.66 2.708.25.162.432.404.477.748s.023.707 0 1.05c.046.727-.068 1.495-.318 2.263-.113.344-.386.546-.682.627a6.37 6.37 0 0 1-5.136 2.93c-3.955.182-6.205-3.193-5.364-6.426z" class="C"/></g><g fill="#faa629"><circle opacity=".2" cx="255" cy="125" r="25"/><circle cx="255" cy="125" r="16"/></g><g clip-path="url(#D)" class="D"><path d="M134 21.556c2.35-12.242 10.78-23.3 24.422-21.953C177.153.67 175.323 16.8 184.87 26.246c13.482 15.284 55.775 11.988 38.472 42.922-9.843 18.416-23.512 10.71-37.104 15.71-14.56 3.54-22.493 18.518-38.09 14.246-17.794-5.95-15.442-18.192-13.846-33.1 1.125-12.46-3.642-33.682-.303-44.46z" class="B"/><path d="M148.13 99.122c-15.337-5.135-15.71-14.93-14.49-27.087 2.373-.23 4.655-.97 6.523-2.61 2.484-2.187 3.48-5.802 2.847-9.007-1.038-5.243-4.652-8.41-9.027-9.1-.827-10.78-2.197-22.575.017-29.762 1.706-8.884 6.638-17.1 14.404-20.47 1.42 2.956 3.912 5.167 7.786 5.112 3.855-.06 6.09-2.618 7.472-5.778 13.233 3.57 12.665 17.373 21.2 25.827.184.226.41.422.617.632-4.352 6.092-6.437 15.664 1.266 18.647 8.1 3.134 13.208-2.316 15.493-9.185 16.012 6.254 33.263 11.1 21.1 32.8-9.843 18.416-23.512 10.71-37.103 15.71-1.927.467-3.743 1.146-5.467 1.938-3.554-4.66-8.622-8.05-14.028-4.255-4.594 3.2-6.12 9.977-3.91 15.027-4.378 2.1-9.023 3.1-14.71 1.552zm16.855-69.806c1.743-5.032-1.65-10.728-6.352-12.677-3.578-1.486-6.728-.76-8.85 1.516-.17.005-.368.043-.55.2-5.02 4.346-3.277 11.932 1.738 15.597 5.385 3.908 11.81 1.716 14.014-4.636zm9.804 21.22c-.24.068-.4.21-.592.324-.576.137-1.117.395-1.6.835-1.142 1.018-1.62 2.715-1.398 4.223.543 3.682 4.416 5.796 7.7 3.632 2.862-1.886 1.83-5.777-.347-7.755a6.45 6.45 0 0 0-.462-.355c-.047-.047-.1-.076-.146-.123-.95-.677-2.058-1.118-3.165-.78zm47.667 10.336C225 58.716 224.36 55.5 222.49 53c.03-.26-.026-.557-.264-.793-1.52-1.548-3.843-3.46-6.21-2.963-3.865.8-5.112 5.717-4.04 9.1 1.412 4.477 6.982 5.452 10.48 2.527zM198.68 78.077c5.836-1.106 10.196-7.634 8.49-13.538-1.355-4.676-5.647-8.164-10.46-8.632-4.443-.435-7.37 2.4-8.784 6.097a.87.87 0 0 0-.332.545c-.666 3.47-1.864 8.13.713 11.175 2.423 2.863 6.487 5.07 10.375 4.353zm-39.28-3.9c5.462-.93 8.902-7.9 6.742-12.922-1.615-3.717-5.723-6.485-9.87-5.797-3.58.588-5.558 3.005-6.307 6.116-.06.12-.086.25-.096.4-.007.037.001.095-.01.15-.148.77-.248 1.59-.257 2.425-.002.21.064.355.153.486-.03 2.316.203 4.76 1.662 6.43 2.04 2.295 4.946 3.234 7.982 2.713zM147.983 94.07c1.29-1.103 2.636-2.88 2.307-4.715-.258-1.42-1.163-2.62-2.484-3.237-3.092-1.45-6.357.168-6.848 3.614a.9.9 0 0 0 .444.942c.037.198.072.413.13.596.864 2.697 3.827 5.017 6.45 2.8z" class="C"/></g><circle cx="60.009" cy="63.306" r="59.991" fill="#fecd81"/><mask id="A" mask-type="alpha" maskUnits="userSpaceOnUse" x="0" y="3" width="120" height="121"><circle cx="59.991" cy="63.304" r="59.991" fill="#f5f9e9"/></mask><g mask="url(#A)"><g fill="#faa629"><path d="M108.667 13.013C79.918 16.074 45.25 5.572 31.5-.062L-.375 20.826c7.28-2.604 27.65-5.956 49.493 3.483s50.276 9.216 71.24 6.187l-11.7-17.483zm-74.68 37.634c-16.1-.565-29.677-7.295-34.447-10.6l-4.416 23.828c5.935-9.037 26.497-5.935 38.863-3.177 57.764 12.885 76.5 12.885 89.738 8.825 7.36-7.53 17.665-20.086 0-25.593-22.08-6.884-69.6 7.413-89.738 6.707z"/><ellipse cx="34.906" cy="100.599" rx="11.538" ry="6.851" transform="rotate(355.153 34.906 100.599)"/><path d="M41.1 145.336c3.436-6.988 7.08-67.16 70.118-39.944-9.068 12.48-33.87 38.413-70.118 39.944z"/></g><g fill="#fff" class="D"><path d="M82.124 40.432c-14.932 0-22.042 1.875-37.685 1.875-11.732 0-19.9 0-33.24-6.253C5.363 34.247.683 26.022-4.267 23.46c2.696-1.888 5.762-3.622 9.197-5.15 11.727 5.843 25.644 9.186 43.42 12.56 13.403 2.544 43.143 6.855 63.993 5.183 1.237 2.535 1.5.198 1.415 2.858-10.323.458-20.435 0-31.634 1.52zm-5.352 38.825c-16.424-3.075-23.85-6.874-41.057-10.095-12.904-2.416-21.898-4.1-37.873.946-6.798 1.05-13.67 10.333-19.65 12.505 2.57 2.907 5.578 5.7 9.036 8.3 14.122-4.863 30.132-6.163 50.4-6.708 15.275-.4 48.9.343 71.474 6.72 1.892-2.903 1.68.06 2.156-3.27C100 84.968 88.77 83.457 76.772 79.257z"/></g><path d="M92.597 114.23C38.468 102.65 17.44 64.645 5.757 37.5H-4.757v95.19h97.354v-18.46z" fill="#f24333" fill-opacity=".15"/></g><path d="M73.233.236l-1.562 4.57 15.08 5.15 1.56-4.57c-5.876-2.362-9.174-3.482-15.08-5.15z" fill="#fecd81"/><path d="M31.84 121.41l1.568-4.59 15.08 5.15-1.568 4.59c-6.093-1.725-9.387-2.857-15.08-5.15z" fill="#fcb876"/><g fill="#221e38"><circle cx="81.738" cy="52.805" r="3"/><circle cx="110.233" cy="52.805" r="3"/><path d="M90.737 60.304h11.998c-.923 7.308-9.922 8.66-11.998 0z"/></g></g><defs><clipPath id="B"><path fill="#fff" d="M0 0h531v400H0z"/></clipPath><clipPath id="C"><path fill="#fff" transform="matrix(0 1 -1 0 230 200)" d="M0 0h100v100H0z"/></clipPath><clipPath id="D"><path fill="#fff" transform="matrix(0 1 -1 0 230 0)" d="M0 0h100v100H0z"/></clipPath><path id="E" d="M391.117 12.27c-16.5-2.743-57.744 16.498-60.487 32.997-2.743 13.755 4.124 17.88 13.755 24.747 6.868 4.125 20.623 10.992 28.872 13.755 26.13 12.374 38.503-1.382 49.495-23.366 19.24-37.142-2.763-35.76-31.635-48.134z"/></defs></svg>