<?xml version="1.0" encoding="UTF-8"?><!DOCTYPE svg  PUBLIC '-//W3C//DTD SVG 1.1//EN'  'http://www.w3.org/Graphics/SVG/1.1/DTD/svg11.dtd'><svg enable-background="new 0 0 491.341 491.341" version="1.1" viewBox="0 0 491.34 491.34" xml:space="preserve" xmlns="http://www.w3.org/2000/svg">	<path d="m261.17 141.59 2.637 31.676c1.013 12.176-2.783 24.02-10.666 33.349-7.909 9.329-18.969 15.021-31.139 16.038l-4.456 0.372-4.553 28.817c11.456-1.187 23-1.993 34.762-1.993 63.391 0 122.81 17.731 170.87 48.099l19.504-123.87c9.031-57.364-30.139-111.19-87.512-120.23-45.332-7.135-88.372 15.907-108.92 54.173 1.154 0.813 2.356 1.52 3.465 2.44 9.301 7.889 14.982 18.924 16 31.125z"/>	<path d="m4.155 438.78h487.19c-27.656-89.397-126.06-155.63-243.59-155.63-37.64 0-73.281 6.854-105.29 19.031 3.535-70.018 1.026-20.391 5.4-106.81l71.376-5.928c6.851-0.571 11.94-6.581 11.354-13.43l-2.616-31.687c-0.281-3.292-1.841-6.335-4.363-8.465-2.259-1.904-5.107-2.945-8.036-2.945-0.336 0-0.694 0.01-1.038 0.042l-63.779 5.305c2.018-40.146 1.445-28.802 2.604-51.637 0.178-3.4-1.057-6.728-3.4-9.198-2.363-2.474-5.61-3.873-9.03-3.873h-51.236c-3.4 0-6.673 1.398-9.016 3.873-2.338 2.47-3.573 5.797-3.413 9.198 1.527 29.814 0.878 17.241 2.928 57.498l-68.791 5.718c-6.844 0.57-11.92 6.587-11.366 13.429l2.63 31.687c0.281 3.292 1.859 6.336 4.362 8.466 2.248 1.903 5.107 2.946 8.036 2.946 0.356 0 0.682-0.01 1.039-0.042l66.951-5.563c4.425 87.43 2.477 48.707 6.508 128.58-41.347 27.594-71.881 65.705-85.412 109.44z"/></svg>