<?xml version="1.0" encoding="UTF-8"?><svg enable-background="new 0 0 512.001 512.001" version="1.1" viewBox="0 0 512 512" xml:space="preserve" xmlns="http://www.w3.org/2000/svg">	  	<path d="m417.91 490.43c-0.385-0.138-38.763-14.23-55.472-58.08-14.151-37.133-6.785-79.476 19.224-110.51 14.821-17.682 63.176-79.533 63.176-133-1e-3 -104.13-84.714-188.84-188.84-188.84s-188.84 84.714-188.84 188.84c0 69.232 32.57 145.85 87.125 204.96 45.579 49.385 127.55 109.98 259.22 118.18 0.234 0.014 0.467 0.022 0.699 0.022 5.239 0 9.811-3.685 10.875-8.88 1.108-5.426-1.946-10.84-7.162-12.695zm-247.3-111.69c-50.867-55.113-81.234-126.1-81.234-189.9 0-91.876 74.747-166.62 166.62-166.62s166.62 74.747 166.62 166.62c0 36.528-29.954 85.282-57.986 118.73-31.175 37.196-39.972 88.039-22.957 132.69 7.327 19.227 18.055 33.74 28.872 44.473-98.688-16.703-162.46-65.385-199.94-106z"/> 	<path d="m234.29 141.51c0-23.67-14.638-42.211-33.325-42.211-18.686 0-33.325 18.541-33.325 42.211 0 23.671 14.637 42.211 33.325 42.211 18.686 0 33.325-18.541 33.325-42.211zm-33.325 19.995c-5.244 0-11.108-8.551-11.108-19.995s5.864-19.995 11.108-19.995 11.108 8.551 11.108 19.995-5.864 19.995-11.108 19.995z" fill="red"/> 	<path d="m305.38 99.3c-18.686 0-33.325 18.541-33.325 42.211 0 23.671 14.638 42.211 33.325 42.211s33.325-18.541 33.325-42.211c0-23.671-14.637-42.211-33.325-42.211zm0 62.206c-5.244 0-11.108-8.551-11.108-19.995s5.864-19.995 11.108-19.995 11.108 8.551 11.108 19.995-5.864 19.995-11.108 19.995z" fill="red"/> 	<path d="m253.17 201.5c-22.356 0-40.545 18.189-40.545 40.545v32.214c0 22.356 18.189 40.545 40.545 40.545 22.355 0 40.545-18.189 40.545-40.545v-32.214c0-22.356-18.189-40.545-40.545-40.545zm18.328 72.759c0 10.106-8.221 18.329-18.329 18.329-10.106 0-18.329-8.222-18.329-18.329v-32.214c0-10.106 8.222-18.329 18.329-18.329 10.106 0 18.329 8.222 18.329 18.329v32.214z" fill="#ff0000dd"/> 	<path d="m361.1 257.15c1.806 1.102 3.802 1.626 5.773 1.626 3.746 0 7.401-1.895 9.494-5.326 15.503-25.419 24.04-48.366 24.04-64.613 0-6.135-4.974-11.108-11.108-11.108s-11.108 4.973-11.108 11.108c0 11.869-7.772 31.698-20.791 53.045-3.194 5.237-1.537 12.073 3.7 15.268z" stroke="green"/> 	</svg>