<svg xmlns="http://www.w3.org/2000/svg" viewBox="0 0 70 40"><defs><linearGradient id="f" x2="0" y2="1"><stop stop-color="#fff"/><stop offset=".7" stop-color="#fff"/><stop offset=".9" stop-color="#fff" stop-opacity="0"/></linearGradient><mask id="m"><rect width="70" height="40" fill="url(#f)"/></mask></defs><g fill="none" stroke-width="1.6" mask="url(#m)"><path stroke="#ff3b30" d="M7 36a28 28 0 0 1 56 0"/><path stroke="#ff9500" d="M8.5 36a26.5 26.5 0 0 1 53 0"/><path stroke="#ffcc00" d="M10 36a25 25 0 0 1 50 0"/><path stroke="#34c759" d="M11.5 36a23.5 23.5 0 0 1 47 0"/><path stroke="#007aff" d="M13 36a22 22 0 0 1 44 0"/><path stroke="#5856d6" d="M14.5 36a20.5 20.5 0 0 1 41 0"/><path stroke="#af52de" d="M16 36a19 19 0 0 1 38 0"/></g></svg>
