<svg width="1024" height="768" version="1.1" viewBox="0 0 271 203.3" xmlns="http://www.w3.org/2000/svg">
<defs>
<linearGradient id="a" x1="68.72" x2="68.72" y2="125.6" gradientUnits="userSpaceOnUse">
<stop style="stop-color:#373ec8" offset="0"/>
<stop style="stop-color:#6ea6fb" offset=".5973"/>
</linearGradient>
</defs>
<g transform="matrix(1.706 0 0 1.28 .06825 0)" style="stroke-width:.6766">
<rect width="158.8" height="125.1" style="fill:url(#a);stroke-width:.1791"/>
<path d="m120.5 75.7c-0.7341 0.01766-1.606 0.3153-2.67 0.9488-10.81 6.434-7.206 21.62-21.36 29.34-14.16 7.721-16.99 5.147-27.54 6.434s-6.434 5.662-28.31-14.67c-19.65-18.26-13.9-1.287-40.66 5.662v55.33h158.8v-42.06c-5.609-7.184-11.72-13.17-17.71-15.59-17.65-7.106-14.52-25.54-20.49-25.4z" style="fill:#c87137;stroke-width:.1791"/>
<path d="m84.09 102.4c-1.178-0.0101-2.351 0.6352-3.571 2.152-9.523 11.84-7.463 27.28-27.28 35.26-13.3 5.354-38.26 7.944-53.24 9.068v9.908h158.8v-44.37c-17.03 19.23-19.91-4.99-30.36-6.264-10.55-1.287-6.949 23.68-21.1 15.96-11.72-6.394-17.52-21.66-23.19-21.71z" style="fill:#cd7e49;stroke-width:.1791"/>
</g>
<path d="m45.87 46.3a8.099 7.069 0 0 0-8.099 7.069 8.099 7.069 0 0 0 0.2678 1.803 6.747 7.502 0 0 0-2.517 5.844 6.747 7.502 0 0 0 6.748 7.502 6.747 7.502 0 0 0 4.155-1.591 6.86 7.646 0 0 0 3.258 1.276 6.747 6.493 0 0 0 5.183 2.335 6.747 6.493 0 0 0 6.748-6.492 6.747 6.493 0 0 0-0.08573-1.031 7.648 7.935 0 0 0 4.134-7.048 7.648 7.935 0 0 0-7.648-7.934 7.648 7.935 0 0 0-5.033 1.96 8.099 7.069 0 0 0-7.113-3.691z" style="fill:#f9f9f9"/>
<path d="m115.2 31.26a7.789 10.51 0 0 0-7.512 7.73 5.803 2.657 0 0 0-1.524-0.09343 5.803 2.657 0 0 0-3.951 0.7109 6.258 10.34 0 0 0-2.923-1.198 6.258 10.34 0 0 0-6.258 10.34 6.258 10.34 0 0 0 6.258 10.34 6.258 10.34 0 0 0 2.658-0.9802 8.472 6.546 0 0 0 8.468 6.334 8.472 6.546 0 0 0 6.553-2.397 8.609 8.068 0 0 0 6.702 3.006 8.609 8.068 0 0 0 8.609-8.068 8.609 8.068 0 0 0-1.095-3.939 8.472 5.633 0 0 0 3.555-4.586 8.472 5.633 0 0 0-8.472-5.633 8.472 5.633 0 0 0-3.363 0.4627 7.789 10.51 0 0 0 0.0827-1.528 7.789 10.51 0 0 0-7.789-10.51z" style="fill:#f9f9f9"/>
<circle cx="22.32" cy="26.28" r="8.866" style="fill:#ff0"/>
<path d="m245.8 38.81a9.042 8.831 0 0 0-8.822 6.894 9.325 10.4 0 0 0-1.916-0.2216 9.325 10.4 0 0 0-9.325 10.4 9.325 10.4 0 0 0 9.325 10.4 9.325 10.4 0 0 0 2.599-0.4124 10.74 7.85 0 0 0 8.986 3.552 10.74 7.85 0 0 0 10.74-7.85 10.74 7.85 0 0 0-0.1572-1.338 9.748 7.85 0 0 0 7.786-7.689 9.748 7.85 0 0 0-9.748-7.85 9.748 7.85 0 0 0-0.928 0.03592 9.042 8.831 0 0 0-8.538-5.923z" style="fill:#f9f9f9;stroke-linejoin:bevel;stroke-width:1.112"/>
<path d="m187.5 37.57-9.88 9.759a12.15 12.36 0 0 0-0.1874-0.0014 12.15 12.36 0 0 0-2.654 0.2986l-12.8-3.955 3.002 8.841 0.8374 3.541a12.15 12.36 0 0 0-0.5381 3.638 12.15 12.36 0 0 0 12.15 12.36 12.15 12.36 0 0 0 12.15-12.36 12.15 12.36 0 0 0-2.342-7.297l0.0601-5.063z" style="fill:#f9f9f9;stroke-linejoin:bevel;stroke-width:1.112"/>
</svg>
